<svg width="2072" height="61" viewBox="0 0 2072 61" fill="none" xmlns="http://www.w3.org/2000/svg">
<g filter="url(#filter0_dd)">
<path d="M9.22105 41L6.24505 6.728H13.157L14.357 27.368C14.421 28.36 14.437 29.48 14.405 30.728C14.405 31.976 14.373 33.064 14.309 33.992H14.501C14.853 32.936 15.237 31.848 15.653 30.728C16.101 29.576 16.581 28.456 17.093 27.368L27.173 6.728H34.565L17.0451 41H9.22105ZM52.3656 11.528C51.3735 11.528 50.5255 11.32 49.8215 10.904C49.1495 10.456 48.8135 9.704 48.8135 8.648C48.8135 7.304 49.1816 6.28 49.9176 5.576C50.6856 4.872 51.7416 4.52 53.0856 4.52C54.0136 4.52 54.8296 4.728 55.5336 5.144C56.2376 5.56 56.5896 6.296 56.5896 7.352C56.5896 8.6 56.2376 9.608 55.5336 10.376C54.8616 11.144 53.8056 11.528 52.3656 11.528ZM42.1415 41L47.7095 14.792H54.7656L49.1976 41H42.1415ZM79.0476 41.48C75.9756 41.48 73.4796 40.648 71.5596 38.984C69.6396 37.288 68.6796 34.744 68.6796 31.352C68.6796 29.144 68.9836 27.032 69.5916 25.016C70.2316 22.968 71.1596 21.144 72.3756 19.544C73.6236 17.944 75.1596 16.68 76.9836 15.752C78.8076 14.792 80.9196 14.312 83.3196 14.312C86.2636 14.312 88.4556 14.984 89.8956 16.328C91.3676 17.672 92.1036 19.384 92.1036 21.464C92.1036 24.216 90.8556 26.424 88.3596 28.088C85.8956 29.752 82.1196 30.584 77.0316 30.584H75.8316C75.7996 30.776 75.7836 30.952 75.7836 31.112C75.7836 31.24 75.7836 31.384 75.7836 31.544C75.7836 32.952 76.1836 34.072 76.9836 34.904C77.8156 35.736 78.9676 36.152 80.4396 36.152C81.8156 36.152 83.0636 35.992 84.1836 35.672C85.3036 35.352 86.6316 34.84 88.1676 34.136V39.464C86.7916 40.136 85.3996 40.648 83.9916 41C82.5836 41.32 80.9356 41.48 79.0476 41.48ZM77.6556 25.832C80.3756 25.832 82.3276 25.416 83.5116 24.584C84.7276 23.72 85.3356 22.728 85.3356 21.608C85.3356 20.136 84.5196 19.4 82.8876 19.4C82.0236 19.4 81.1596 19.672 80.2956 20.216C79.4316 20.76 78.6636 21.512 77.9916 22.472C77.3516 23.432 76.8876 24.552 76.5996 25.832H77.6556ZM107.517 41L106.317 14.792H112.893L112.989 26.408C112.989 27.688 112.973 28.968 112.941 30.248C112.941 31.496 112.877 32.856 112.749 34.328H112.941C113.165 33.528 113.453 32.648 113.805 31.688C114.157 30.696 114.477 29.8 114.765 29C115.085 28.2 115.309 27.656 115.437 27.368L120.861 14.792H128.541V27.368C128.541 28.456 128.525 29.56 128.493 30.68C128.493 31.8 128.429 33.016 128.301 34.328H128.541C128.765 33.592 129.037 32.728 129.357 31.736C129.709 30.744 130.061 29.768 130.413 28.808C130.765 27.816 131.069 27.016 131.325 26.408L136.461 14.792H143.661L131.229 41H123.501L123.357 28.808C123.357 28.136 123.357 27.336 123.357 26.408C123.389 25.448 123.421 24.472 123.453 23.48C123.517 22.488 123.565 21.608 123.597 20.84H123.309C123.053 21.608 122.749 22.472 122.397 23.432C122.077 24.36 121.757 25.256 121.437 26.12C121.117 26.984 120.829 27.72 120.573 28.328L115.101 41H107.517ZM183.582 41.48C182.334 41.48 181.134 41.176 179.982 40.568C178.862 39.928 177.95 38.92 177.246 37.544C176.542 36.136 176.19 34.28 176.19 31.976C176.19 29.832 176.478 27.72 177.054 25.64C177.63 23.56 178.446 21.672 179.502 19.976C180.558 18.248 181.822 16.872 183.294 15.848C184.798 14.824 186.478 14.312 188.334 14.312C189.998 14.312 191.342 14.664 192.366 15.368C193.422 16.072 194.238 17 194.814 18.152H195.006L196.35 14.792H201.774L196.206 41H190.926L191.262 37.592H191.07C190.142 38.744 189.07 39.688 187.854 40.424C186.67 41.128 185.246 41.48 183.582 41.48ZM186.366 35.768C187.326 35.768 188.222 35.384 189.054 34.616C189.886 33.848 190.59 32.856 191.166 31.64C191.774 30.424 192.206 29.144 192.462 27.8C192.686 26.648 192.798 25.336 192.798 23.864C192.798 22.744 192.51 21.832 191.934 21.128C191.358 20.392 190.558 20.024 189.534 20.024C188.67 20.024 187.854 20.376 187.086 21.08C186.35 21.752 185.694 22.648 185.118 23.768C184.574 24.888 184.142 26.136 183.822 27.512C183.502 28.888 183.342 30.264 183.342 31.64C183.342 34.392 184.35 35.768 186.366 35.768ZM225.474 41.48C223.682 41.48 222.034 41.16 220.53 40.52C219.058 39.848 217.89 38.808 217.026 37.4C216.162 35.992 215.73 34.136 215.73 31.832C215.73 29.464 216.034 27.24 216.642 25.16C217.25 23.048 218.146 21.176 219.33 19.544C220.514 17.912 221.97 16.632 223.698 15.704C225.426 14.776 227.394 14.312 229.602 14.312C231.17 14.312 232.562 14.456 233.778 14.744C235.026 15.032 236.194 15.448 237.282 15.992L235.122 21.368C234.29 21.016 233.458 20.712 232.626 20.456C231.826 20.168 230.914 20.024 229.89 20.024C228.418 20.024 227.154 20.584 226.098 21.704C225.042 22.792 224.242 24.2 223.698 25.928C223.154 27.624 222.882 29.4 222.882 31.256C222.882 32.728 223.234 33.848 223.938 34.616C224.642 35.384 225.634 35.768 226.914 35.768C228.098 35.768 229.186 35.592 230.178 35.24C231.202 34.856 232.258 34.392 233.346 33.848V39.608C232.258 40.184 231.074 40.648 229.794 41C228.546 41.32 227.106 41.48 225.474 41.48ZM259.717 41.48C257.925 41.48 256.277 41.16 254.773 40.52C253.301 39.848 252.133 38.808 251.269 37.4C250.405 35.992 249.973 34.136 249.973 31.832C249.973 29.464 250.277 27.24 250.885 25.16C251.493 23.048 252.389 21.176 253.573 19.544C254.757 17.912 256.213 16.632 257.941 15.704C259.669 14.776 261.637 14.312 263.845 14.312C265.413 14.312 266.805 14.456 268.021 14.744C269.269 15.032 270.437 15.448 271.525 15.992L269.365 21.368C268.533 21.016 267.701 20.712 266.869 20.456C266.069 20.168 265.157 20.024 264.133 20.024C262.661 20.024 261.397 20.584 260.341 21.704C259.285 22.792 258.485 24.2 257.941 25.928C257.397 27.624 257.125 29.4 257.125 31.256C257.125 32.728 257.477 33.848 258.181 34.616C258.885 35.384 259.877 35.768 261.157 35.768C262.341 35.768 263.429 35.592 264.421 35.24C265.445 34.856 266.501 34.392 267.589 33.848V39.608C266.501 40.184 265.317 40.648 264.037 41C262.789 41.32 261.349 41.48 259.717 41.48ZM294.248 41.48C292.296 41.48 290.552 41.08 289.016 40.28C287.512 39.448 286.328 38.28 285.464 36.776C284.632 35.272 284.216 33.48 284.216 31.4C284.216 29.096 284.504 26.92 285.08 24.872C285.656 22.792 286.52 20.968 287.672 19.4C288.824 17.8 290.264 16.552 291.992 15.656C293.752 14.76 295.8 14.312 298.136 14.312C301.176 14.312 303.592 15.224 305.384 17.048C307.176 18.872 308.072 21.416 308.072 24.68C308.072 26.888 307.8 29 307.256 31.016C306.712 33.032 305.864 34.824 304.712 36.392C303.592 37.96 302.152 39.208 300.392 40.136C298.664 41.032 296.616 41.48 294.248 41.48ZM294.824 35.72C296.136 35.72 297.24 35.192 298.136 34.136C299.064 33.08 299.768 31.72 300.248 30.056C300.728 28.36 300.968 26.568 300.968 24.68C300.968 23.368 300.712 22.28 300.2 21.416C299.72 20.52 298.856 20.072 297.608 20.072C296.552 20.072 295.624 20.44 294.824 21.176C294.024 21.88 293.368 22.808 292.856 23.96C292.344 25.112 291.96 26.344 291.704 27.656C291.448 28.968 291.32 30.216 291.32 31.4C291.32 34.28 292.488 35.72 294.824 35.72ZM330.487 41.48C328.247 41.48 326.567 40.808 325.447 39.464C324.359 38.088 323.815 36.248 323.815 33.944C323.815 33.368 323.863 32.632 323.959 31.736C324.055 30.808 324.199 29.88 324.391 28.952L327.367 14.792H334.423L331.207 30.104C330.951 31.224 330.823 32.152 330.823 32.888C330.823 34.808 331.671 35.768 333.367 35.768C334.455 35.768 335.415 35.32 336.247 34.424C337.111 33.496 337.863 32.264 338.503 30.728C339.143 29.192 339.655 27.496 340.039 25.64L342.343 14.792H349.399L343.831 41H338.455L338.935 36.152H338.695C337.703 37.72 336.535 39 335.191 39.992C333.879 40.984 332.311 41.48 330.487 41.48ZM362.095 41L367.663 14.792H373.039L372.559 19.64H372.751C373.775 18.072 374.943 16.792 376.255 15.8C377.599 14.808 379.183 14.312 381.007 14.312C383.279 14.312 384.975 15 386.095 16.376C387.215 17.72 387.775 19.544 387.775 21.848C387.775 23 387.599 24.408 387.247 26.072L384.127 41H377.071L380.287 25.688C380.543 24.568 380.671 23.64 380.671 22.904C380.671 20.984 379.823 20.024 378.127 20.024C377.071 20.024 376.111 20.488 375.247 21.416C374.383 22.312 373.631 23.528 372.991 25.064C372.383 26.6 371.871 28.296 371.455 30.152L369.151 41H362.095ZM410.84 41.48C408.792 41.48 407.144 41.048 405.896 40.184C404.648 39.288 404.024 37.704 404.024 35.432C404.024 34.632 404.12 33.752 404.312 32.792L407 20.168H403.448L404.12 16.712L408.728 14.744L411.8 9.224H416.36L415.208 14.792H421.832L420.68 20.168H414.056L411.368 32.792C411.272 33.272 411.224 33.688 411.224 34.04C411.224 34.648 411.416 35.096 411.8 35.384C412.184 35.64 412.68 35.768 413.288 35.768C413.928 35.768 414.536 35.704 415.112 35.576C415.72 35.416 416.376 35.208 417.08 34.952V40.232C416.344 40.584 415.448 40.872 414.392 41.096C413.336 41.352 412.152 41.48 410.84 41.48ZM463.389 41.48C461.341 41.48 459.693 41.048 458.445 40.184C457.197 39.288 456.573 37.704 456.573 35.432C456.573 34.632 456.669 33.752 456.861 32.792L459.549 20.168H455.997L456.669 16.712L461.277 14.744L464.349 9.224H468.909L467.757 14.792H474.381L473.229 20.168H466.605L463.917 32.792C463.821 33.272 463.773 33.688 463.773 34.04C463.773 34.648 463.965 35.096 464.349 35.384C464.733 35.64 465.229 35.768 465.837 35.768C466.477 35.768 467.085 35.704 467.661 35.576C468.269 35.416 468.925 35.208 469.629 34.952V40.232C468.893 40.584 467.997 40.872 466.941 41.096C465.885 41.352 464.701 41.48 463.389 41.48ZM485.38 41L490.948 14.792H496.324L495.844 19.64H496.084C497.14 17.976 498.34 16.68 499.684 15.752C501.028 14.792 502.548 14.312 504.244 14.312C504.628 14.312 505.028 14.344 505.444 14.408C505.892 14.44 506.244 14.488 506.5 14.552L504.964 21.368C504.708 21.272 504.372 21.192 503.956 21.128C503.54 21.032 503.092 20.984 502.612 20.984C500.852 20.984 499.268 21.688 497.86 23.096C496.484 24.472 495.508 26.536 494.932 29.288L492.436 41H485.38ZM527.302 41.48C524.23 41.48 521.734 40.648 519.814 38.984C517.894 37.288 516.934 34.744 516.934 31.352C516.934 29.144 517.238 27.032 517.846 25.016C518.486 22.968 519.414 21.144 520.63 19.544C521.878 17.944 523.414 16.68 525.238 15.752C527.062 14.792 529.174 14.312 531.574 14.312C534.518 14.312 536.71 14.984 538.15 16.328C539.622 17.672 540.358 19.384 540.358 21.464C540.358 24.216 539.11 26.424 536.614 28.088C534.15 29.752 530.374 30.584 525.286 30.584H524.086C524.054 30.776 524.038 30.952 524.038 31.112C524.038 31.24 524.038 31.384 524.038 31.544C524.038 32.952 524.438 34.072 525.238 34.904C526.07 35.736 527.222 36.152 528.694 36.152C530.07 36.152 531.318 35.992 532.438 35.672C533.558 35.352 534.886 34.84 536.422 34.136V39.464C535.046 40.136 533.654 40.648 532.246 41C530.838 41.32 529.19 41.48 527.302 41.48ZM525.91 25.832C528.63 25.832 530.582 25.416 531.766 24.584C532.982 23.72 533.59 22.728 533.59 21.608C533.59 20.136 532.774 19.4 531.142 19.4C530.278 19.4 529.414 19.672 528.55 20.216C527.686 20.76 526.918 21.512 526.246 22.472C525.606 23.432 525.142 24.552 524.854 25.832H525.91ZM553.445 41L559.013 14.792H564.389L563.909 19.64H564.101C565.125 18.072 566.293 16.792 567.605 15.8C568.949 14.808 570.533 14.312 572.357 14.312C574.629 14.312 576.325 15 577.445 16.376C578.565 17.72 579.125 19.544 579.125 21.848C579.125 23 578.949 24.408 578.597 26.072L575.477 41H568.421L571.637 25.688C571.893 24.568 572.021 23.64 572.021 22.904C572.021 20.984 571.173 20.024 569.477 20.024C568.421 20.024 567.461 20.488 566.597 21.416C565.733 22.312 564.981 23.528 564.341 25.064C563.733 26.6 563.221 28.296 562.805 30.152L560.501 41H553.445ZM602.093 41.48C600.845 41.48 599.645 41.176 598.493 40.568C597.373 39.928 596.461 38.92 595.757 37.544C595.053 36.136 594.701 34.264 594.701 31.928C594.701 29.816 594.989 27.72 595.565 25.64C596.141 23.528 596.957 21.624 598.013 19.928C599.069 18.232 600.333 16.872 601.805 15.848C603.309 14.824 604.989 14.312 606.845 14.312C608.413 14.312 609.645 14.68 610.541 15.416C611.437 16.152 612.189 17.064 612.797 18.152H612.989C612.989 18.056 613.005 17.72 613.037 17.144C613.101 16.536 613.181 15.848 613.277 15.08C613.373 14.28 613.485 13.56 613.613 12.92L615.389 4.52H622.445L614.717 41H609.341L609.773 37.592H609.581C608.653 38.744 607.597 39.688 606.413 40.424C605.229 41.128 603.789 41.48 602.093 41.48ZM605.069 35.768C606.189 35.768 607.133 35.352 607.901 34.52C608.701 33.656 609.341 32.6 609.821 31.352C610.333 30.072 610.701 28.792 610.925 27.512C611.181 26.2 611.309 25.08 611.309 24.152C611.309 22.904 611.021 21.912 610.445 21.176C609.869 20.408 609.069 20.024 608.045 20.024C607.181 20.024 606.365 20.376 605.597 21.08C604.861 21.752 604.205 22.648 603.629 23.768C603.085 24.888 602.653 26.136 602.333 27.512C602.013 28.888 601.853 30.264 601.853 31.64C601.853 34.392 602.925 35.768 605.069 35.768ZM640.529 41.48C638.865 41.48 637.409 41.352 636.161 41.096C634.913 40.872 633.745 40.488 632.657 39.944V34.136C633.841 34.808 635.057 35.336 636.305 35.72C637.553 36.072 638.833 36.248 640.145 36.248C641.265 36.248 642.257 36.024 643.121 35.576C643.985 35.096 644.417 34.376 644.417 33.416C644.417 32.776 644.161 32.2 643.649 31.688C643.137 31.176 642.081 30.472 640.481 29.576C638.849 28.648 637.585 27.688 636.689 26.696C635.825 25.672 635.393 24.328 635.393 22.664C635.393 19.944 636.273 17.88 638.033 16.472C639.825 15.032 642.273 14.312 645.377 14.312C646.881 14.312 648.337 14.488 649.745 14.84C651.153 15.16 652.529 15.72 653.873 16.52L651.569 21.56C650.641 21.016 649.649 20.552 648.593 20.168C647.569 19.784 646.545 19.592 645.521 19.592C644.753 19.592 644.065 19.784 643.457 20.168C642.849 20.52 642.545 21.064 642.545 21.8C642.545 22.408 642.801 22.952 643.313 23.432C643.825 23.88 644.753 24.456 646.097 25.16C647.697 25.96 649.009 26.92 650.033 28.04C651.057 29.128 651.569 30.568 651.569 32.36C651.569 35.368 650.561 37.64 648.545 39.176C646.561 40.712 643.889 41.48 640.529 41.48ZM697.278 41.48C695.23 41.48 693.582 41.048 692.334 40.184C691.086 39.288 690.462 37.704 690.462 35.432C690.462 34.632 690.558 33.752 690.75 32.792L693.438 20.168H689.886L690.558 16.712L695.166 14.744L698.238 9.224H702.798L701.646 14.792H708.27L707.118 20.168H700.494L697.806 32.792C697.71 33.272 697.662 33.688 697.662 34.04C697.662 34.648 697.854 35.096 698.238 35.384C698.622 35.64 699.118 35.768 699.726 35.768C700.366 35.768 700.974 35.704 701.55 35.576C702.158 35.416 702.814 35.208 703.518 34.952V40.232C702.782 40.584 701.886 40.872 700.83 41.096C699.774 41.352 698.59 41.48 697.278 41.48ZM730.55 41.48C728.598 41.48 726.854 41.08 725.318 40.28C723.814 39.448 722.63 38.28 721.766 36.776C720.934 35.272 720.518 33.48 720.518 31.4C720.518 29.096 720.806 26.92 721.382 24.872C721.958 22.792 722.822 20.968 723.974 19.4C725.126 17.8 726.566 16.552 728.294 15.656C730.054 14.76 732.102 14.312 734.438 14.312C737.478 14.312 739.894 15.224 741.686 17.048C743.478 18.872 744.374 21.416 744.374 24.68C744.374 26.888 744.102 29 743.558 31.016C743.014 33.032 742.166 34.824 741.014 36.392C739.894 37.96 738.454 39.208 736.694 40.136C734.966 41.032 732.918 41.48 730.55 41.48ZM731.126 35.72C732.438 35.72 733.542 35.192 734.438 34.136C735.366 33.08 736.07 31.72 736.55 30.056C737.03 28.36 737.27 26.568 737.27 24.68C737.27 23.368 737.014 22.28 736.502 21.416C736.022 20.52 735.158 20.072 733.91 20.072C732.854 20.072 731.926 20.44 731.126 21.176C730.326 21.88 729.67 22.808 729.158 23.96C728.646 25.112 728.262 26.344 728.006 27.656C727.75 28.968 727.622 30.216 727.622 31.4C727.622 34.28 728.79 35.72 731.126 35.72ZM788.849 41.48C787.601 41.48 786.401 41.176 785.249 40.568C784.129 39.928 783.217 38.92 782.513 37.544C781.809 36.136 781.457 34.28 781.457 31.976C781.457 29.832 781.745 27.72 782.321 25.64C782.897 23.56 783.713 21.672 784.769 19.976C785.825 18.248 787.089 16.872 788.561 15.848C790.065 14.824 791.745 14.312 793.601 14.312C795.265 14.312 796.609 14.664 797.633 15.368C798.689 16.072 799.505 17 800.081 18.152H800.273L801.617 14.792H807.041L801.473 41H796.193L796.529 37.592H796.337C795.409 38.744 794.337 39.688 793.121 40.424C791.937 41.128 790.513 41.48 788.849 41.48ZM791.633 35.768C792.593 35.768 793.489 35.384 794.321 34.616C795.153 33.848 795.857 32.856 796.433 31.64C797.041 30.424 797.473 29.144 797.729 27.8C797.953 26.648 798.065 25.336 798.065 23.864C798.065 22.744 797.777 21.832 797.201 21.128C796.625 20.392 795.825 20.024 794.801 20.024C793.937 20.024 793.121 20.376 792.353 21.08C791.617 21.752 790.961 22.648 790.385 23.768C789.841 24.888 789.409 26.136 789.089 27.512C788.769 28.888 788.609 30.264 788.609 31.64C788.609 34.392 789.617 35.768 791.633 35.768ZM828.389 41.48C827.141 41.48 825.941 41.176 824.789 40.568C823.669 39.928 822.757 38.92 822.053 37.544C821.349 36.136 820.997 34.264 820.997 31.928C820.997 29.816 821.285 27.72 821.861 25.64C822.437 23.528 823.253 21.624 824.309 19.928C825.365 18.232 826.629 16.872 828.101 15.848C829.605 14.824 831.285 14.312 833.141 14.312C834.709 14.312 835.941 14.68 836.837 15.416C837.733 16.152 838.485 17.064 839.093 18.152H839.285C839.285 18.056 839.301 17.72 839.333 17.144C839.397 16.536 839.477 15.848 839.573 15.08C839.669 14.28 839.781 13.56 839.909 12.92L841.685 4.52H848.741L841.013 41H835.637L836.069 37.592H835.877C834.949 38.744 833.893 39.688 832.709 40.424C831.525 41.128 830.085 41.48 828.389 41.48ZM831.365 35.768C832.485 35.768 833.429 35.352 834.197 34.52C834.997 33.656 835.637 32.6 836.117 31.352C836.629 30.072 836.997 28.792 837.221 27.512C837.477 26.2 837.605 25.08 837.605 24.152C837.605 22.904 837.317 21.912 836.741 21.176C836.165 20.408 835.365 20.024 834.341 20.024C833.477 20.024 832.661 20.376 831.893 21.08C831.157 21.752 830.501 22.648 829.925 23.768C829.381 24.888 828.949 26.136 828.629 27.512C828.309 28.888 828.149 30.264 828.149 31.64C828.149 34.392 829.221 35.768 831.365 35.768ZM864.041 41L860.825 14.792H867.737L868.793 28.52C868.857 29.128 868.889 29.976 868.889 31.064C868.921 32.12 868.937 33.08 868.937 33.944H869.177C869.465 33.144 869.801 32.232 870.185 31.208C870.569 30.152 870.921 29.32 871.241 28.712L878.201 14.792H885.785L871.625 41H864.041ZM905.116 11.528C904.124 11.528 903.276 11.32 902.572 10.904C901.9 10.456 901.564 9.704 901.564 8.648C901.564 7.304 901.932 6.28 902.668 5.576C903.436 4.872 904.492 4.52 905.836 4.52C906.764 4.52 907.58 4.728 908.284 5.144C908.988 5.56 909.34 6.296 909.34 7.352C909.34 8.6 908.988 9.608 908.284 10.376C907.612 11.144 906.556 11.528 905.116 11.528ZM894.892 41L900.46 14.792H907.516L901.948 41H894.892ZM927.718 41.48C926.054 41.48 924.598 41.352 923.35 41.096C922.102 40.872 920.934 40.488 919.846 39.944V34.136C921.03 34.808 922.246 35.336 923.494 35.72C924.742 36.072 926.022 36.248 927.334 36.248C928.454 36.248 929.446 36.024 930.31 35.576C931.174 35.096 931.606 34.376 931.606 33.416C931.606 32.776 931.35 32.2 930.838 31.688C930.326 31.176 929.27 30.472 927.67 29.576C926.038 28.648 924.774 27.688 923.878 26.696C923.014 25.672 922.582 24.328 922.582 22.664C922.582 19.944 923.462 17.88 925.222 16.472C927.014 15.032 929.462 14.312 932.566 14.312C934.07 14.312 935.526 14.488 936.934 14.84C938.342 15.16 939.718 15.72 941.062 16.52L938.758 21.56C937.83 21.016 936.838 20.552 935.782 20.168C934.758 19.784 933.734 19.592 932.71 19.592C931.942 19.592 931.254 19.784 930.646 20.168C930.038 20.52 929.734 21.064 929.734 21.8C929.734 22.408 929.99 22.952 930.502 23.432C931.014 23.88 931.942 24.456 933.286 25.16C934.886 25.96 936.198 26.92 937.222 28.04C938.246 29.128 938.758 30.568 938.758 32.36C938.758 35.368 937.75 37.64 935.734 39.176C933.75 40.712 931.078 41.48 927.718 41.48ZM965.525 41.48C962.453 41.48 959.957 40.648 958.037 38.984C956.117 37.288 955.157 34.744 955.157 31.352C955.157 29.144 955.461 27.032 956.069 25.016C956.709 22.968 957.637 21.144 958.853 19.544C960.101 17.944 961.637 16.68 963.461 15.752C965.285 14.792 967.397 14.312 969.797 14.312C972.741 14.312 974.933 14.984 976.373 16.328C977.845 17.672 978.581 19.384 978.581 21.464C978.581 24.216 977.333 26.424 974.837 28.088C972.373 29.752 968.597 30.584 963.509 30.584H962.309C962.277 30.776 962.261 30.952 962.261 31.112C962.261 31.24 962.261 31.384 962.261 31.544C962.261 32.952 962.661 34.072 963.461 34.904C964.293 35.736 965.445 36.152 966.917 36.152C968.293 36.152 969.541 35.992 970.661 35.672C971.781 35.352 973.109 34.84 974.645 34.136V39.464C973.269 40.136 971.877 40.648 970.469 41C969.061 41.32 967.413 41.48 965.525 41.48ZM964.133 25.832C966.853 25.832 968.805 25.416 969.989 24.584C971.205 23.72 971.813 22.728 971.813 21.608C971.813 20.136 970.997 19.4 969.365 19.4C968.501 19.4 967.637 19.672 966.773 20.216C965.909 20.76 965.141 21.512 964.469 22.472C963.829 23.432 963.365 24.552 963.077 25.832H964.133ZM1012.77 52.52C1011.94 52.52 1011.25 52.472 1010.71 52.376C1010.16 52.312 1009.7 52.216 1009.31 52.088V46.472C1009.73 46.536 1010.16 46.6 1010.61 46.664C1011.03 46.728 1011.51 46.76 1012.05 46.76C1013.55 46.76 1014.79 46.328 1015.75 45.464C1016.71 44.6 1017.54 43.496 1018.24 42.152L1018.87 41L1015.03 14.792H1021.94L1023.23 26.936C1023.36 28.024 1023.44 29.208 1023.47 30.488C1023.51 31.768 1023.52 32.872 1023.52 33.8H1023.71C1024.03 33 1024.39 32.072 1024.77 31.016C1025.15 29.928 1025.65 28.728 1026.26 27.416L1032.35 14.792H1040.03L1024.1 44.744C1022.69 47.4 1021.03 49.352 1019.11 50.6C1017.22 51.88 1015.11 52.52 1012.77 52.52ZM1060.7 41.48C1058.75 41.48 1057 41.08 1055.47 40.28C1053.96 39.448 1052.78 38.28 1051.92 36.776C1051.08 35.272 1050.67 33.48 1050.67 31.4C1050.67 29.096 1050.96 26.92 1051.53 24.872C1052.11 22.792 1052.97 20.968 1054.12 19.4C1055.28 17.8 1056.72 16.552 1058.44 15.656C1060.2 14.76 1062.25 14.312 1064.59 14.312C1067.63 14.312 1070.04 15.224 1071.84 17.048C1073.63 18.872 1074.52 21.416 1074.52 24.68C1074.52 26.888 1074.25 29 1073.71 31.016C1073.16 33.032 1072.32 34.824 1071.16 36.392C1070.04 37.96 1068.6 39.208 1066.84 40.136C1065.12 41.032 1063.07 41.48 1060.7 41.48ZM1061.28 35.72C1062.59 35.72 1063.69 35.192 1064.59 34.136C1065.52 33.08 1066.22 31.72 1066.7 30.056C1067.18 28.36 1067.42 26.568 1067.42 24.68C1067.42 23.368 1067.16 22.28 1066.65 21.416C1066.17 20.52 1065.31 20.072 1064.06 20.072C1063 20.072 1062.08 20.44 1061.28 21.176C1060.48 21.88 1059.82 22.808 1059.31 23.96C1058.8 25.112 1058.41 26.344 1058.16 27.656C1057.9 28.968 1057.77 30.216 1057.77 31.4C1057.77 34.28 1058.94 35.72 1061.28 35.72ZM1096.94 41.48C1094.7 41.48 1093.02 40.808 1091.9 39.464C1090.81 38.088 1090.27 36.248 1090.27 33.944C1090.27 33.368 1090.31 32.632 1090.41 31.736C1090.51 30.808 1090.65 29.88 1090.84 28.952L1093.82 14.792H1100.87L1097.66 30.104C1097.4 31.224 1097.27 32.152 1097.27 32.888C1097.27 34.808 1098.12 35.768 1099.82 35.768C1100.91 35.768 1101.87 35.32 1102.7 34.424C1103.56 33.496 1104.31 32.264 1104.95 30.728C1105.59 29.192 1106.11 27.496 1106.49 25.64L1108.79 14.792H1115.85L1110.28 41H1104.91L1105.39 36.152H1105.15C1104.15 37.72 1102.99 39 1101.64 39.992C1100.33 40.984 1098.76 41.48 1096.94 41.48ZM1128.55 41L1134.11 14.792H1139.49L1139.01 19.64H1139.25C1140.31 17.976 1141.51 16.68 1142.85 15.752C1144.19 14.792 1145.71 14.312 1147.41 14.312C1147.79 14.312 1148.19 14.344 1148.61 14.408C1149.06 14.44 1149.41 14.488 1149.67 14.552L1148.13 21.368C1147.87 21.272 1147.54 21.192 1147.12 21.128C1146.71 21.032 1146.26 20.984 1145.78 20.984C1144.02 20.984 1142.43 21.688 1141.03 23.096C1139.65 24.472 1138.67 26.536 1138.1 29.288L1135.6 41H1128.55ZM1167.33 41.48C1165.66 41.48 1164.21 41.352 1162.96 41.096C1161.71 40.872 1160.54 40.488 1159.45 39.944V34.136C1160.64 34.808 1161.85 35.336 1163.1 35.72C1164.35 36.072 1165.63 36.248 1166.94 36.248C1168.06 36.248 1169.05 36.024 1169.92 35.576C1170.78 35.096 1171.21 34.376 1171.21 33.416C1171.21 32.776 1170.96 32.2 1170.45 31.688C1169.93 31.176 1168.88 30.472 1167.28 29.576C1165.65 28.648 1164.38 27.688 1163.49 26.696C1162.62 25.672 1162.19 24.328 1162.19 22.664C1162.19 19.944 1163.07 17.88 1164.83 16.472C1166.62 15.032 1169.07 14.312 1172.17 14.312C1173.68 14.312 1175.13 14.488 1176.54 14.84C1177.95 15.16 1179.33 15.72 1180.67 16.52L1178.37 21.56C1177.44 21.016 1176.45 20.552 1175.39 20.168C1174.37 19.784 1173.34 19.592 1172.32 19.592C1171.55 19.592 1170.86 19.784 1170.25 20.168C1169.65 20.52 1169.34 21.064 1169.34 21.8C1169.34 22.408 1169.6 22.952 1170.11 23.432C1170.62 23.88 1171.55 24.456 1172.89 25.16C1174.49 25.96 1175.81 26.92 1176.83 28.04C1177.85 29.128 1178.37 30.568 1178.37 32.36C1178.37 35.368 1177.36 37.64 1175.34 39.176C1173.36 40.712 1170.69 41.48 1167.33 41.48ZM1205.13 41.48C1202.06 41.48 1199.57 40.648 1197.65 38.984C1195.73 37.288 1194.77 34.744 1194.77 31.352C1194.77 29.144 1195.07 27.032 1195.68 25.016C1196.32 22.968 1197.25 21.144 1198.46 19.544C1199.71 17.944 1201.25 16.68 1203.07 15.752C1204.89 14.792 1207.01 14.312 1209.41 14.312C1212.35 14.312 1214.54 14.984 1215.98 16.328C1217.45 17.672 1218.19 19.384 1218.19 21.464C1218.19 24.216 1216.94 26.424 1214.45 28.088C1211.98 29.752 1208.21 30.584 1203.12 30.584H1201.92C1201.89 30.776 1201.87 30.952 1201.87 31.112C1201.87 31.24 1201.87 31.384 1201.87 31.544C1201.87 32.952 1202.27 34.072 1203.07 34.904C1203.9 35.736 1205.05 36.152 1206.53 36.152C1207.9 36.152 1209.15 35.992 1210.27 35.672C1211.39 35.352 1212.72 34.84 1214.25 34.136V39.464C1212.88 40.136 1211.49 40.648 1210.08 41C1208.67 41.32 1207.02 41.48 1205.13 41.48ZM1203.74 25.832C1206.46 25.832 1208.41 25.416 1209.6 24.584C1210.81 23.72 1211.42 22.728 1211.42 21.608C1211.42 20.136 1210.61 19.4 1208.97 19.4C1208.11 19.4 1207.25 19.672 1206.38 20.216C1205.52 20.76 1204.75 21.512 1204.08 22.472C1203.44 23.432 1202.97 24.552 1202.69 25.832H1203.74ZM1231.28 41L1239 4.52H1246.06L1238.33 41H1231.28ZM1254.65 52.52C1253.01 52.52 1251.65 52.328 1250.57 51.944V46.28C1251.53 46.6 1252.42 46.76 1253.25 46.76C1254.21 46.76 1255.05 46.44 1255.75 45.8C1256.49 45.16 1257 44.152 1257.29 42.776L1262.09 20.168H1258.25L1258.97 16.76L1263.24 14.792L1263.67 12.824C1264.37 9.656 1265.51 7.448 1267.08 6.2C1268.68 4.92 1270.76 4.28 1273.32 4.28C1274.41 4.28 1275.4 4.392 1276.29 4.616C1277.22 4.808 1278.07 5.08 1278.84 5.432L1276.97 10.664C1276.52 10.472 1276.04 10.312 1275.53 10.184C1275.05 10.024 1274.49 9.944 1273.85 9.944C1272.95 9.944 1272.23 10.264 1271.69 10.904C1271.14 11.512 1270.77 12.328 1270.58 13.352L1270.29 14.792H1275.43L1274.28 20.168H1269.14L1264.1 43.832C1263.78 45.432 1263.25 46.888 1262.52 48.2C1261.78 49.512 1260.77 50.552 1259.49 51.32C1258.25 52.12 1256.63 52.52 1254.65 52.52ZM1318.61 41.48C1316.66 41.48 1314.92 41.08 1313.38 40.28C1311.88 39.448 1310.69 38.28 1309.83 36.776C1309 35.272 1308.58 33.48 1308.58 31.4C1308.58 29.096 1308.87 26.92 1309.45 24.872C1310.02 22.792 1310.89 20.968 1312.04 19.4C1313.19 17.8 1314.63 16.552 1316.36 15.656C1318.12 14.76 1320.17 14.312 1322.5 14.312C1325.54 14.312 1327.96 15.224 1329.75 17.048C1331.54 18.872 1332.44 21.416 1332.44 24.68C1332.44 26.888 1332.17 29 1331.62 31.016C1331.08 33.032 1330.23 34.824 1329.08 36.392C1327.96 37.96 1326.52 39.208 1324.76 40.136C1323.03 41.032 1320.98 41.48 1318.61 41.48ZM1319.19 35.72C1320.5 35.72 1321.61 35.192 1322.5 34.136C1323.43 33.08 1324.13 31.72 1324.61 30.056C1325.09 28.36 1325.33 26.568 1325.33 24.68C1325.33 23.368 1325.08 22.28 1324.57 21.416C1324.09 20.52 1323.22 20.072 1321.97 20.072C1320.92 20.072 1319.99 20.44 1319.19 21.176C1318.39 21.88 1317.73 22.808 1317.22 23.96C1316.71 25.112 1316.33 26.344 1316.07 27.656C1315.81 28.968 1315.69 30.216 1315.69 31.4C1315.69 34.28 1316.85 35.72 1319.19 35.72ZM1346.45 41L1352.02 14.792H1357.4L1356.92 19.64H1357.11C1358.13 18.072 1359.3 16.792 1360.61 15.8C1361.96 14.808 1363.54 14.312 1365.36 14.312C1367.64 14.312 1369.33 15 1370.45 16.376C1371.57 17.72 1372.13 19.544 1372.13 21.848C1372.13 23 1371.96 24.408 1371.6 26.072L1368.48 41H1361.43L1364.64 25.688C1364.9 24.568 1365.03 23.64 1365.03 22.904C1365.03 20.984 1364.18 20.024 1362.48 20.024C1361.43 20.024 1360.47 20.488 1359.6 21.416C1358.74 22.312 1357.99 23.528 1357.35 25.064C1356.74 26.6 1356.23 28.296 1355.81 30.152L1353.51 41H1346.45ZM1421.72 41.48C1420.06 41.48 1418.7 41.128 1417.64 40.424C1416.62 39.72 1415.82 38.792 1415.24 37.64H1415.05L1413.71 41H1408.28L1416.01 4.52H1423.07L1421.63 11.288C1421.5 11.928 1421.32 12.68 1421.1 13.544C1420.87 14.376 1420.63 15.224 1420.38 16.088C1420.12 16.92 1419.88 17.656 1419.66 18.296H1419.85C1420.68 17.24 1421.59 16.312 1422.59 15.512C1423.58 14.712 1424.87 14.312 1426.47 14.312C1427.75 14.312 1428.95 14.632 1430.07 15.272C1431.19 15.88 1432.11 16.888 1432.81 18.296C1433.51 19.672 1433.87 21.512 1433.87 23.816C1433.87 25.96 1433.58 28.072 1433 30.152C1432.43 32.232 1431.61 34.136 1430.55 35.864C1429.5 37.56 1428.22 38.92 1426.71 39.944C1425.24 40.968 1423.58 41.48 1421.72 41.48ZM1420.52 35.768C1421.39 35.768 1422.19 35.432 1422.92 34.76C1423.69 34.056 1424.35 33.144 1424.89 32.024C1425.47 30.904 1425.91 29.656 1426.23 28.28C1426.55 26.904 1426.71 25.528 1426.71 24.152C1426.71 21.4 1425.69 20.024 1423.64 20.024C1422.49 20.024 1421.51 20.44 1420.71 21.272C1419.91 22.104 1419.26 23.16 1418.75 24.44C1418.23 25.688 1417.85 26.968 1417.59 28.28C1417.37 29.592 1417.26 30.712 1417.26 31.64C1417.26 32.888 1417.55 33.896 1418.12 34.664C1418.73 35.4 1419.53 35.768 1420.52 35.768ZM1459.48 41.48C1456.41 41.48 1453.92 40.648 1452 38.984C1450.08 37.288 1449.12 34.744 1449.12 31.352C1449.12 29.144 1449.42 27.032 1450.03 25.016C1450.67 22.968 1451.6 21.144 1452.81 19.544C1454.06 17.944 1455.6 16.68 1457.42 15.752C1459.24 14.792 1461.36 14.312 1463.76 14.312C1466.7 14.312 1468.89 14.984 1470.33 16.328C1471.8 17.672 1472.54 19.384 1472.54 21.464C1472.54 24.216 1471.29 26.424 1468.8 28.088C1466.33 29.752 1462.56 30.584 1457.47 30.584H1456.27C1456.24 30.776 1456.22 30.952 1456.22 31.112C1456.22 31.24 1456.22 31.384 1456.22 31.544C1456.22 32.952 1456.62 34.072 1457.42 34.904C1458.25 35.736 1459.4 36.152 1460.88 36.152C1462.25 36.152 1463.5 35.992 1464.62 35.672C1465.74 35.352 1467.07 34.84 1468.6 34.136V39.464C1467.23 40.136 1465.84 40.648 1464.43 41C1463.02 41.32 1461.37 41.48 1459.48 41.48ZM1458.09 25.832C1460.81 25.832 1462.76 25.416 1463.95 24.584C1465.16 23.72 1465.77 22.728 1465.77 21.608C1465.77 20.136 1464.96 19.4 1463.32 19.4C1462.46 19.4 1461.6 19.672 1460.73 20.216C1459.87 20.76 1459.1 21.512 1458.43 22.472C1457.79 23.432 1457.32 24.552 1457.04 25.832H1458.09ZM1494.36 41.48C1492.32 41.48 1490.67 41.048 1489.42 40.184C1488.17 39.288 1487.55 37.704 1487.55 35.432C1487.55 34.632 1487.64 33.752 1487.84 32.792L1490.52 20.168H1486.97L1487.64 16.712L1492.25 14.744L1495.32 9.224H1499.88L1498.73 14.792H1505.36L1504.2 20.168H1497.58L1494.89 32.792C1494.8 33.272 1494.75 33.688 1494.75 34.04C1494.75 34.648 1494.94 35.096 1495.32 35.384C1495.71 35.64 1496.2 35.768 1496.81 35.768C1497.45 35.768 1498.06 35.704 1498.64 35.576C1499.24 35.416 1499.9 35.208 1500.6 34.952V40.232C1499.87 40.584 1498.97 40.872 1497.92 41.096C1496.86 41.352 1495.68 41.48 1494.36 41.48ZM1525.09 41.48C1523.04 41.48 1521.39 41.048 1520.15 40.184C1518.9 39.288 1518.27 37.704 1518.27 35.432C1518.27 34.632 1518.37 33.752 1518.56 32.792L1521.25 20.168H1517.7L1518.37 16.712L1522.98 14.744L1526.05 9.224H1530.61L1529.46 14.792H1536.08L1534.93 20.168H1528.31L1525.62 32.792C1525.52 33.272 1525.47 33.688 1525.47 34.04C1525.47 34.648 1525.67 35.096 1526.05 35.384C1526.43 35.64 1526.93 35.768 1527.54 35.768C1528.18 35.768 1528.79 35.704 1529.36 35.576C1529.97 35.416 1530.63 35.208 1531.33 34.952V40.232C1530.59 40.584 1529.7 40.872 1528.64 41.096C1527.59 41.352 1526.4 41.48 1525.09 41.48ZM1558.7 41.48C1555.63 41.48 1553.13 40.648 1551.21 38.984C1549.29 37.288 1548.33 34.744 1548.33 31.352C1548.33 29.144 1548.63 27.032 1549.24 25.016C1549.88 22.968 1550.81 21.144 1552.03 19.544C1553.27 17.944 1554.81 16.68 1556.63 15.752C1558.46 14.792 1560.57 14.312 1562.97 14.312C1565.91 14.312 1568.11 14.984 1569.55 16.328C1571.02 17.672 1571.75 19.384 1571.75 21.464C1571.75 24.216 1570.51 26.424 1568.01 28.088C1565.55 29.752 1561.77 30.584 1556.68 30.584H1555.48C1555.45 30.776 1555.43 30.952 1555.43 31.112C1555.43 31.24 1555.43 31.384 1555.43 31.544C1555.43 32.952 1555.83 34.072 1556.63 34.904C1557.47 35.736 1558.62 36.152 1560.09 36.152C1561.47 36.152 1562.71 35.992 1563.83 35.672C1564.95 35.352 1566.28 34.84 1567.82 34.136V39.464C1566.44 40.136 1565.05 40.648 1563.64 41C1562.23 41.32 1560.59 41.48 1558.7 41.48ZM1557.31 25.832C1560.03 25.832 1561.98 25.416 1563.16 24.584C1564.38 23.72 1564.99 22.728 1564.99 21.608C1564.99 20.136 1564.17 19.4 1562.54 19.4C1561.67 19.4 1560.81 19.672 1559.95 20.216C1559.08 20.76 1558.31 21.512 1557.64 22.472C1557 23.432 1556.54 24.552 1556.25 25.832H1557.31ZM1584.84 41L1590.41 14.792H1595.78L1595.3 19.64H1595.54C1596.6 17.976 1597.8 16.68 1599.14 15.752C1600.49 14.792 1602.01 14.312 1603.7 14.312C1604.09 14.312 1604.49 14.344 1604.9 14.408C1605.35 14.44 1605.7 14.488 1605.96 14.552L1604.42 21.368C1604.17 21.272 1603.83 21.192 1603.42 21.128C1603 21.032 1602.55 20.984 1602.07 20.984C1600.31 20.984 1598.73 21.688 1597.32 23.096C1595.94 24.472 1594.97 26.536 1594.39 29.288L1591.9 41H1584.84ZM1637.91 41L1643.47 14.792H1648.85L1648.37 19.64H1648.56C1649.59 18.072 1650.75 16.792 1652.07 15.8C1653.41 14.808 1654.99 14.312 1656.82 14.312C1658.61 14.312 1660 14.792 1660.99 15.752C1661.99 16.68 1662.64 17.976 1662.96 19.64H1663.15C1664.15 18.072 1665.33 16.792 1666.71 15.8C1668.08 14.808 1669.68 14.312 1671.51 14.312C1673.68 14.312 1675.31 15 1676.4 16.376C1677.49 17.72 1678.03 19.544 1678.03 21.848C1678.03 23 1677.86 24.408 1677.51 26.072L1674.39 41H1667.33L1670.55 25.688C1670.8 24.568 1670.93 23.64 1670.93 22.904C1670.93 20.984 1670.16 20.024 1668.63 20.024C1667.57 20.024 1666.61 20.472 1665.75 21.368C1664.88 22.264 1664.13 23.48 1663.49 25.016C1662.85 26.52 1662.34 28.216 1661.95 30.104L1659.7 41H1652.64L1655.86 25.688C1656.11 24.568 1656.24 23.64 1656.24 22.904C1656.24 20.984 1655.47 20.024 1653.94 20.024C1652.88 20.024 1651.92 20.488 1651.06 21.416C1650.19 22.312 1649.44 23.528 1648.8 25.064C1648.19 26.6 1647.68 28.296 1647.27 30.152L1644.96 41H1637.91ZM1703.68 41.48C1701.73 41.48 1699.98 41.08 1698.45 40.28C1696.94 39.448 1695.76 38.28 1694.89 36.776C1694.06 35.272 1693.65 33.48 1693.65 31.4C1693.65 29.096 1693.93 26.92 1694.51 24.872C1695.09 22.792 1695.95 20.968 1697.1 19.4C1698.25 17.8 1699.69 16.552 1701.42 15.656C1703.18 14.76 1705.23 14.312 1707.57 14.312C1710.61 14.312 1713.02 15.224 1714.81 17.048C1716.61 18.872 1717.5 21.416 1717.5 24.68C1717.5 26.888 1717.23 29 1716.69 31.016C1716.14 33.032 1715.29 34.824 1714.14 36.392C1713.02 37.96 1711.58 39.208 1709.82 40.136C1708.09 41.032 1706.05 41.48 1703.68 41.48ZM1704.25 35.72C1705.57 35.72 1706.67 35.192 1707.57 34.136C1708.49 33.08 1709.2 31.72 1709.68 30.056C1710.16 28.36 1710.4 26.568 1710.4 24.68C1710.4 23.368 1710.14 22.28 1709.63 21.416C1709.15 20.52 1708.29 20.072 1707.04 20.072C1705.98 20.072 1705.05 20.44 1704.25 21.176C1703.45 21.88 1702.8 22.808 1702.29 23.96C1701.77 25.112 1701.39 26.344 1701.13 27.656C1700.88 28.968 1700.75 30.216 1700.75 31.4C1700.75 34.28 1701.92 35.72 1704.25 35.72ZM1731.52 41L1737.08 14.792H1742.46L1741.98 19.64H1742.17C1743.2 18.072 1744.36 16.792 1745.68 15.8C1747.02 14.808 1748.6 14.312 1750.43 14.312C1752.7 14.312 1754.4 15 1755.52 16.376C1756.64 17.72 1757.2 19.544 1757.2 21.848C1757.2 23 1757.02 24.408 1756.67 26.072L1753.55 41H1746.49L1749.71 25.688C1749.96 24.568 1750.09 23.64 1750.09 22.904C1750.09 20.984 1749.24 20.024 1747.55 20.024C1746.49 20.024 1745.53 20.488 1744.67 21.416C1743.8 22.312 1743.05 23.528 1742.41 25.064C1741.8 26.6 1741.29 28.296 1740.88 30.152L1738.57 41H1731.52ZM1783.14 41.48C1780.07 41.48 1777.57 40.648 1775.65 38.984C1773.73 37.288 1772.77 34.744 1772.77 31.352C1772.77 29.144 1773.08 27.032 1773.69 25.016C1774.33 22.968 1775.25 21.144 1776.47 19.544C1777.72 17.944 1779.25 16.68 1781.08 15.752C1782.9 14.792 1785.01 14.312 1787.41 14.312C1790.36 14.312 1792.55 14.984 1793.99 16.328C1795.46 17.672 1796.2 19.384 1796.2 21.464C1796.2 24.216 1794.95 26.424 1792.45 28.088C1789.99 29.752 1786.21 30.584 1781.13 30.584H1779.93C1779.89 30.776 1779.88 30.952 1779.88 31.112C1779.88 31.24 1779.88 31.384 1779.88 31.544C1779.88 32.952 1780.28 34.072 1781.08 34.904C1781.91 35.736 1783.06 36.152 1784.53 36.152C1785.91 36.152 1787.16 35.992 1788.28 35.672C1789.4 35.352 1790.73 34.84 1792.26 34.136V39.464C1790.89 40.136 1789.49 40.648 1788.09 41C1786.68 41.32 1785.03 41.48 1783.14 41.48ZM1781.75 25.832C1784.47 25.832 1786.42 25.416 1787.61 24.584C1788.82 23.72 1789.43 22.728 1789.43 21.608C1789.43 20.136 1788.61 19.4 1786.98 19.4C1786.12 19.4 1785.25 19.672 1784.39 20.216C1783.53 20.76 1782.76 21.512 1782.09 22.472C1781.45 23.432 1780.98 24.552 1780.69 25.832H1781.75ZM1807.63 52.52C1806.79 52.52 1806.11 52.472 1805.56 52.376C1805.02 52.312 1804.55 52.216 1804.17 52.088V46.472C1804.59 46.536 1805.02 46.6 1805.47 46.664C1805.88 46.728 1806.36 46.76 1806.91 46.76C1808.41 46.76 1809.64 46.328 1810.6 45.464C1811.56 44.6 1812.39 43.496 1813.1 42.152L1813.72 41L1809.88 14.792H1816.79L1818.09 26.936C1818.22 28.024 1818.3 29.208 1818.33 30.488C1818.36 31.768 1818.38 32.872 1818.38 33.8H1818.57C1818.89 33 1819.24 32.072 1819.63 31.016C1820.01 29.928 1820.51 28.728 1821.11 27.416L1827.21 14.792H1834.89L1818.95 44.744C1817.55 47.4 1815.88 49.352 1813.96 50.6C1812.07 51.88 1809.96 52.52 1807.63 52.52ZM1866.1 41L1873.83 4.52H1880.88L1879.54 10.856C1879.41 11.56 1879.22 12.376 1878.96 13.304C1878.71 14.232 1878.45 15.144 1878.19 16.04C1877.94 16.904 1877.7 17.656 1877.47 18.296H1877.67C1878.63 17.08 1879.7 16.12 1880.88 15.416C1882.07 14.68 1883.44 14.312 1885.01 14.312C1887.28 14.312 1888.98 15 1890.1 16.376C1891.22 17.72 1891.78 19.544 1891.78 21.848C1891.78 23 1891.6 24.408 1891.25 26.072L1888.13 41H1881.07L1884.29 25.688C1884.55 24.568 1884.67 23.64 1884.67 22.904C1884.67 20.984 1883.83 20.024 1882.13 20.024C1881.07 20.024 1880.11 20.488 1879.25 21.416C1878.39 22.312 1877.63 23.528 1876.99 25.064C1876.39 26.6 1875.87 28.296 1875.46 30.152L1873.15 41H1866.1ZM1914.75 41.48C1913.5 41.48 1912.3 41.176 1911.15 40.568C1910.03 39.928 1909.12 38.92 1908.41 37.544C1907.71 36.136 1907.36 34.28 1907.36 31.976C1907.36 29.832 1907.64 27.72 1908.22 25.64C1908.8 23.56 1909.61 21.672 1910.67 19.976C1911.72 18.248 1912.99 16.872 1914.46 15.848C1915.96 14.824 1917.64 14.312 1919.5 14.312C1921.16 14.312 1922.51 14.664 1923.53 15.368C1924.59 16.072 1925.4 17 1925.98 18.152H1926.17L1927.52 14.792H1932.94L1927.37 41H1922.09L1922.43 37.592H1922.24C1921.31 38.744 1920.24 39.688 1919.02 40.424C1917.84 41.128 1916.41 41.48 1914.75 41.48ZM1917.53 35.768C1918.49 35.768 1919.39 35.384 1920.22 34.616C1921.05 33.848 1921.76 32.856 1922.33 31.64C1922.94 30.424 1923.37 29.144 1923.63 27.8C1923.85 26.648 1923.96 25.336 1923.96 23.864C1923.96 22.744 1923.68 21.832 1923.1 21.128C1922.52 20.392 1921.72 20.024 1920.7 20.024C1919.84 20.024 1919.02 20.376 1918.25 21.08C1917.52 21.752 1916.86 22.648 1916.28 23.768C1915.74 24.888 1915.31 26.136 1914.99 27.512C1914.67 28.888 1914.51 30.264 1914.51 31.64C1914.51 34.392 1915.52 35.768 1917.53 35.768ZM1959.09 41.48C1957.42 41.48 1956.06 41.128 1955.01 40.424C1953.98 39.72 1953.18 38.792 1952.61 37.64H1952.42L1951.07 41H1945.65L1953.38 4.52H1960.43L1958.99 11.288C1958.86 11.928 1958.69 12.68 1958.46 13.544C1958.24 14.376 1958 15.224 1957.74 16.088C1957.49 16.92 1957.25 17.656 1957.02 18.296H1957.22C1958.05 17.24 1958.96 16.312 1959.95 15.512C1960.94 14.712 1962.24 14.312 1963.84 14.312C1965.12 14.312 1966.32 14.632 1967.44 15.272C1968.56 15.88 1969.47 16.888 1970.18 18.296C1970.88 19.672 1971.23 21.512 1971.23 23.816C1971.23 25.96 1970.94 28.072 1970.37 30.152C1969.79 32.232 1968.98 34.136 1967.92 35.864C1966.86 37.56 1965.58 38.92 1964.08 39.944C1962.61 40.968 1960.94 41.48 1959.09 41.48ZM1957.89 35.768C1958.75 35.768 1959.55 35.432 1960.29 34.76C1961.06 34.056 1961.71 33.144 1962.26 32.024C1962.83 30.904 1963.28 29.656 1963.6 28.28C1963.92 26.904 1964.08 25.528 1964.08 24.152C1964.08 21.4 1963.06 20.024 1961.01 20.024C1959.86 20.024 1958.88 20.44 1958.08 21.272C1957.28 22.104 1956.62 23.16 1956.11 24.44C1955.6 25.688 1955.22 26.968 1954.96 28.28C1954.74 29.592 1954.62 30.712 1954.62 31.64C1954.62 32.888 1954.91 33.896 1955.49 34.664C1956.1 35.4 1956.9 35.768 1957.89 35.768ZM1995.46 11.528C1994.47 11.528 1993.62 11.32 1992.91 10.904C1992.24 10.456 1991.91 9.704 1991.91 8.648C1991.91 7.304 1992.27 6.28 1993.01 5.576C1993.78 4.872 1994.83 4.52 1996.18 4.52C1997.11 4.52 1997.92 4.728 1998.63 5.144C1999.33 5.56 1999.68 6.296 1999.68 7.352C1999.68 8.6 1999.33 9.608 1998.63 10.376C1997.95 11.144 1996.9 11.528 1995.46 11.528ZM1985.23 41L1990.8 14.792H1997.86L1992.29 41H1985.23ZM2019.26 41.48C2017.21 41.48 2015.56 41.048 2014.32 40.184C2013.07 39.288 2012.44 37.704 2012.44 35.432C2012.44 34.632 2012.54 33.752 2012.73 32.792L2015.42 20.168H2011.87L2012.54 16.712L2017.15 14.744L2020.22 9.224H2024.78L2023.63 14.792H2030.25L2029.1 20.168H2022.48L2019.79 32.792C2019.69 33.272 2019.64 33.688 2019.64 34.04C2019.64 34.648 2019.84 35.096 2020.22 35.384C2020.6 35.64 2021.1 35.768 2021.71 35.768C2022.35 35.768 2022.96 35.704 2023.53 35.576C2024.14 35.416 2024.8 35.208 2025.5 34.952V40.232C2024.76 40.584 2023.87 40.872 2022.81 41.096C2021.76 41.352 2020.57 41.48 2019.26 41.48ZM2048.79 41.48C2047.12 41.48 2045.67 41.352 2044.42 41.096C2043.17 40.872 2042 40.488 2040.92 39.944V34.136C2042.1 34.808 2043.32 35.336 2044.56 35.72C2045.81 36.072 2047.09 36.248 2048.4 36.248C2049.52 36.248 2050.52 36.024 2051.38 35.576C2052.24 35.096 2052.68 34.376 2052.68 33.416C2052.68 32.776 2052.42 32.2 2051.91 31.688C2051.4 31.176 2050.34 30.472 2048.74 29.576C2047.11 28.648 2045.84 27.688 2044.95 26.696C2044.08 25.672 2043.65 24.328 2043.65 22.664C2043.65 19.944 2044.53 17.88 2046.29 16.472C2048.08 15.032 2050.53 14.312 2053.64 14.312C2055.14 14.312 2056.6 14.488 2058 14.84C2059.41 15.16 2060.79 15.72 2062.13 16.52L2059.83 21.56C2058.9 21.016 2057.91 20.552 2056.85 20.168C2055.83 19.784 2054.8 19.592 2053.78 19.592C2053.01 19.592 2052.32 19.784 2051.72 20.168C2051.11 20.52 2050.8 21.064 2050.8 21.8C2050.8 22.408 2051.06 22.952 2051.57 23.432C2052.08 23.88 2053.01 24.456 2054.36 25.16C2055.96 25.96 2057.27 26.92 2058.29 28.04C2059.32 29.128 2059.83 30.568 2059.83 32.36C2059.83 35.368 2058.82 37.64 2056.8 39.176C2054.82 40.712 2052.15 41.48 2048.79 41.48Z" fill="white"/>
</g>
<defs>
<filter id="filter0_dd" x="0.245117" y="0.280029" width="2070.89" height="60.24" filterUnits="userSpaceOnUse" color-interpolation-filters="sRGB">
<feFlood flood-opacity="0" result="BackgroundImageFix"/>
<feColorMatrix in="SourceAlpha" type="matrix" values="0 0 0 0 0 0 0 0 0 0 0 0 0 0 0 0 0 0 127 0"/>
<feOffset dx="5"/>
<feGaussianBlur stdDeviation="2"/>
<feColorMatrix type="matrix" values="0 0 0 0 0.286275 0 0 0 0 0.666667 0 0 0 0 1 0 0 0 0.38 0"/>
<feBlend mode="normal" in2="BackgroundImageFix" result="effect1_dropShadow"/>
<feColorMatrix in="SourceAlpha" type="matrix" values="0 0 0 0 0 0 0 0 0 0 0 0 0 0 0 0 0 0 127 0"/>
<feOffset dx="-2" dy="4"/>
<feGaussianBlur stdDeviation="2"/>
<feColorMatrix type="matrix" values="0 0 0 0 0.286275 0 0 0 0 0.666667 0 0 0 0 1 0 0 0 1 0"/>
<feBlend mode="normal" in2="effect1_dropShadow" result="effect2_dropShadow"/>
<feBlend mode="normal" in="SourceGraphic" in2="effect2_dropShadow" result="shape"/>
</filter>
</defs>
</svg>
