<svg width="1708" height="61" viewBox="0 0 1708 61" fill="none" xmlns="http://www.w3.org/2000/svg">
<g filter="url(#filter0_dd)">
<path d="M8.73658 41L14.6886 12.776H6.43258L7.72858 6.728H31.3926L30.0966 12.776H21.8406L15.8886 41H8.73658ZM37.51 41L43.078 14.792H48.454L47.974 19.64H48.214C49.27 17.976 50.47 16.68 51.814 15.752C53.158 14.792 54.678 14.312 56.374 14.312C56.758 14.312 57.158 14.344 57.574 14.408C58.022 14.44 58.374 14.488 58.63 14.552L57.094 21.368C56.838 21.272 56.502 21.192 56.086 21.128C55.67 21.032 55.222 20.984 54.742 20.984C52.982 20.984 51.398 21.688 49.99 23.096C48.614 24.472 47.638 26.536 47.062 29.288L44.566 41H37.51ZM76.4556 41.48C75.2076 41.48 74.0076 41.176 72.8556 40.568C71.7356 39.928 70.8236 38.92 70.1196 37.544C69.4156 36.136 69.0636 34.28 69.0636 31.976C69.0636 29.832 69.3516 27.72 69.9276 25.64C70.5036 23.56 71.3196 21.672 72.3756 19.976C73.4316 18.248 74.6956 16.872 76.1676 15.848C77.6716 14.824 79.3516 14.312 81.2076 14.312C82.8716 14.312 84.2156 14.664 85.2396 15.368C86.2956 16.072 87.1116 17 87.6876 18.152H87.8796L89.2236 14.792H94.6476L89.0796 41H83.7996L84.1356 37.592H83.9436C83.0156 38.744 81.9436 39.688 80.7276 40.424C79.5436 41.128 78.1196 41.48 76.4556 41.48ZM79.2396 35.768C80.1996 35.768 81.0956 35.384 81.9276 34.616C82.7596 33.848 83.4636 32.856 84.0396 31.64C84.6476 30.424 85.0796 29.144 85.3356 27.8C85.5596 26.648 85.6716 25.336 85.6716 23.864C85.6716 22.744 85.3836 21.832 84.8076 21.128C84.2316 20.392 83.4316 20.024 82.4076 20.024C81.5436 20.024 80.7276 20.376 79.9596 21.08C79.2236 21.752 78.5676 22.648 77.9916 23.768C77.4476 24.888 77.0156 26.136 76.6956 27.512C76.3756 28.888 76.2156 30.264 76.2156 31.64C76.2156 34.392 77.2236 35.768 79.2396 35.768ZM107.356 41L112.924 14.792H118.3L117.82 19.64H118.012C119.036 18.072 120.204 16.792 121.516 15.8C122.86 14.808 124.444 14.312 126.268 14.312C128.54 14.312 130.236 15 131.356 16.376C132.476 17.72 133.036 19.544 133.036 21.848C133.036 23 132.86 24.408 132.508 26.072L129.388 41H122.332L125.548 25.688C125.804 24.568 125.932 23.64 125.932 22.904C125.932 20.984 125.084 20.024 123.388 20.024C122.332 20.024 121.372 20.488 120.508 21.416C119.644 22.312 118.892 23.528 118.252 25.064C117.644 26.6 117.132 28.296 116.716 30.152L114.412 41H107.356ZM154.9 41.48C153.236 41.48 151.78 41.352 150.532 41.096C149.284 40.872 148.116 40.488 147.028 39.944V34.136C148.212 34.808 149.428 35.336 150.676 35.72C151.924 36.072 153.204 36.248 154.516 36.248C155.636 36.248 156.628 36.024 157.492 35.576C158.356 35.096 158.788 34.376 158.788 33.416C158.788 32.776 158.532 32.2 158.02 31.688C157.508 31.176 156.452 30.472 154.852 29.576C153.22 28.648 151.956 27.688 151.06 26.696C150.196 25.672 149.764 24.328 149.764 22.664C149.764 19.944 150.644 17.88 152.404 16.472C154.196 15.032 156.644 14.312 159.748 14.312C161.252 14.312 162.708 14.488 164.116 14.84C165.524 15.16 166.9 15.72 168.244 16.52L165.94 21.56C165.012 21.016 164.02 20.552 162.964 20.168C161.94 19.784 160.916 19.592 159.892 19.592C159.124 19.592 158.436 19.784 157.828 20.168C157.22 20.52 156.916 21.064 156.916 21.8C156.916 22.408 157.172 22.952 157.684 23.432C158.196 23.88 159.124 24.456 160.468 25.16C162.068 25.96 163.38 26.92 164.404 28.04C165.428 29.128 165.94 30.568 165.94 32.36C165.94 35.368 164.932 37.64 162.916 39.176C160.932 40.712 158.26 41.48 154.9 41.48ZM179.172 52.52C177.54 52.52 176.18 52.328 175.092 51.944V46.28C176.052 46.6 176.948 46.76 177.78 46.76C178.74 46.76 179.572 46.44 180.276 45.8C181.012 45.16 181.524 44.152 181.812 42.776L186.612 20.168H182.772L183.492 16.76L187.764 14.792L188.196 12.824C188.9 9.656 190.036 7.448 191.604 6.2C193.204 4.92 195.284 4.28 197.844 4.28C198.932 4.28 199.924 4.392 200.82 4.616C201.748 4.808 202.596 5.08 203.364 5.432L201.492 10.664C201.044 10.472 200.564 10.312 200.052 10.184C199.572 10.024 199.012 9.944 198.372 9.944C197.476 9.944 196.756 10.264 196.212 10.904C195.668 11.512 195.3 12.328 195.108 13.352L194.82 14.792H199.956L198.804 20.168H193.668L188.628 43.832C188.308 45.432 187.78 46.888 187.044 48.2C186.308 49.512 185.3 50.552 184.02 51.32C182.772 52.12 181.156 52.52 179.172 52.52ZM221.654 41.48C218.582 41.48 216.086 40.648 214.166 38.984C212.246 37.288 211.286 34.744 211.286 31.352C211.286 29.144 211.59 27.032 212.198 25.016C212.838 22.968 213.766 21.144 214.982 19.544C216.23 17.944 217.766 16.68 219.59 15.752C221.414 14.792 223.526 14.312 225.926 14.312C228.87 14.312 231.062 14.984 232.502 16.328C233.974 17.672 234.71 19.384 234.71 21.464C234.71 24.216 233.462 26.424 230.966 28.088C228.502 29.752 224.726 30.584 219.638 30.584H218.438C218.406 30.776 218.39 30.952 218.39 31.112C218.39 31.24 218.39 31.384 218.39 31.544C218.39 32.952 218.79 34.072 219.59 34.904C220.422 35.736 221.574 36.152 223.046 36.152C224.422 36.152 225.67 35.992 226.79 35.672C227.91 35.352 229.238 34.84 230.774 34.136V39.464C229.398 40.136 228.006 40.648 226.598 41C225.19 41.32 223.542 41.48 221.654 41.48ZM220.262 25.832C222.982 25.832 224.934 25.416 226.118 24.584C227.334 23.72 227.942 22.728 227.942 21.608C227.942 20.136 227.126 19.4 225.494 19.4C224.63 19.4 223.766 19.672 222.902 20.216C222.038 20.76 221.27 21.512 220.598 22.472C219.958 23.432 219.494 24.552 219.206 25.832H220.262ZM247.797 41L253.365 14.792H258.741L258.261 19.64H258.501C259.557 17.976 260.757 16.68 262.101 15.752C263.445 14.792 264.965 14.312 266.661 14.312C267.045 14.312 267.445 14.344 267.861 14.408C268.309 14.44 268.661 14.488 268.917 14.552L267.381 21.368C267.125 21.272 266.789 21.192 266.373 21.128C265.957 21.032 265.509 20.984 265.029 20.984C263.269 20.984 261.685 21.688 260.277 23.096C258.901 24.472 257.925 26.536 257.349 29.288L254.853 41H247.797ZM300.861 41L306.429 14.792H311.805L311.325 19.64H311.517C312.541 18.072 313.709 16.792 315.021 15.8C316.365 14.808 317.949 14.312 319.773 14.312C321.565 14.312 322.957 14.792 323.949 15.752C324.941 16.68 325.597 17.976 325.917 19.64H326.109C327.101 18.072 328.285 16.792 329.661 15.8C331.037 14.808 332.637 14.312 334.461 14.312C336.637 14.312 338.269 15 339.357 16.376C340.445 17.72 340.989 19.544 340.989 21.848C340.989 23 340.813 24.408 340.461 26.072L337.341 41H330.285L333.501 25.688C333.757 24.568 333.885 23.64 333.885 22.904C333.885 20.984 333.117 20.024 331.581 20.024C330.525 20.024 329.565 20.472 328.701 21.368C327.837 22.264 327.085 23.48 326.445 25.016C325.805 26.52 325.293 28.216 324.909 30.104L322.653 41H315.597L318.813 25.688C319.069 24.568 319.197 23.64 319.197 22.904C319.197 20.984 318.429 20.024 316.893 20.024C315.837 20.024 314.877 20.488 314.013 21.416C313.149 22.312 312.397 23.528 311.757 25.064C311.149 26.6 310.637 28.296 310.221 30.152L307.917 41H300.861ZM366.634 41.48C364.682 41.48 362.938 41.08 361.402 40.28C359.898 39.448 358.714 38.28 357.85 36.776C357.018 35.272 356.602 33.48 356.602 31.4C356.602 29.096 356.89 26.92 357.466 24.872C358.042 22.792 358.906 20.968 360.058 19.4C361.21 17.8 362.65 16.552 364.378 15.656C366.138 14.76 368.186 14.312 370.522 14.312C373.562 14.312 375.978 15.224 377.77 17.048C379.562 18.872 380.458 21.416 380.458 24.68C380.458 26.888 380.186 29 379.642 31.016C379.098 33.032 378.25 34.824 377.098 36.392C375.978 37.96 374.538 39.208 372.778 40.136C371.05 41.032 369.002 41.48 366.634 41.48ZM367.21 35.72C368.522 35.72 369.626 35.192 370.522 34.136C371.45 33.08 372.154 31.72 372.634 30.056C373.114 28.36 373.354 26.568 373.354 24.68C373.354 23.368 373.098 22.28 372.586 21.416C372.106 20.52 371.242 20.072 369.994 20.072C368.938 20.072 368.01 20.44 367.21 21.176C366.41 21.88 365.754 22.808 365.242 23.96C364.73 25.112 364.346 26.344 364.09 27.656C363.834 28.968 363.706 30.216 363.706 31.4C363.706 34.28 364.874 35.72 367.21 35.72ZM394.472 41L400.04 14.792H405.416L404.936 19.64H405.128C406.152 18.072 407.32 16.792 408.632 15.8C409.976 14.808 411.56 14.312 413.384 14.312C415.656 14.312 417.352 15 418.472 16.376C419.592 17.72 420.152 19.544 420.152 21.848C420.152 23 419.976 24.408 419.624 26.072L416.504 41H409.448L412.664 25.688C412.92 24.568 413.048 23.64 413.048 22.904C413.048 20.984 412.2 20.024 410.504 20.024C409.448 20.024 408.488 20.488 407.624 21.416C406.76 22.312 406.008 23.528 405.368 25.064C404.76 26.6 404.248 28.296 403.832 30.152L401.528 41H394.472ZM446.097 41.48C443.025 41.48 440.529 40.648 438.609 38.984C436.689 37.288 435.729 34.744 435.729 31.352C435.729 29.144 436.033 27.032 436.641 25.016C437.281 22.968 438.209 21.144 439.425 19.544C440.673 17.944 442.209 16.68 444.033 15.752C445.857 14.792 447.969 14.312 450.369 14.312C453.313 14.312 455.505 14.984 456.945 16.328C458.417 17.672 459.153 19.384 459.153 21.464C459.153 24.216 457.905 26.424 455.409 28.088C452.945 29.752 449.169 30.584 444.081 30.584H442.881C442.849 30.776 442.833 30.952 442.833 31.112C442.833 31.24 442.833 31.384 442.833 31.544C442.833 32.952 443.233 34.072 444.033 34.904C444.865 35.736 446.017 36.152 447.489 36.152C448.865 36.152 450.113 35.992 451.233 35.672C452.353 35.352 453.681 34.84 455.217 34.136V39.464C453.841 40.136 452.449 40.648 451.041 41C449.633 41.32 447.985 41.48 446.097 41.48ZM444.705 25.832C447.425 25.832 449.377 25.416 450.561 24.584C451.777 23.72 452.385 22.728 452.385 21.608C452.385 20.136 451.569 19.4 449.937 19.4C449.073 19.4 448.209 19.672 447.345 20.216C446.481 20.76 445.713 21.512 445.041 22.472C444.401 23.432 443.937 24.552 443.649 25.832H444.705ZM470.582 52.52C469.75 52.52 469.062 52.472 468.518 52.376C467.974 52.312 467.51 52.216 467.126 52.088V46.472C467.542 46.536 467.974 46.6 468.422 46.664C468.838 46.728 469.318 46.76 469.862 46.76C471.366 46.76 472.598 46.328 473.558 45.464C474.518 44.6 475.35 43.496 476.054 42.152L476.678 41L472.838 14.792H479.75L481.046 26.936C481.174 28.024 481.254 29.208 481.286 30.488C481.318 31.768 481.334 32.872 481.334 33.8H481.526C481.846 33 482.198 32.072 482.582 31.016C482.966 29.928 483.462 28.728 484.07 27.416L490.166 14.792H497.846L481.91 44.744C480.502 47.4 478.838 49.352 476.918 50.6C475.03 51.88 472.918 52.52 470.582 52.52ZM542.494 41.48C540.83 41.48 539.47 41.128 538.414 40.424C537.39 39.72 536.59 38.792 536.014 37.64H535.822L534.478 41H529.054L536.782 4.52H543.838L542.398 11.288C542.27 11.928 542.094 12.68 541.87 13.544C541.646 14.376 541.406 15.224 541.15 16.088C540.894 16.92 540.654 17.656 540.43 18.296H540.622C541.454 17.24 542.366 16.312 543.358 15.512C544.35 14.712 545.646 14.312 547.246 14.312C548.526 14.312 549.726 14.632 550.846 15.272C551.966 15.88 552.878 16.888 553.582 18.296C554.286 19.672 554.638 21.512 554.638 23.816C554.638 25.96 554.35 28.072 553.774 30.152C553.198 32.232 552.382 34.136 551.326 35.864C550.27 37.56 548.99 38.92 547.486 39.944C546.014 40.968 544.35 41.48 542.494 41.48ZM541.294 35.768C542.158 35.768 542.958 35.432 543.694 34.76C544.462 34.056 545.118 33.144 545.662 32.024C546.238 30.904 546.686 29.656 547.006 28.28C547.326 26.904 547.486 25.528 547.486 24.152C547.486 21.4 546.462 20.024 544.414 20.024C543.262 20.024 542.286 20.44 541.486 21.272C540.686 22.104 540.03 23.16 539.518 24.44C539.006 25.688 538.622 26.968 538.366 28.28C538.142 29.592 538.03 30.712 538.03 31.64C538.03 32.888 538.318 33.896 538.894 34.664C539.502 35.4 540.302 35.768 541.294 35.768ZM580.257 41.48C577.185 41.48 574.689 40.648 572.769 38.984C570.849 37.288 569.889 34.744 569.889 31.352C569.889 29.144 570.193 27.032 570.801 25.016C571.441 22.968 572.369 21.144 573.585 19.544C574.833 17.944 576.369 16.68 578.193 15.752C580.017 14.792 582.129 14.312 584.529 14.312C587.473 14.312 589.665 14.984 591.105 16.328C592.577 17.672 593.313 19.384 593.313 21.464C593.313 24.216 592.065 26.424 589.569 28.088C587.105 29.752 583.329 30.584 578.241 30.584H577.041C577.009 30.776 576.993 30.952 576.993 31.112C576.993 31.24 576.993 31.384 576.993 31.544C576.993 32.952 577.393 34.072 578.193 34.904C579.025 35.736 580.177 36.152 581.649 36.152C583.025 36.152 584.273 35.992 585.393 35.672C586.513 35.352 587.841 34.84 589.377 34.136V39.464C588.001 40.136 586.609 40.648 585.201 41C583.793 41.32 582.145 41.48 580.257 41.48ZM578.865 25.832C581.585 25.832 583.537 25.416 584.721 24.584C585.937 23.72 586.545 22.728 586.545 21.608C586.545 20.136 585.729 19.4 584.097 19.4C583.233 19.4 582.369 19.672 581.505 20.216C580.641 20.76 579.873 21.512 579.201 22.472C578.561 23.432 578.097 24.552 577.809 25.832H578.865ZM615.136 41.48C613.088 41.48 611.44 41.048 610.192 40.184C608.944 39.288 608.32 37.704 608.32 35.432C608.32 34.632 608.416 33.752 608.608 32.792L611.296 20.168H607.744L608.416 16.712L613.024 14.744L616.096 9.224H620.656L619.504 14.792H626.128L624.976 20.168H618.352L615.664 32.792C615.568 33.272 615.52 33.688 615.52 34.04C615.52 34.648 615.712 35.096 616.096 35.384C616.48 35.64 616.976 35.768 617.584 35.768C618.224 35.768 618.832 35.704 619.408 35.576C620.016 35.416 620.672 35.208 621.376 34.952V40.232C620.64 40.584 619.744 40.872 618.688 41.096C617.632 41.352 616.448 41.48 615.136 41.48ZM640.391 41L639.191 14.792H645.767L645.863 26.408C645.863 27.688 645.847 28.968 645.815 30.248C645.815 31.496 645.751 32.856 645.623 34.328H645.815C646.039 33.528 646.327 32.648 646.679 31.688C647.031 30.696 647.351 29.8 647.639 29C647.959 28.2 648.183 27.656 648.311 27.368L653.735 14.792H661.415V27.368C661.415 28.456 661.399 29.56 661.367 30.68C661.367 31.8 661.303 33.016 661.175 34.328H661.415C661.639 33.592 661.911 32.728 662.231 31.736C662.583 30.744 662.935 29.768 663.287 28.808C663.639 27.816 663.943 27.016 664.199 26.408L669.335 14.792H676.535L664.103 41H656.375L656.231 28.808C656.231 28.136 656.231 27.336 656.231 26.408C656.263 25.448 656.295 24.472 656.327 23.48C656.391 22.488 656.439 21.608 656.471 20.84H656.183C655.927 21.608 655.623 22.472 655.271 23.432C654.951 24.36 654.631 25.256 654.311 26.12C653.991 26.984 653.703 27.72 653.447 28.328L647.975 41H640.391ZM697.612 41.48C694.54 41.48 692.044 40.648 690.124 38.984C688.204 37.288 687.244 34.744 687.244 31.352C687.244 29.144 687.548 27.032 688.156 25.016C688.796 22.968 689.724 21.144 690.94 19.544C692.188 17.944 693.724 16.68 695.548 15.752C697.372 14.792 699.484 14.312 701.884 14.312C704.828 14.312 707.02 14.984 708.46 16.328C709.932 17.672 710.668 19.384 710.668 21.464C710.668 24.216 709.42 26.424 706.924 28.088C704.46 29.752 700.684 30.584 695.596 30.584H694.396C694.364 30.776 694.348 30.952 694.348 31.112C694.348 31.24 694.348 31.384 694.348 31.544C694.348 32.952 694.748 34.072 695.548 34.904C696.38 35.736 697.532 36.152 699.004 36.152C700.38 36.152 701.628 35.992 702.748 35.672C703.868 35.352 705.196 34.84 706.732 34.136V39.464C705.356 40.136 703.964 40.648 702.556 41C701.148 41.32 699.5 41.48 697.612 41.48ZM696.22 25.832C698.94 25.832 700.892 25.416 702.076 24.584C703.292 23.72 703.9 22.728 703.9 21.608C703.9 20.136 703.084 19.4 701.452 19.4C700.588 19.4 699.724 19.672 698.86 20.216C697.996 20.76 697.228 21.512 696.556 22.472C695.916 23.432 695.452 24.552 695.164 25.832H696.22ZM735.37 41.48C732.298 41.48 729.802 40.648 727.882 38.984C725.962 37.288 725.002 34.744 725.002 31.352C725.002 29.144 725.306 27.032 725.914 25.016C726.554 22.968 727.482 21.144 728.698 19.544C729.946 17.944 731.482 16.68 733.306 15.752C735.13 14.792 737.242 14.312 739.642 14.312C742.586 14.312 744.778 14.984 746.218 16.328C747.69 17.672 748.426 19.384 748.426 21.464C748.426 24.216 747.178 26.424 744.682 28.088C742.218 29.752 738.442 30.584 733.354 30.584H732.154C732.122 30.776 732.106 30.952 732.106 31.112C732.106 31.24 732.106 31.384 732.106 31.544C732.106 32.952 732.506 34.072 733.306 34.904C734.138 35.736 735.29 36.152 736.762 36.152C738.138 36.152 739.386 35.992 740.506 35.672C741.626 35.352 742.954 34.84 744.49 34.136V39.464C743.114 40.136 741.722 40.648 740.314 41C738.906 41.32 737.258 41.48 735.37 41.48ZM733.978 25.832C736.698 25.832 738.65 25.416 739.834 24.584C741.05 23.72 741.658 22.728 741.658 21.608C741.658 20.136 740.842 19.4 739.21 19.4C738.346 19.4 737.482 19.672 736.618 20.216C735.754 20.76 734.986 21.512 734.314 22.472C733.674 23.432 733.21 24.552 732.922 25.832H733.978ZM761.513 41L767.081 14.792H772.457L771.977 19.64H772.169C773.193 18.072 774.361 16.792 775.673 15.8C777.017 14.808 778.601 14.312 780.425 14.312C782.697 14.312 784.393 15 785.513 16.376C786.633 17.72 787.193 19.544 787.193 21.848C787.193 23 787.017 24.408 786.665 26.072L783.545 41H776.489L779.705 25.688C779.961 24.568 780.089 23.64 780.089 22.904C780.089 20.984 779.241 20.024 777.545 20.024C776.489 20.024 775.529 20.488 774.665 21.416C773.801 22.312 773.049 23.528 772.409 25.064C771.801 26.6 771.289 28.296 770.873 30.152L768.569 41H761.513ZM831.983 41.48C830.735 41.48 829.535 41.176 828.383 40.568C827.263 39.928 826.351 38.92 825.647 37.544C824.943 36.136 824.591 34.28 824.591 31.976C824.591 29.832 824.879 27.72 825.455 25.64C826.031 23.56 826.847 21.672 827.903 19.976C828.959 18.248 830.223 16.872 831.695 15.848C833.199 14.824 834.879 14.312 836.735 14.312C838.399 14.312 839.743 14.664 840.767 15.368C841.823 16.072 842.639 17 843.215 18.152H843.407L844.751 14.792H850.175L844.607 41H839.327L839.663 37.592H839.471C838.543 38.744 837.471 39.688 836.255 40.424C835.071 41.128 833.647 41.48 831.983 41.48ZM834.767 35.768C835.727 35.768 836.623 35.384 837.455 34.616C838.287 33.848 838.991 32.856 839.567 31.64C840.175 30.424 840.607 29.144 840.863 27.8C841.087 26.648 841.199 25.336 841.199 23.864C841.199 22.744 840.911 21.832 840.335 21.128C839.759 20.392 838.959 20.024 837.935 20.024C837.071 20.024 836.255 20.376 835.487 21.08C834.751 21.752 834.095 22.648 833.519 23.768C832.975 24.888 832.543 26.136 832.223 27.512C831.903 28.888 831.743 30.264 831.743 31.64C831.743 34.392 832.751 35.768 834.767 35.768ZM862.883 41L868.451 14.792H873.827L873.347 19.64H873.539C874.563 18.072 875.731 16.792 877.043 15.8C878.387 14.808 879.971 14.312 881.795 14.312C884.067 14.312 885.763 15 886.883 16.376C888.003 17.72 888.563 19.544 888.563 21.848C888.563 23 888.387 24.408 888.035 26.072L884.915 41H877.859L881.075 25.688C881.331 24.568 881.459 23.64 881.459 22.904C881.459 20.984 880.611 20.024 878.915 20.024C877.859 20.024 876.899 20.488 876.035 21.416C875.171 22.312 874.419 23.528 873.779 25.064C873.171 26.6 872.659 28.296 872.243 30.152L869.939 41H862.883ZM902.172 52.52C901.34 52.52 900.652 52.472 900.108 52.376C899.564 52.312 899.1 52.216 898.716 52.088V46.472C899.132 46.536 899.564 46.6 900.012 46.664C900.428 46.728 900.908 46.76 901.452 46.76C902.956 46.76 904.188 46.328 905.148 45.464C906.108 44.6 906.94 43.496 907.644 42.152L908.268 41L904.428 14.792H911.34L912.636 26.936C912.764 28.024 912.844 29.208 912.876 30.488C912.908 31.768 912.924 32.872 912.924 33.8H913.116C913.436 33 913.788 32.072 914.172 31.016C914.556 29.928 915.052 28.728 915.66 27.416L921.756 14.792H929.436L913.5 44.744C912.092 47.4 910.428 49.352 908.508 50.6C906.62 51.88 904.508 52.52 902.172 52.52ZM971.924 41.48C969.972 41.48 968.228 41.08 966.692 40.28C965.188 39.448 964.004 38.28 963.14 36.776C962.308 35.272 961.892 33.48 961.892 31.4C961.892 29.096 962.18 26.92 962.756 24.872C963.332 22.792 964.196 20.968 965.348 19.4C966.5 17.8 967.94 16.552 969.668 15.656C971.428 14.76 973.476 14.312 975.812 14.312C978.852 14.312 981.268 15.224 983.06 17.048C984.852 18.872 985.748 21.416 985.748 24.68C985.748 26.888 985.476 29 984.932 31.016C984.388 33.032 983.54 34.824 982.388 36.392C981.268 37.96 979.828 39.208 978.068 40.136C976.34 41.032 974.292 41.48 971.924 41.48ZM972.5 35.72C973.812 35.72 974.916 35.192 975.812 34.136C976.74 33.08 977.444 31.72 977.924 30.056C978.404 28.36 978.644 26.568 978.644 24.68C978.644 23.368 978.388 22.28 977.876 21.416C977.396 20.52 976.532 20.072 975.284 20.072C974.228 20.072 973.3 20.44 972.5 21.176C971.7 21.88 971.044 22.808 970.532 23.96C970.02 25.112 969.636 26.344 969.38 27.656C969.124 28.968 968.996 30.216 968.996 31.4C968.996 34.28 970.164 35.72 972.5 35.72ZM997.842 52.52C996.21 52.52 994.85 52.328 993.762 51.944V46.28C994.722 46.6 995.618 46.76 996.45 46.76C997.41 46.76 998.242 46.44 998.946 45.8C999.682 45.16 1000.19 44.152 1000.48 42.776L1005.28 20.168H1001.44L1002.16 16.76L1006.43 14.792L1006.87 12.824C1007.57 9.656 1008.71 7.448 1010.27 6.2C1011.87 4.92 1013.95 4.28 1016.51 4.28C1017.6 4.28 1018.59 4.392 1019.49 4.616C1020.42 4.808 1021.27 5.08 1022.03 5.432L1020.16 10.664C1019.71 10.472 1019.23 10.312 1018.72 10.184C1018.24 10.024 1017.68 9.944 1017.04 9.944C1016.15 9.944 1015.43 10.264 1014.88 10.904C1014.34 11.512 1013.97 12.328 1013.78 13.352L1013.49 14.792H1018.63L1017.47 20.168H1012.34L1007.3 43.832C1006.98 45.432 1006.45 46.888 1005.71 48.2C1004.98 49.512 1003.97 50.552 1002.69 51.32C1001.44 52.12 999.826 52.52 997.842 52.52ZM1071.63 52.52C1070.8 52.52 1070.11 52.472 1069.57 52.376C1069.02 52.312 1068.56 52.216 1068.17 52.088V46.472C1068.59 46.536 1069.02 46.6 1069.47 46.664C1069.89 46.728 1070.37 46.76 1070.91 46.76C1072.41 46.76 1073.65 46.328 1074.61 45.464C1075.57 44.6 1076.4 43.496 1077.1 42.152L1077.73 41L1073.89 14.792H1080.8L1082.09 26.936C1082.22 28.024 1082.3 29.208 1082.33 30.488C1082.37 31.768 1082.38 32.872 1082.38 33.8H1082.57C1082.89 33 1083.25 32.072 1083.63 31.016C1084.01 29.928 1084.51 28.728 1085.12 27.416L1091.21 14.792H1098.89L1082.96 44.744C1081.55 47.4 1079.89 49.352 1077.97 50.6C1076.08 51.88 1073.97 52.52 1071.63 52.52ZM1119.56 41.48C1117.61 41.48 1115.87 41.08 1114.33 40.28C1112.83 39.448 1111.64 38.28 1110.78 36.776C1109.95 35.272 1109.53 33.48 1109.53 31.4C1109.53 29.096 1109.82 26.92 1110.39 24.872C1110.97 22.792 1111.83 20.968 1112.99 19.4C1114.14 17.8 1115.58 16.552 1117.31 15.656C1119.07 14.76 1121.11 14.312 1123.45 14.312C1126.49 14.312 1128.91 15.224 1130.7 17.048C1132.49 18.872 1133.39 21.416 1133.39 24.68C1133.39 26.888 1133.11 29 1132.57 31.016C1132.03 33.032 1131.18 34.824 1130.03 36.392C1128.91 37.96 1127.47 39.208 1125.71 40.136C1123.98 41.032 1121.93 41.48 1119.56 41.48ZM1120.14 35.72C1121.45 35.72 1122.55 35.192 1123.45 34.136C1124.38 33.08 1125.08 31.72 1125.56 30.056C1126.04 28.36 1126.28 26.568 1126.28 24.68C1126.28 23.368 1126.03 22.28 1125.51 21.416C1125.03 20.52 1124.17 20.072 1122.92 20.072C1121.87 20.072 1120.94 20.44 1120.14 21.176C1119.34 21.88 1118.68 22.808 1118.17 23.96C1117.66 25.112 1117.27 26.344 1117.02 27.656C1116.76 28.968 1116.63 30.216 1116.63 31.4C1116.63 34.28 1117.8 35.72 1120.14 35.72ZM1155.8 41.48C1153.56 41.48 1151.88 40.808 1150.76 39.464C1149.67 38.088 1149.13 36.248 1149.13 33.944C1149.13 33.368 1149.18 32.632 1149.27 31.736C1149.37 30.808 1149.51 29.88 1149.7 28.952L1152.68 14.792H1159.74L1156.52 30.104C1156.26 31.224 1156.14 32.152 1156.14 32.888C1156.14 34.808 1156.98 35.768 1158.68 35.768C1159.77 35.768 1160.73 35.32 1161.56 34.424C1162.42 33.496 1163.18 32.264 1163.82 30.728C1164.46 29.192 1164.97 27.496 1165.35 25.64L1167.66 14.792H1174.71L1169.14 41H1163.77L1164.25 36.152H1164.01C1163.02 37.72 1161.85 39 1160.5 39.992C1159.19 40.984 1157.62 41.48 1155.8 41.48ZM1187.41 41L1192.98 14.792H1198.35L1197.87 19.64H1198.11C1199.17 17.976 1200.37 16.68 1201.71 15.752C1203.06 14.792 1204.58 14.312 1206.27 14.312C1206.66 14.312 1207.06 14.344 1207.47 14.408C1207.92 14.44 1208.27 14.488 1208.53 14.552L1206.99 21.368C1206.74 21.272 1206.4 21.192 1205.98 21.128C1205.57 21.032 1205.12 20.984 1204.64 20.984C1202.88 20.984 1201.3 21.688 1199.89 23.096C1198.51 24.472 1197.54 26.536 1196.96 29.288L1194.46 41H1187.41ZM1253.91 41.48C1252.25 41.48 1250.89 41.128 1249.83 40.424C1248.81 39.72 1248.01 38.792 1247.43 37.64H1247.24L1245.9 41H1240.47L1248.2 4.52H1255.26L1253.82 11.288C1253.69 11.928 1253.51 12.68 1253.29 13.544C1253.06 14.376 1252.82 15.224 1252.57 16.088C1252.31 16.92 1252.07 17.656 1251.85 18.296H1252.04C1252.87 17.24 1253.78 16.312 1254.78 15.512C1255.77 14.712 1257.06 14.312 1258.66 14.312C1259.94 14.312 1261.14 14.632 1262.26 15.272C1263.38 15.88 1264.3 16.888 1265 18.296C1265.7 19.672 1266.06 21.512 1266.06 23.816C1266.06 25.96 1265.77 28.072 1265.19 30.152C1264.62 32.232 1263.8 34.136 1262.74 35.864C1261.69 37.56 1260.41 38.92 1258.9 39.944C1257.43 40.968 1255.77 41.48 1253.91 41.48ZM1252.71 35.768C1253.58 35.768 1254.38 35.432 1255.11 34.76C1255.88 34.056 1256.54 33.144 1257.08 32.024C1257.66 30.904 1258.1 29.656 1258.42 28.28C1258.74 26.904 1258.9 25.528 1258.9 24.152C1258.9 21.4 1257.88 20.024 1255.83 20.024C1254.68 20.024 1253.7 20.44 1252.9 21.272C1252.1 22.104 1251.45 23.16 1250.94 24.44C1250.42 25.688 1250.04 26.968 1249.78 28.28C1249.56 29.592 1249.45 30.712 1249.45 31.64C1249.45 32.888 1249.74 33.896 1250.31 34.664C1250.92 35.4 1251.72 35.768 1252.71 35.768ZM1288.7 41.48C1287.45 41.48 1286.25 41.176 1285.1 40.568C1283.98 39.928 1283.07 38.92 1282.36 37.544C1281.66 36.136 1281.31 34.28 1281.31 31.976C1281.31 29.832 1281.6 27.72 1282.17 25.64C1282.75 23.56 1283.56 21.672 1284.62 19.976C1285.68 18.248 1286.94 16.872 1288.41 15.848C1289.92 14.824 1291.6 14.312 1293.45 14.312C1295.12 14.312 1296.46 14.664 1297.48 15.368C1298.54 16.072 1299.36 17 1299.93 18.152H1300.12L1301.47 14.792H1306.89L1301.32 41H1296.04L1296.38 37.592H1296.19C1295.26 38.744 1294.19 39.688 1292.97 40.424C1291.79 41.128 1290.36 41.48 1288.7 41.48ZM1291.48 35.768C1292.44 35.768 1293.34 35.384 1294.17 34.616C1295 33.848 1295.71 32.856 1296.28 31.64C1296.89 30.424 1297.32 29.144 1297.58 27.8C1297.8 26.648 1297.92 25.336 1297.92 23.864C1297.92 22.744 1297.63 21.832 1297.05 21.128C1296.48 20.392 1295.68 20.024 1294.65 20.024C1293.79 20.024 1292.97 20.376 1292.2 21.08C1291.47 21.752 1290.81 22.648 1290.24 23.768C1289.69 24.888 1289.26 26.136 1288.94 27.512C1288.62 28.888 1288.46 30.264 1288.46 31.64C1288.46 34.392 1289.47 35.768 1291.48 35.768ZM1319.6 41L1325.17 14.792H1330.54L1330.06 19.64H1330.26C1331.28 18.072 1332.45 16.792 1333.76 15.8C1335.1 14.808 1336.69 14.312 1338.51 14.312C1340.78 14.312 1342.48 15 1343.6 16.376C1344.72 17.72 1345.28 19.544 1345.28 21.848C1345.28 23 1345.1 24.408 1344.75 26.072L1341.63 41H1334.58L1337.79 25.688C1338.05 24.568 1338.18 23.64 1338.18 22.904C1338.18 20.984 1337.33 20.024 1335.63 20.024C1334.58 20.024 1333.62 20.488 1332.75 21.416C1331.89 22.312 1331.14 23.528 1330.5 25.064C1329.89 26.6 1329.38 28.296 1328.96 30.152L1326.66 41H1319.6ZM1359.61 41L1367.34 4.52H1374.39L1370.94 20.792C1370.78 21.592 1370.54 22.52 1370.22 23.576C1369.9 24.6 1369.66 25.384 1369.5 25.928H1369.69L1380.3 14.792H1388.36L1376.7 26.6L1383.37 41H1375.5L1371.22 31.16L1368.39 32.84L1366.66 41H1359.61ZM1428.39 41.48C1427.14 41.48 1425.94 41.176 1424.79 40.568C1423.67 39.928 1422.76 38.92 1422.05 37.544C1421.35 36.136 1421 34.28 1421 31.976C1421 29.832 1421.29 27.72 1421.86 25.64C1422.44 23.56 1423.25 21.672 1424.31 19.976C1425.37 18.248 1426.63 16.872 1428.1 15.848C1429.61 14.824 1431.29 14.312 1433.14 14.312C1434.81 14.312 1436.15 14.664 1437.17 15.368C1438.23 16.072 1439.05 17 1439.62 18.152H1439.81L1441.16 14.792H1446.58L1441.01 41H1435.73L1436.07 37.592H1435.88C1434.95 38.744 1433.88 39.688 1432.66 40.424C1431.48 41.128 1430.05 41.48 1428.39 41.48ZM1431.17 35.768C1432.13 35.768 1433.03 35.384 1433.86 34.616C1434.69 33.848 1435.4 32.856 1435.97 31.64C1436.58 30.424 1437.01 29.144 1437.27 27.8C1437.49 26.648 1437.61 25.336 1437.61 23.864C1437.61 22.744 1437.32 21.832 1436.74 21.128C1436.17 20.392 1435.37 20.024 1434.34 20.024C1433.48 20.024 1432.66 20.376 1431.89 21.08C1431.16 21.752 1430.5 22.648 1429.93 23.768C1429.38 24.888 1428.95 26.136 1428.63 27.512C1428.31 28.888 1428.15 30.264 1428.15 31.64C1428.15 34.392 1429.16 35.768 1431.17 35.768ZM1470.28 41.48C1468.49 41.48 1466.84 41.16 1465.34 40.52C1463.87 39.848 1462.7 38.808 1461.83 37.4C1460.97 35.992 1460.54 34.136 1460.54 31.832C1460.54 29.464 1460.84 27.24 1461.45 25.16C1462.06 23.048 1462.95 21.176 1464.14 19.544C1465.32 17.912 1466.78 16.632 1468.51 15.704C1470.23 14.776 1472.2 14.312 1474.41 14.312C1475.98 14.312 1477.37 14.456 1478.59 14.744C1479.83 15.032 1481 15.448 1482.09 15.992L1479.93 21.368C1479.1 21.016 1478.27 20.712 1477.43 20.456C1476.63 20.168 1475.72 20.024 1474.7 20.024C1473.23 20.024 1471.96 20.584 1470.91 21.704C1469.85 22.792 1469.05 24.2 1468.51 25.928C1467.96 27.624 1467.69 29.4 1467.69 31.256C1467.69 32.728 1468.04 33.848 1468.75 34.616C1469.45 35.384 1470.44 35.768 1471.72 35.768C1472.91 35.768 1473.99 35.592 1474.99 35.24C1476.01 34.856 1477.07 34.392 1478.15 33.848V39.608C1477.07 40.184 1475.88 40.648 1474.6 41C1473.35 41.32 1471.91 41.48 1470.28 41.48ZM1504.53 41.48C1502.73 41.48 1501.09 41.16 1499.58 40.52C1498.11 39.848 1496.94 38.808 1496.08 37.4C1495.21 35.992 1494.78 34.136 1494.78 31.832C1494.78 29.464 1495.09 27.24 1495.69 25.16C1496.3 23.048 1497.2 21.176 1498.38 19.544C1499.57 17.912 1501.02 16.632 1502.75 15.704C1504.48 14.776 1506.45 14.312 1508.65 14.312C1510.22 14.312 1511.61 14.456 1512.83 14.744C1514.08 15.032 1515.25 15.448 1516.33 15.992L1514.17 21.368C1513.34 21.016 1512.51 20.712 1511.68 20.456C1510.88 20.168 1509.97 20.024 1508.94 20.024C1507.47 20.024 1506.21 20.584 1505.15 21.704C1504.09 22.792 1503.29 24.2 1502.75 25.928C1502.21 27.624 1501.93 29.4 1501.93 31.256C1501.93 32.728 1502.29 33.848 1502.99 34.616C1503.69 35.384 1504.69 35.768 1505.97 35.768C1507.15 35.768 1508.24 35.592 1509.23 35.24C1510.25 34.856 1511.31 34.392 1512.4 33.848V39.608C1511.31 40.184 1510.13 40.648 1508.85 41C1507.6 41.32 1506.16 41.48 1504.53 41.48ZM1539.06 41.48C1537.1 41.48 1535.36 41.08 1533.82 40.28C1532.32 39.448 1531.14 38.28 1530.27 36.776C1529.44 35.272 1529.02 33.48 1529.02 31.4C1529.02 29.096 1529.31 26.92 1529.89 24.872C1530.46 22.792 1531.33 20.968 1532.48 19.4C1533.63 17.8 1535.07 16.552 1536.8 15.656C1538.56 14.76 1540.61 14.312 1542.94 14.312C1545.98 14.312 1548.4 15.224 1550.19 17.048C1551.98 18.872 1552.88 21.416 1552.88 24.68C1552.88 26.888 1552.61 29 1552.06 31.016C1551.52 33.032 1550.67 34.824 1549.52 36.392C1548.4 37.96 1546.96 39.208 1545.2 40.136C1543.47 41.032 1541.42 41.48 1539.06 41.48ZM1539.63 35.72C1540.94 35.72 1542.05 35.192 1542.94 34.136C1543.87 33.08 1544.58 31.72 1545.06 30.056C1545.54 28.36 1545.78 26.568 1545.78 24.68C1545.78 23.368 1545.52 22.28 1545.01 21.416C1544.53 20.52 1543.66 20.072 1542.42 20.072C1541.36 20.072 1540.43 20.44 1539.63 21.176C1538.83 21.88 1538.18 22.808 1537.66 23.96C1537.15 25.112 1536.77 26.344 1536.51 27.656C1536.26 28.968 1536.13 30.216 1536.13 31.4C1536.13 34.28 1537.3 35.72 1539.63 35.72ZM1575.3 41.48C1573.06 41.48 1571.38 40.808 1570.26 39.464C1569.17 38.088 1568.62 36.248 1568.62 33.944C1568.62 33.368 1568.67 32.632 1568.77 31.736C1568.86 30.808 1569.01 29.88 1569.2 28.952L1572.18 14.792H1579.23L1576.02 30.104C1575.76 31.224 1575.63 32.152 1575.63 32.888C1575.63 34.808 1576.48 35.768 1578.18 35.768C1579.26 35.768 1580.22 35.32 1581.06 34.424C1581.92 33.496 1582.67 32.264 1583.31 30.728C1583.95 29.192 1584.46 27.496 1584.85 25.64L1587.15 14.792H1594.21L1588.64 41H1583.26L1583.74 36.152H1583.5C1582.51 37.72 1581.34 39 1580 39.992C1578.69 40.984 1577.12 41.48 1575.3 41.48ZM1606.9 41L1612.47 14.792H1617.85L1617.37 19.64H1617.56C1618.58 18.072 1619.75 16.792 1621.06 15.8C1622.41 14.808 1623.99 14.312 1625.82 14.312C1628.09 14.312 1629.78 15 1630.9 16.376C1632.02 17.72 1632.58 19.544 1632.58 21.848C1632.58 23 1632.41 24.408 1632.06 26.072L1628.94 41H1621.88L1625.1 25.688C1625.35 24.568 1625.48 23.64 1625.48 22.904C1625.48 20.984 1624.63 20.024 1622.94 20.024C1621.88 20.024 1620.92 20.488 1620.06 21.416C1619.19 22.312 1618.44 23.528 1617.8 25.064C1617.19 26.6 1616.68 28.296 1616.26 30.152L1613.96 41H1606.9ZM1655.65 41.48C1653.6 41.48 1651.95 41.048 1650.7 40.184C1649.46 39.288 1648.83 37.704 1648.83 35.432C1648.83 34.632 1648.93 33.752 1649.12 32.792L1651.81 20.168H1648.26L1648.93 16.712L1653.54 14.744L1656.61 9.224H1661.17L1660.02 14.792H1666.64L1665.49 20.168H1658.86L1656.18 32.792C1656.08 33.272 1656.03 33.688 1656.03 34.04C1656.03 34.648 1656.22 35.096 1656.61 35.384C1656.99 35.64 1657.49 35.768 1658.1 35.768C1658.74 35.768 1659.34 35.704 1659.92 35.576C1660.53 35.416 1661.18 35.208 1661.89 34.952V40.232C1661.15 40.584 1660.26 40.872 1659.2 41.096C1658.14 41.352 1656.96 41.48 1655.65 41.48ZM1685.18 41.48C1683.51 41.48 1682.06 41.352 1680.81 41.096C1679.56 40.872 1678.39 40.488 1677.3 39.944V34.136C1678.49 34.808 1679.7 35.336 1680.95 35.72C1682.2 36.072 1683.48 36.248 1684.79 36.248C1685.91 36.248 1686.9 36.024 1687.77 35.576C1688.63 35.096 1689.06 34.376 1689.06 33.416C1689.06 32.776 1688.81 32.2 1688.3 31.688C1687.78 31.176 1686.73 30.472 1685.13 29.576C1683.5 28.648 1682.23 27.688 1681.34 26.696C1680.47 25.672 1680.04 24.328 1680.04 22.664C1680.04 19.944 1680.92 17.88 1682.68 16.472C1684.47 15.032 1686.92 14.312 1690.02 14.312C1691.53 14.312 1692.98 14.488 1694.39 14.84C1695.8 15.16 1697.18 15.72 1698.52 16.52L1696.22 21.56C1695.29 21.016 1694.3 20.552 1693.24 20.168C1692.22 19.784 1691.19 19.592 1690.17 19.592C1689.4 19.592 1688.71 19.784 1688.1 20.168C1687.5 20.52 1687.19 21.064 1687.19 21.8C1687.19 22.408 1687.45 22.952 1687.96 23.432C1688.47 23.88 1689.4 24.456 1690.74 25.16C1692.34 25.96 1693.66 26.92 1694.68 28.04C1695.7 29.128 1696.22 30.568 1696.22 32.36C1696.22 35.368 1695.21 37.64 1693.19 39.176C1691.21 40.712 1688.54 41.48 1685.18 41.48Z" fill="white"/>
</g>
<defs>
<filter id="filter0_dd" x="0.432617" y="0.280029" width="1707.09" height="60.24" filterUnits="userSpaceOnUse" color-interpolation-filters="sRGB">
<feFlood flood-opacity="0" result="BackgroundImageFix"/>
<feColorMatrix in="SourceAlpha" type="matrix" values="0 0 0 0 0 0 0 0 0 0 0 0 0 0 0 0 0 0 127 0"/>
<feOffset dx="5"/>
<feGaussianBlur stdDeviation="2"/>
<feColorMatrix type="matrix" values="0 0 0 0 0.286275 0 0 0 0 0.666667 0 0 0 0 1 0 0 0 0.38 0"/>
<feBlend mode="normal" in2="BackgroundImageFix" result="effect1_dropShadow"/>
<feColorMatrix in="SourceAlpha" type="matrix" values="0 0 0 0 0 0 0 0 0 0 0 0 0 0 0 0 0 0 127 0"/>
<feOffset dx="-2" dy="4"/>
<feGaussianBlur stdDeviation="2"/>
<feColorMatrix type="matrix" values="0 0 0 0 0.286275 0 0 0 0 0.666667 0 0 0 0 1 0 0 0 1 0"/>
<feBlend mode="normal" in2="effect1_dropShadow" result="effect2_dropShadow"/>
<feBlend mode="normal" in="SourceGraphic" in2="effect2_dropShadow" result="shape"/>
</filter>
</defs>
</svg>
