<svg width="1354" height="281" viewBox="0 0 1354 281" fill="none" xmlns="http://www.w3.org/2000/svg">
<g filter="url(#filter0_dd)">
<path d="M6.20028 107L8.79228 94.616L21.8963 88.856L36.0083 22.328L25.3523 16.568L27.9443 4.18399H73.4483L70.8563 16.568L57.4643 22.328L43.3523 88.856L54.2963 94.616L51.7043 107H6.20028ZM101.213 107L117.917 28.376H134.045L132.605 42.92H133.181C136.253 38.216 139.757 34.376 143.693 31.4C147.725 28.424 152.477 26.936 157.949 26.936C164.765 26.936 169.853 29 173.213 33.128C176.573 37.16 178.253 42.632 178.253 49.544C178.253 53 177.725 57.224 176.669 62.216L167.309 107H146.141L155.789 61.064C156.557 57.704 156.941 54.92 156.941 52.712C156.941 46.952 154.397 44.072 149.309 44.072C146.141 44.072 143.261 45.464 140.669 48.248C138.077 50.936 135.821 54.584 133.901 59.192C132.077 63.8 130.541 68.888 129.293 74.456L122.381 107H101.213ZM247.448 108.44C241.304 108.44 236.36 107.144 232.616 104.552C228.872 101.864 227 97.112 227 90.296C227 87.896 227.288 85.256 227.864 82.376L235.928 44.504H225.272L227.288 34.136L241.112 28.232L250.328 11.672H264.008L260.552 28.376H280.424L276.968 44.504H257.096L249.032 82.376C248.744 83.816 248.6 85.064 248.6 86.12C248.6 87.944 249.176 89.288 250.328 90.152C251.48 90.92 252.968 91.304 254.792 91.304C256.712 91.304 258.536 91.112 260.264 90.728C262.088 90.248 264.056 89.624 266.168 88.856V104.696C263.96 105.752 261.272 106.616 258.104 107.288C254.936 108.056 251.384 108.44 247.448 108.44ZM348.27 108.44C339.054 108.44 331.566 105.944 325.806 100.952C320.046 95.864 317.166 88.232 317.166 78.056C317.166 71.432 318.078 65.096 319.902 59.048C321.822 52.904 324.606 47.432 328.254 42.632C331.998 37.832 336.606 34.04 342.078 31.256C347.55 28.376 353.886 26.936 361.086 26.936C369.918 26.936 376.494 28.952 380.814 32.984C385.23 37.016 387.438 42.152 387.438 48.392C387.438 56.648 383.694 63.272 376.206 68.264C368.814 73.256 357.486 75.752 342.222 75.752H338.622C338.526 76.328 338.478 76.856 338.478 77.336C338.478 77.72 338.478 78.152 338.478 78.632C338.478 82.856 339.678 86.216 342.078 88.712C344.574 91.208 348.03 92.456 352.446 92.456C356.574 92.456 360.318 91.976 363.678 91.016C367.038 90.056 371.022 88.52 375.63 86.408V102.392C371.502 104.408 367.326 105.944 363.102 107C358.878 107.96 353.934 108.44 348.27 108.44ZM344.094 61.496C352.254 61.496 358.11 60.248 361.662 57.752C365.31 55.16 367.134 52.184 367.134 48.824C367.134 44.408 364.686 42.2 359.79 42.2C357.198 42.2 354.606 43.016 352.014 44.648C349.422 46.28 347.118 48.536 345.102 51.416C343.182 54.296 341.79 57.656 340.926 61.496H344.094ZM451.61 141.56C445.754 141.56 440.906 141.08 437.066 140.12C433.226 139.256 429.53 138.056 425.978 136.52V118.088C429.626 120.008 433.466 121.496 437.498 122.552C441.626 123.608 445.946 124.136 450.458 124.136C455.354 124.136 459.338 122.984 462.41 120.68C465.578 118.472 467.786 114.968 469.034 110.168L469.61 108.008C470.09 106.28 470.666 104.312 471.338 102.104C472.106 99.8 472.682 97.928 473.066 96.488H472.49C469.994 99.752 467.114 102.584 463.85 104.984C460.586 107.288 456.506 108.44 451.61 108.44C447.866 108.44 444.362 107.432 441.098 105.416C437.93 103.4 435.338 100.328 433.322 96.2C431.402 91.976 430.442 86.552 430.442 79.928C430.442 73.496 431.306 67.16 433.034 60.92C434.762 54.68 437.21 49.016 440.378 43.928C443.546 38.744 447.338 34.616 451.754 31.544C456.17 28.472 461.066 26.936 466.442 26.936C471.53 26.936 475.514 27.992 478.394 30.104C481.37 32.12 484.01 34.904 486.314 38.456H486.89L490.922 28.376H507.194L490.058 108.872C488.33 117.128 485.642 123.608 481.994 128.312C478.442 133.112 474.122 136.52 469.034 138.536C463.946 140.552 458.138 141.56 451.61 141.56ZM461.834 91.304C464.81 91.304 467.402 90.2 469.61 87.992C471.914 85.688 473.834 82.76 475.37 79.208C477.002 75.656 478.202 71.864 478.97 67.832C479.834 63.8 480.266 60.008 480.266 56.456C480.266 52.712 479.402 49.736 477.674 47.528C475.946 45.224 473.594 44.072 470.618 44.072C467.93 44.072 465.434 45.128 463.13 47.24C460.922 49.256 458.954 51.944 457.226 55.304C455.594 58.664 454.298 62.408 453.338 66.536C452.378 70.664 451.898 74.792 451.898 78.92C451.898 83.048 452.762 86.168 454.49 88.28C456.314 90.296 458.762 91.304 461.834 91.304ZM545.318 107L562.022 28.376H578.15L576.71 42.92H577.43C580.598 37.928 584.198 34.04 588.23 31.256C592.262 28.376 596.822 26.936 601.91 26.936C603.062 26.936 604.262 27.032 605.51 27.224C606.854 27.32 607.91 27.464 608.678 27.656L604.07 48.104C603.302 47.816 602.294 47.576 601.046 47.384C599.798 47.096 598.454 46.952 597.014 46.952C591.734 46.952 586.982 49.064 582.758 53.288C578.63 57.416 575.702 63.608 573.974 71.864L566.486 107H545.318ZM662.155 108.44C658.411 108.44 654.811 107.528 651.355 105.704C647.995 103.784 645.259 100.76 643.147 96.632C641.035 92.408 639.979 86.84 639.979 79.928C639.979 73.496 640.843 67.16 642.571 60.92C644.299 54.68 646.747 49.016 649.915 43.928C653.083 38.744 656.875 34.616 661.291 31.544C665.803 28.472 670.843 26.936 676.411 26.936C681.403 26.936 685.435 27.992 688.507 30.104C691.675 32.216 694.123 35 695.851 38.456H696.427L700.459 28.376H716.731L700.027 107H684.187L685.195 96.776H684.619C681.835 100.232 678.619 103.064 674.971 105.272C671.419 107.384 667.147 108.44 662.155 108.44ZM670.507 91.304C673.387 91.304 676.075 90.152 678.571 87.848C681.067 85.544 683.179 82.568 684.907 78.92C686.731 75.272 688.027 71.432 688.795 67.4C689.467 63.944 689.803 60.008 689.803 55.592C689.803 52.232 688.939 49.496 687.211 47.384C685.483 45.176 683.083 44.072 680.011 44.072C677.419 44.072 674.971 45.128 672.667 47.24C670.459 49.256 668.491 51.944 666.763 55.304C665.131 58.664 663.835 62.408 662.875 66.536C661.915 70.664 661.435 74.792 661.435 78.92C661.435 87.176 664.459 91.304 670.507 91.304ZM781.063 108.44C774.919 108.44 769.975 107.144 766.231 104.552C762.487 101.864 760.615 97.112 760.615 90.296C760.615 87.896 760.903 85.256 761.479 82.376L769.543 44.504H758.887L760.903 34.136L774.727 28.232L783.943 11.672H797.623L794.167 28.376H814.039L810.583 44.504H790.711L782.647 82.376C782.359 83.816 782.215 85.064 782.215 86.12C782.215 87.944 782.791 89.288 783.943 90.152C785.095 90.92 786.583 91.304 788.407 91.304C790.327 91.304 792.151 91.112 793.879 90.728C795.703 90.248 797.671 89.624 799.783 88.856V104.696C797.575 105.752 794.887 106.616 791.719 107.288C788.551 108.056 784.999 108.44 781.063 108.44ZM881.886 108.44C872.67 108.44 865.182 105.944 859.422 100.952C853.662 95.864 850.782 88.232 850.782 78.056C850.782 71.432 851.694 65.096 853.518 59.048C855.438 52.904 858.222 47.432 861.87 42.632C865.614 37.832 870.222 34.04 875.694 31.256C881.166 28.376 887.502 26.936 894.702 26.936C903.534 26.936 910.11 28.952 914.43 32.984C918.846 37.016 921.054 42.152 921.054 48.392C921.054 56.648 917.31 63.272 909.822 68.264C902.43 73.256 891.102 75.752 875.838 75.752H872.238C872.142 76.328 872.094 76.856 872.094 77.336C872.094 77.72 872.094 78.152 872.094 78.632C872.094 82.856 873.294 86.216 875.694 88.712C878.19 91.208 881.646 92.456 886.062 92.456C890.19 92.456 893.934 91.976 897.294 91.016C900.654 90.056 904.638 88.52 909.246 86.408V102.392C905.118 104.408 900.942 105.944 896.718 107C892.494 107.96 887.55 108.44 881.886 108.44ZM877.71 61.496C885.87 61.496 891.726 60.248 895.278 57.752C898.926 55.16 900.75 52.184 900.75 48.824C900.75 44.408 898.302 42.2 893.406 42.2C890.814 42.2 888.222 43.016 885.63 44.648C883.038 46.28 880.734 48.536 878.718 51.416C876.798 54.296 875.406 57.656 874.542 61.496H877.71ZM1051.7 108.44C1047.95 108.44 1044.35 107.528 1040.9 105.704C1037.54 103.784 1034.8 100.76 1032.69 96.632C1030.58 92.408 1029.52 86.84 1029.52 79.928C1029.52 73.496 1030.39 67.16 1032.11 60.92C1033.84 54.68 1036.29 49.016 1039.46 43.928C1042.63 38.744 1046.42 34.616 1050.83 31.544C1055.35 28.472 1060.39 26.936 1065.95 26.936C1070.95 26.936 1074.98 27.992 1078.05 30.104C1081.22 32.216 1083.67 35 1085.39 38.456H1085.97L1090 28.376H1106.27L1089.57 107H1073.73L1074.74 96.776H1074.16C1071.38 100.232 1068.16 103.064 1064.51 105.272C1060.96 107.384 1056.69 108.44 1051.7 108.44ZM1060.05 91.304C1062.93 91.304 1065.62 90.152 1068.11 87.848C1070.61 85.544 1072.72 82.568 1074.45 78.92C1076.27 75.272 1077.57 71.432 1078.34 67.4C1079.01 63.944 1079.35 60.008 1079.35 55.592C1079.35 52.232 1078.48 49.496 1076.75 47.384C1075.03 45.176 1072.63 44.072 1069.55 44.072C1066.96 44.072 1064.51 45.128 1062.21 47.24C1060 49.256 1058.03 51.944 1056.31 55.304C1054.67 58.664 1053.38 62.408 1052.42 66.536C1051.46 70.664 1050.98 74.792 1050.98 78.92C1050.98 87.176 1054 91.304 1060.05 91.304ZM1144.4 107L1161.1 28.376H1177.23L1175.79 42.92H1176.37C1179.44 38.216 1182.94 34.376 1186.88 31.4C1190.91 28.424 1195.66 26.936 1201.13 26.936C1207.95 26.936 1213.04 29 1216.4 33.128C1219.76 37.16 1221.44 42.632 1221.44 49.544C1221.44 53 1220.91 57.224 1219.85 62.216L1210.49 107H1189.33L1198.97 61.064C1199.74 57.704 1200.13 54.92 1200.13 52.712C1200.13 46.952 1197.58 44.072 1192.49 44.072C1189.33 44.072 1186.45 45.464 1183.85 48.248C1181.26 50.936 1179.01 54.584 1177.09 59.192C1175.26 63.8 1173.73 68.888 1172.48 74.456L1165.57 107H1144.4ZM1262.26 141.56C1259.77 141.56 1257.7 141.416 1256.07 141.128C1254.44 140.936 1253.05 140.648 1251.9 140.264V123.416C1253.14 123.608 1254.44 123.8 1255.78 123.992C1257.03 124.184 1258.47 124.28 1260.1 124.28C1264.62 124.28 1268.31 122.984 1271.19 120.392C1274.07 117.8 1276.57 114.488 1278.68 110.456L1280.55 107L1269.03 28.376H1289.77L1293.66 64.808C1294.04 68.072 1294.28 71.624 1294.38 75.464C1294.47 79.304 1294.52 82.616 1294.52 85.4H1295.1C1296.06 83 1297.11 80.216 1298.26 77.048C1299.42 73.784 1300.9 70.184 1302.73 66.248L1321.02 28.376H1344.06L1296.25 118.232C1292.02 126.2 1287.03 132.056 1281.27 135.8C1275.61 139.64 1269.27 141.56 1262.26 141.56ZM50.2637 271L72.0077 168.184H101.96C111.752 168.184 119.624 169.96 125.576 173.512C131.528 176.968 134.504 182.824 134.504 191.08C134.504 198.088 132.536 203.848 128.6 208.36C124.664 212.872 119.144 215.896 112.04 217.432V218.008C116.744 219.256 120.488 221.56 123.272 224.92C126.056 228.184 127.448 232.36 127.448 237.448C127.448 245.224 125.672 251.608 122.12 256.6C118.568 261.496 113.72 265.144 107.576 267.544C101.528 269.848 94.6637 271 86.9837 271H50.2637ZM95.3357 208.936C100.424 208.936 104.504 207.928 107.576 205.912C110.744 203.8 112.328 200.392 112.328 195.688C112.328 189.256 108.344 186.04 100.376 186.04H89.7197L84.8237 208.936H95.3357ZM88.1357 253C93.4157 253 97.6397 251.704 100.808 249.112C104.072 246.424 105.704 242.584 105.704 237.592C105.704 233.944 104.648 231.16 102.536 229.24C100.424 227.224 97.2077 226.216 92.8877 226.216H81.2237L75.4637 253H88.1357ZM197.449 272.44C193.705 272.44 190.105 271.528 186.649 269.704C183.289 267.784 180.553 264.76 178.441 260.632C176.329 256.408 175.273 250.84 175.273 243.928C175.273 237.496 176.137 231.16 177.865 224.92C179.593 218.68 182.041 213.016 185.209 207.928C188.377 202.744 192.169 198.616 196.585 195.544C201.097 192.472 206.137 190.936 211.705 190.936C216.697 190.936 220.729 191.992 223.801 194.104C226.969 196.216 229.417 199 231.145 202.456H231.721L235.753 192.376H252.025L235.321 271H219.481L220.489 260.776H219.913C217.129 264.232 213.913 267.064 210.265 269.272C206.713 271.384 202.441 272.44 197.449 272.44ZM205.801 255.304C208.681 255.304 211.369 254.152 213.865 251.848C216.361 249.544 218.473 246.568 220.201 242.92C222.025 239.272 223.321 235.432 224.089 231.4C224.761 227.944 225.097 224.008 225.097 219.592C225.097 216.232 224.233 213.496 222.505 211.384C220.777 209.176 218.377 208.072 215.305 208.072C212.713 208.072 210.265 209.128 207.961 211.24C205.753 213.256 203.785 215.944 202.057 219.304C200.425 222.664 199.129 226.408 198.169 230.536C197.209 234.664 196.729 238.792 196.729 242.92C196.729 251.176 199.753 255.304 205.801 255.304ZM290.149 271L306.853 192.376H322.981L321.541 206.92H322.117C325.189 202.216 328.693 198.376 332.629 195.4C336.661 192.424 341.413 190.936 346.885 190.936C353.701 190.936 358.789 193 362.149 197.128C365.509 201.16 367.189 206.632 367.189 213.544C367.189 217 366.661 221.224 365.605 226.216L356.245 271H335.077L344.725 225.064C345.493 221.704 345.877 218.92 345.877 216.712C345.877 210.952 343.333 208.072 338.245 208.072C335.077 208.072 332.197 209.464 329.605 212.248C327.013 214.936 324.757 218.584 322.837 223.192C321.013 227.8 319.477 232.888 318.229 238.456L311.317 271H290.149ZM410.175 271L433.359 161.56H454.527L444.159 210.376C443.679 212.776 442.959 215.56 441.999 218.728C441.039 221.8 440.319 224.152 439.839 225.784H440.415L472.239 192.376H496.431L461.439 227.8L481.455 271H457.839L445.023 241.48L436.527 246.52L431.343 271H410.175ZM579.37 271L633.226 168.184H659.434L669.802 271H648.922L647.194 246.52H613.93L601.834 271H579.37ZM622.714 228.232H646.186L644.314 201.736C644.122 198.952 643.93 196.12 643.738 193.24C643.546 190.36 643.498 187.432 643.594 184.456H643.306C642.346 187.048 641.29 189.64 640.138 192.232C638.986 194.728 637.69 197.464 636.25 200.44L622.714 228.232ZM747.12 272.44C741.744 272.44 736.8 271.48 732.288 269.56C727.872 267.544 724.368 264.424 721.776 260.2C719.184 255.976 717.888 250.408 717.888 243.496C717.888 236.392 718.8 229.72 720.624 223.48C722.448 217.144 725.136 211.528 728.688 206.632C732.24 201.736 736.608 197.896 741.792 195.112C746.976 192.328 752.88 190.936 759.504 190.936C764.208 190.936 768.384 191.368 772.032 192.232C775.776 193.096 779.28 194.344 782.544 195.976L776.064 212.104C773.568 211.048 771.072 210.136 768.576 209.368C766.176 208.504 763.44 208.072 760.368 208.072C755.952 208.072 752.16 209.752 748.992 213.112C745.824 216.376 743.424 220.6 741.792 225.784C740.16 230.872 739.344 236.2 739.344 241.768C739.344 246.184 740.4 249.544 742.512 251.848C744.624 254.152 747.6 255.304 751.44 255.304C754.992 255.304 758.256 254.776 761.232 253.72C764.304 252.568 767.472 251.176 770.736 249.544V266.824C767.472 268.552 763.92 269.944 760.08 271C756.336 271.96 752.016 272.44 747.12 272.44ZM849.85 272.44C844.474 272.44 839.53 271.48 835.018 269.56C830.602 267.544 827.098 264.424 824.506 260.2C821.914 255.976 820.618 250.408 820.618 243.496C820.618 236.392 821.53 229.72 823.354 223.48C825.178 217.144 827.866 211.528 831.418 206.632C834.97 201.736 839.338 197.896 844.522 195.112C849.706 192.328 855.61 190.936 862.234 190.936C866.938 190.936 871.114 191.368 874.762 192.232C878.506 193.096 882.01 194.344 885.274 195.976L878.794 212.104C876.298 211.048 873.802 210.136 871.306 209.368C868.906 208.504 866.17 208.072 863.098 208.072C858.682 208.072 854.89 209.752 851.722 213.112C848.554 216.376 846.154 220.6 844.522 225.784C842.89 230.872 842.074 236.2 842.074 241.768C842.074 246.184 843.13 249.544 845.242 251.848C847.354 254.152 850.33 255.304 854.17 255.304C857.722 255.304 860.986 254.776 863.962 253.72C867.034 252.568 870.202 251.176 873.466 249.544V266.824C870.202 268.552 866.65 269.944 862.81 271C859.066 271.96 854.746 272.44 849.85 272.44ZM953.443 272.44C947.587 272.44 942.355 271.24 937.747 268.84C933.235 266.344 929.683 262.84 927.091 258.328C924.595 253.816 923.347 248.44 923.347 242.2C923.347 235.288 924.211 228.76 925.939 222.616C927.667 216.376 930.259 210.904 933.715 206.2C937.171 201.4 941.491 197.656 946.675 194.968C951.955 192.28 958.099 190.936 965.107 190.936C974.227 190.936 981.475 193.672 986.851 199.144C992.227 204.616 994.915 212.248 994.915 222.04C994.915 228.664 994.099 235 992.467 241.048C990.835 247.096 988.291 252.472 984.835 257.176C981.475 261.88 977.155 265.624 971.875 268.408C966.691 271.096 960.547 272.44 953.443 272.44ZM955.171 255.16C959.107 255.16 962.419 253.576 965.107 250.408C967.891 247.24 970.003 243.16 971.443 238.168C972.883 233.08 973.603 227.704 973.603 222.04C973.603 218.104 972.835 214.84 971.299 212.248C969.859 209.56 967.267 208.216 963.523 208.216C960.355 208.216 957.571 209.32 955.171 211.528C952.771 213.64 950.803 216.424 949.267 219.88C947.731 223.336 946.579 227.032 945.811 230.968C945.043 234.904 944.659 238.648 944.659 242.2C944.659 250.84 948.163 255.16 955.171 255.16ZM1062.16 272.44C1055.44 272.44 1050.4 270.424 1047.04 266.392C1043.77 262.264 1042.14 256.744 1042.14 249.832C1042.14 248.104 1042.29 245.896 1042.57 243.208C1042.86 240.424 1043.29 237.64 1043.87 234.856L1052.8 192.376H1073.97L1064.32 238.312C1063.55 241.672 1063.17 244.456 1063.17 246.664C1063.17 252.424 1065.71 255.304 1070.8 255.304C1074.06 255.304 1076.94 253.96 1079.44 251.272C1082.03 248.488 1084.29 244.792 1086.21 240.184C1088.13 235.576 1089.66 230.488 1090.81 224.92L1097.73 192.376H1118.89L1102.19 271H1086.06L1087.5 256.456H1086.78C1083.81 261.16 1080.3 265 1076.27 267.976C1072.33 270.952 1067.63 272.44 1062.16 272.44ZM1156.98 271L1173.69 192.376H1189.82L1188.38 206.92H1188.95C1192.02 202.216 1195.53 198.376 1199.46 195.4C1203.5 192.424 1208.25 190.936 1213.72 190.936C1220.54 190.936 1225.62 193 1228.98 197.128C1232.34 201.16 1234.02 206.632 1234.02 213.544C1234.02 217 1233.5 221.224 1232.44 226.216L1223.08 271H1201.91L1211.56 225.064C1212.33 221.704 1212.71 218.92 1212.71 216.712C1212.71 210.952 1210.17 208.072 1205.08 208.072C1201.91 208.072 1199.03 209.464 1196.44 212.248C1193.85 214.936 1191.59 218.584 1189.67 223.192C1187.85 227.8 1186.31 232.888 1185.06 238.456L1178.15 271H1156.98ZM1303.22 272.44C1297.07 272.44 1292.13 271.144 1288.39 268.552C1284.64 265.864 1282.77 261.112 1282.77 254.296C1282.77 251.896 1283.06 249.256 1283.63 246.376L1291.7 208.504H1281.04L1283.06 198.136L1296.88 192.232L1306.1 175.672H1319.78L1316.32 192.376H1336.19L1332.74 208.504H1312.87L1304.8 246.376C1304.51 247.816 1304.37 249.064 1304.37 250.12C1304.37 251.944 1304.95 253.288 1306.1 254.152C1307.25 254.92 1308.74 255.304 1310.56 255.304C1312.48 255.304 1314.31 255.112 1316.03 254.728C1317.86 254.248 1319.83 253.624 1321.94 252.856V268.696C1319.73 269.752 1317.04 270.616 1313.87 271.288C1310.71 272.056 1307.15 272.44 1303.22 272.44Z" fill="#49AAFF"/>
</g>
<defs>
<filter id="filter0_dd" x="0.200287" y="0.18399" width="1352.86" height="280.256" filterUnits="userSpaceOnUse" color-interpolation-filters="sRGB">
<feFlood flood-opacity="0" result="BackgroundImageFix"/>
<feColorMatrix in="SourceAlpha" type="matrix" values="0 0 0 0 0 0 0 0 0 0 0 0 0 0 0 0 0 0 127 0"/>
<feOffset dx="5"/>
<feGaussianBlur stdDeviation="2"/>
<feColorMatrix type="matrix" values="0 0 0 0 1 0 0 0 0 1 0 0 0 0 1 0 0 0 1 0"/>
<feBlend mode="normal" in2="BackgroundImageFix" result="effect1_dropShadow"/>
<feColorMatrix in="SourceAlpha" type="matrix" values="0 0 0 0 0 0 0 0 0 0 0 0 0 0 0 0 0 0 127 0"/>
<feOffset dx="-2" dy="4"/>
<feGaussianBlur stdDeviation="2"/>
<feColorMatrix type="matrix" values="0 0 0 0 0 0 0 0 0 0 0 0 0 0 0 0 0 0 0.25 0"/>
<feBlend mode="normal" in2="effect1_dropShadow" result="effect2_dropShadow"/>
<feBlend mode="normal" in="SourceGraphic" in2="effect2_dropShadow" result="shape"/>
</filter>
</defs>
</svg>
