<svg width="1358" height="146" viewBox="0 0 1358 146" fill="none" xmlns="http://www.w3.org/2000/svg">
<path d="M7.845 111L25.701 26.328H0.933L4.821 8.18399H75.813L71.925 26.328H47.157L29.301 111H7.845ZM61.0451 111L77.7491 32.376H93.8771L92.4371 46.92H93.1571C96.3251 41.928 99.9251 38.04 103.957 35.256C107.989 32.376 112.549 30.936 117.637 30.936C118.789 30.936 119.989 31.032 121.237 31.224C122.581 31.32 123.637 31.464 124.405 31.656L119.797 52.104C119.029 51.816 118.021 51.576 116.773 51.384C115.525 51.096 114.181 50.952 112.741 50.952C107.461 50.952 102.709 53.064 98.4851 57.288C94.3571 61.416 91.4291 67.608 89.7011 75.864L82.2131 111H61.0451ZM144.762 112.44C141.018 112.44 137.418 111.528 133.962 109.704C130.602 107.784 127.866 104.76 125.754 100.632C123.642 96.408 122.586 90.84 122.586 83.928C122.586 77.496 123.45 71.16 125.178 64.92C126.906 58.68 129.354 53.016 132.522 47.928C135.69 42.744 139.482 38.616 143.898 35.544C148.41 32.472 153.45 30.936 159.018 30.936C164.01 30.936 168.042 31.992 171.114 34.104C174.282 36.216 176.73 39 178.458 42.456H179.034L183.066 32.376H199.338L182.634 111H166.794L167.802 100.776H167.226C164.442 104.232 161.226 107.064 157.578 109.272C154.026 111.384 149.754 112.44 144.762 112.44ZM153.114 95.304C155.994 95.304 158.682 94.152 161.178 91.848C163.674 89.544 165.786 86.568 167.514 82.92C169.338 79.272 170.634 75.432 171.402 71.4C172.074 67.944 172.41 64.008 172.41 59.592C172.41 56.232 171.546 53.496 169.818 51.384C168.09 49.176 165.69 48.072 162.618 48.072C160.026 48.072 157.578 49.128 155.274 51.24C153.066 53.256 151.098 55.944 149.37 59.304C147.738 62.664 146.442 66.408 145.482 70.536C144.522 74.664 144.042 78.792 144.042 82.92C144.042 91.176 147.066 95.304 153.114 95.304ZM204.342 111L221.046 32.376H237.174L235.734 46.92H236.31C239.382 42.216 242.886 38.376 246.822 35.4C250.854 32.424 255.606 30.936 261.078 30.936C267.894 30.936 272.982 33 276.342 37.128C279.702 41.16 281.382 46.632 281.382 53.544C281.382 57 280.854 61.224 279.798 66.216L270.438 111H249.27L258.918 65.064C259.686 61.704 260.07 58.92 260.07 56.712C260.07 50.952 257.526 48.072 252.438 48.072C249.27 48.072 246.39 49.464 243.798 52.248C241.206 54.936 238.95 58.584 237.03 63.192C235.206 67.8 233.67 72.888 232.422 78.456L225.51 111H204.342ZM313.856 112.44C308.864 112.44 304.496 112.056 300.752 111.288C297.008 110.616 293.504 109.464 290.24 107.832V90.408C293.792 92.424 297.44 94.008 301.184 95.16C304.928 96.216 308.768 96.744 312.704 96.744C316.064 96.744 319.04 96.072 321.632 94.728C324.224 93.288 325.52 91.128 325.52 88.248C325.52 86.328 324.752 84.6 323.216 83.064C321.68 81.528 318.512 79.416 313.712 76.728C308.816 73.944 305.024 71.064 302.336 68.088C299.744 65.016 298.448 60.984 298.448 55.992C298.448 47.832 301.088 41.64 306.368 37.416C311.744 33.096 319.088 30.936 328.4 30.936C332.912 30.936 337.28 31.464 341.504 32.52C345.728 33.48 349.856 35.16 353.888 37.56L346.976 52.68C344.192 51.048 341.216 49.656 338.048 48.504C334.976 47.352 331.904 46.776 328.832 46.776C326.528 46.776 324.464 47.352 322.64 48.504C320.816 49.56 319.904 51.192 319.904 53.4C319.904 55.224 320.672 56.856 322.208 58.296C323.744 59.64 326.528 61.368 330.56 63.48C335.36 65.88 339.296 68.76 342.368 72.12C345.44 75.384 346.976 79.704 346.976 85.08C346.976 94.104 343.952 100.92 337.904 105.528C331.952 110.136 323.936 112.44 313.856 112.44ZM353.551 145.56C348.655 145.56 344.575 144.984 341.311 143.832V126.84C344.191 127.8 346.879 128.28 349.375 128.28C352.255 128.28 354.751 127.32 356.863 125.4C359.071 123.48 360.607 120.456 361.471 116.328L375.871 48.504H364.351L366.511 38.28L379.327 32.376L380.623 26.472C382.735 16.968 386.143 10.344 390.847 6.6C395.647 2.75999 401.887 0.839993 409.567 0.839993C412.831 0.839993 415.807 1.17599 418.495 1.848C421.279 2.424 423.823 3.23999 426.127 4.29599L420.511 19.992C419.167 19.416 417.727 18.936 416.191 18.552C414.751 18.072 413.071 17.832 411.151 17.832C408.463 17.832 406.303 18.792 404.671 20.712C403.039 22.536 401.935 24.984 401.359 28.056L400.495 32.376H415.903L412.447 48.504H397.039L381.919 119.496C380.959 124.296 379.375 128.664 377.167 132.6C374.959 136.536 371.935 139.656 368.095 141.96C364.351 144.36 359.503 145.56 353.551 145.56ZM447.878 112.44C438.662 112.44 431.174 109.944 425.414 104.952C419.654 99.864 416.774 92.232 416.774 82.056C416.774 75.432 417.686 69.096 419.51 63.048C421.43 56.904 424.214 51.432 427.862 46.632C431.606 41.832 436.214 38.04 441.686 35.256C447.158 32.376 453.494 30.936 460.694 30.936C469.526 30.936 476.102 32.952 480.422 36.984C484.838 41.016 487.046 46.152 487.046 52.392C487.046 60.648 483.302 67.272 475.814 72.264C468.422 77.256 457.094 79.752 441.83 79.752H438.23C438.134 80.328 438.086 80.856 438.086 81.336C438.086 81.72 438.086 82.152 438.086 82.632C438.086 86.856 439.286 90.216 441.686 92.712C444.182 95.208 447.638 96.456 452.054 96.456C456.182 96.456 459.926 95.976 463.286 95.016C466.646 94.056 470.63 92.52 475.238 90.408V106.392C471.11 108.408 466.934 109.944 462.71 111C458.486 111.96 453.542 112.44 447.878 112.44ZM443.702 65.496C451.862 65.496 457.718 64.248 461.27 61.752C464.918 59.16 466.742 56.184 466.742 52.824C466.742 48.408 464.294 46.2 459.398 46.2C456.806 46.2 454.214 47.016 451.622 48.648C449.03 50.28 446.726 52.536 444.71 55.416C442.79 58.296 441.398 61.656 440.534 65.496H443.702ZM493.186 111L509.89 32.376H526.018L524.578 46.92H525.298C528.466 41.928 532.066 38.04 536.098 35.256C540.13 32.376 544.69 30.936 549.778 30.936C550.93 30.936 552.13 31.032 553.378 31.224C554.722 31.32 555.778 31.464 556.546 31.656L551.938 52.104C551.17 51.816 550.162 51.576 548.914 51.384C547.666 51.096 546.322 50.952 544.882 50.952C539.602 50.952 534.85 53.064 530.626 57.288C526.498 61.416 523.57 67.608 521.842 75.864L514.354 111H493.186ZM587.291 111L609.035 8.18399H637.403L642.011 85.08H642.587L681.179 8.18399H710.987L689.243 111H669.515L679.739 62.328C680.411 59.064 681.179 55.608 682.043 51.96C683.003 48.216 683.915 44.568 684.779 41.016C685.739 37.368 686.603 34.152 687.371 31.368H686.795L646.763 111H627.035L622.715 31.368H622.139C621.947 33.384 621.563 36.168 620.987 39.72C620.411 43.176 619.739 46.968 618.971 51.096C618.299 55.224 617.531 59.256 616.667 63.192L606.587 111H587.291ZM746.682 112.44C740.826 112.44 735.594 111.24 730.986 108.84C726.474 106.344 722.922 102.84 720.33 98.328C717.834 93.816 716.586 88.44 716.586 82.2C716.586 75.288 717.45 68.76 719.178 62.616C720.906 56.376 723.498 50.904 726.954 46.2C730.41 41.4 734.73 37.656 739.914 34.968C745.194 32.28 751.338 30.936 758.346 30.936C767.466 30.936 774.714 33.672 780.09 39.144C785.466 44.616 788.154 52.248 788.154 62.04C788.154 68.664 787.338 75 785.706 81.048C784.074 87.096 781.53 92.472 778.074 97.176C774.714 101.88 770.394 105.624 765.114 108.408C759.93 111.096 753.786 112.44 746.682 112.44ZM748.41 95.16C752.346 95.16 755.658 93.576 758.346 90.408C761.13 87.24 763.242 83.16 764.682 78.168C766.122 73.08 766.842 67.704 766.842 62.04C766.842 58.104 766.074 54.84 764.538 52.248C763.098 49.56 760.506 48.216 756.762 48.216C753.594 48.216 750.81 49.32 748.41 51.528C746.01 53.64 744.042 56.424 742.506 59.88C740.97 63.336 739.818 67.032 739.05 70.968C738.282 74.904 737.898 78.648 737.898 82.2C737.898 90.84 741.402 95.16 748.41 95.16ZM797.076 111L813.78 32.376H829.908L828.468 46.92H829.044C832.116 42.216 835.62 38.376 839.556 35.4C843.588 32.424 848.34 30.936 853.812 30.936C860.628 30.936 865.716 33 869.076 37.128C872.436 41.16 874.116 46.632 874.116 53.544C874.116 57 873.588 61.224 872.532 66.216L863.172 111H842.004L851.652 65.064C852.42 61.704 852.804 58.92 852.804 56.712C852.804 50.952 850.26 48.072 845.172 48.072C842.004 48.072 839.124 49.464 836.532 52.248C833.94 54.936 831.684 58.584 829.764 63.192C827.94 67.8 826.404 72.888 825.156 78.456L818.244 111H797.076ZM918.831 112.44C909.615 112.44 902.127 109.944 896.367 104.952C890.607 99.864 887.727 92.232 887.727 82.056C887.727 75.432 888.639 69.096 890.463 63.048C892.383 56.904 895.167 51.432 898.815 46.632C902.559 41.832 907.167 38.04 912.639 35.256C918.111 32.376 924.447 30.936 931.647 30.936C940.479 30.936 947.055 32.952 951.375 36.984C955.791 41.016 957.999 46.152 957.999 52.392C957.999 60.648 954.255 67.272 946.767 72.264C939.375 77.256 928.047 79.752 912.783 79.752H909.183C909.087 80.328 909.039 80.856 909.039 81.336C909.039 81.72 909.039 82.152 909.039 82.632C909.039 86.856 910.239 90.216 912.639 92.712C915.135 95.208 918.591 96.456 923.007 96.456C927.135 96.456 930.879 95.976 934.239 95.016C937.599 94.056 941.583 92.52 946.191 90.408V106.392C942.063 108.408 937.887 109.944 933.663 111C929.439 111.96 924.495 112.44 918.831 112.44ZM914.655 65.496C922.815 65.496 928.671 64.248 932.223 61.752C935.871 59.16 937.695 56.184 937.695 52.824C937.695 48.408 935.247 46.2 930.351 46.2C927.759 46.2 925.167 47.016 922.575 48.648C919.983 50.28 917.679 52.536 915.663 55.416C913.743 58.296 912.351 61.656 911.487 65.496H914.655ZM959.166 145.56C956.67 145.56 954.606 145.416 952.974 145.128C951.342 144.936 949.95 144.648 948.798 144.264V127.416C950.046 127.608 951.342 127.8 952.686 127.992C953.934 128.184 955.374 128.28 957.006 128.28C961.518 128.28 965.214 126.984 968.094 124.392C970.974 121.8 973.47 118.488 975.582 114.456L977.454 111L965.934 32.376H986.67L990.558 68.808C990.942 72.072 991.182 75.624 991.278 79.464C991.374 83.304 991.422 86.616 991.422 89.4H991.998C992.958 87 994.014 84.216 995.166 81.048C996.318 77.784 997.806 74.184 999.63 70.248L1017.92 32.376H1040.96L993.15 122.232C988.926 130.2 983.934 136.056 978.174 139.8C972.51 143.64 966.174 145.56 959.166 145.56ZM1069.49 111L1091.24 8.18399H1148.41L1144.66 26.04H1108.95L1103.33 52.536H1136.6L1132.71 70.392H1099.45L1090.95 111H1069.49ZM1170.76 112.44C1167.02 112.44 1163.42 111.528 1159.96 109.704C1156.6 107.784 1153.87 104.76 1151.75 100.632C1149.64 96.408 1148.59 90.84 1148.59 83.928C1148.59 77.496 1149.45 71.16 1151.18 64.92C1152.91 58.68 1155.35 53.016 1158.52 47.928C1161.69 42.744 1165.48 38.616 1169.9 35.544C1174.41 32.472 1179.45 30.936 1185.02 30.936C1190.01 30.936 1194.04 31.992 1197.11 34.104C1200.28 36.216 1202.73 39 1204.46 42.456H1205.03L1209.07 32.376H1225.34L1208.63 111H1192.79L1193.8 100.776H1193.23C1190.44 104.232 1187.23 107.064 1183.58 109.272C1180.03 111.384 1175.75 112.44 1170.76 112.44ZM1179.11 95.304C1181.99 95.304 1184.68 94.152 1187.18 91.848C1189.67 89.544 1191.79 86.568 1193.51 82.92C1195.34 79.272 1196.63 75.432 1197.4 71.4C1198.07 67.944 1198.41 64.008 1198.41 59.592C1198.41 56.232 1197.55 53.496 1195.82 51.384C1194.09 49.176 1191.69 48.072 1188.62 48.072C1186.03 48.072 1183.58 49.128 1181.27 51.24C1179.07 53.256 1177.1 55.944 1175.37 59.304C1173.74 62.664 1172.44 66.408 1171.48 70.536C1170.52 74.664 1170.04 78.792 1170.04 82.92C1170.04 91.176 1173.07 95.304 1179.11 95.304ZM1252.95 112.44C1247.96 112.44 1243.59 112.056 1239.85 111.288C1236.1 110.616 1232.6 109.464 1229.33 107.832V90.408C1232.89 92.424 1236.53 94.008 1240.28 95.16C1244.02 96.216 1247.86 96.744 1251.8 96.744C1255.16 96.744 1258.13 96.072 1260.73 94.728C1263.32 93.288 1264.61 91.128 1264.61 88.248C1264.61 86.328 1263.85 84.6 1262.31 83.064C1260.77 81.528 1257.61 79.416 1252.81 76.728C1247.91 73.944 1244.12 71.064 1241.43 68.088C1238.84 65.016 1237.54 60.984 1237.54 55.992C1237.54 47.832 1240.18 41.64 1245.46 37.416C1250.84 33.096 1258.18 30.936 1267.49 30.936C1272.01 30.936 1276.37 31.464 1280.6 32.52C1284.82 33.48 1288.95 35.16 1292.98 37.56L1286.07 52.68C1283.29 51.048 1280.31 49.656 1277.14 48.504C1274.07 47.352 1271 46.776 1267.93 46.776C1265.62 46.776 1263.56 47.352 1261.73 48.504C1259.91 49.56 1259 51.192 1259 53.4C1259 55.224 1259.77 56.856 1261.3 58.296C1262.84 59.64 1265.62 61.368 1269.65 63.48C1274.45 65.88 1278.39 68.76 1281.46 72.12C1284.53 75.384 1286.07 79.704 1286.07 85.08C1286.07 94.104 1283.05 100.92 1277 105.528C1271.05 110.136 1263.03 112.44 1252.95 112.44ZM1324.61 112.44C1318.47 112.44 1313.52 111.144 1309.78 108.552C1306.04 105.864 1304.16 101.112 1304.16 94.296C1304.16 91.896 1304.45 89.256 1305.03 86.376L1313.09 48.504H1302.44L1304.45 38.136L1318.28 32.232L1327.49 15.672H1341.17L1337.72 32.376H1357.59L1354.13 48.504H1334.26L1326.2 86.376C1325.91 87.816 1325.76 89.064 1325.76 90.12C1325.76 91.944 1326.34 93.288 1327.49 94.152C1328.64 94.92 1330.13 95.304 1331.96 95.304C1333.88 95.304 1335.7 95.112 1337.43 94.728C1339.25 94.248 1341.22 93.624 1343.33 92.856V108.696C1341.12 109.752 1338.44 110.616 1335.27 111.288C1332.1 112.056 1328.55 112.44 1324.61 112.44Z" fill="#48A9FF"/>
</svg>
