<svg width="1106" height="452" viewBox="0 0 1106 452" fill="none" xmlns="http://www.w3.org/2000/svg">
<g filter="url(#filter0_dd)">
<path d="M38.9972 115.44C28.3412 115.44 20.2292 112.8 14.6612 107.52C9.18921 102.24 6.45321 95.232 6.45321 86.496C6.45321 84.96 6.50121 83.28 6.59721 81.456C6.78921 79.536 7.07721 77.76 7.46121 76.128L21.2852 11.184H42.7412L29.0612 75.84C28.2932 79.392 27.9092 82.32 27.9092 84.624C27.9092 92.976 32.3252 97.152 41.1572 97.152C47.3972 97.152 52.0532 95.376 55.1252 91.824C58.2932 88.176 60.6452 82.8 62.1812 75.696L75.8612 11.184H97.3172L83.2052 77.712C81.6692 85.008 79.1732 91.488 75.7172 97.152C72.2612 102.816 67.5092 107.28 61.4612 110.544C55.5092 113.808 48.0212 115.44 38.9972 115.44ZM131.792 114L148.496 35.376H164.624L163.184 49.92H163.76C166.832 45.216 170.336 41.376 174.272 38.4C178.304 35.424 183.056 33.936 188.528 33.936C195.344 33.936 200.432 36 203.792 40.128C207.152 44.16 208.832 49.632 208.832 56.544C208.832 60 208.304 64.224 207.248 69.216L197.888 114H176.72L186.368 68.064C187.136 64.704 187.52 61.92 187.52 59.712C187.52 53.952 184.976 51.072 179.888 51.072C176.72 51.072 173.84 52.464 171.248 55.248C168.656 57.936 166.4 61.584 164.48 66.192C162.656 70.8 161.12 75.888 159.872 81.456L152.96 114H131.792ZM277.738 115.44C273.994 115.44 270.394 114.528 266.938 112.704C263.578 110.784 260.842 107.76 258.73 103.632C256.618 99.408 255.562 93.792 255.562 86.784C255.562 80.448 256.426 74.16 258.154 67.92C259.882 61.584 262.33 55.872 265.498 50.784C268.666 45.696 272.458 41.616 276.874 38.544C281.386 35.472 286.426 33.936 291.994 33.936C296.698 33.936 300.394 35.04 303.082 37.248C305.77 39.456 308.026 42.192 309.85 45.456H310.426C310.426 45.168 310.474 44.16 310.57 42.432C310.762 40.608 311.002 38.544 311.29 36.24C311.578 33.84 311.914 31.68 312.298 29.76L317.626 4.55999H338.794L315.61 114H299.482L300.778 103.776H300.202C297.418 107.232 294.25 110.064 290.698 112.272C287.146 114.384 282.826 115.44 277.738 115.44ZM286.666 98.304C290.026 98.304 292.858 97.056 295.162 94.56C297.562 91.968 299.482 88.8 300.922 85.056C302.458 81.216 303.562 77.376 304.234 73.536C305.002 69.6 305.386 66.24 305.386 63.456C305.386 59.712 304.522 56.736 302.794 54.528C301.066 52.224 298.666 51.072 295.594 51.072C293.002 51.072 290.554 52.128 288.25 54.24C286.042 56.256 284.074 58.944 282.346 62.304C280.714 65.664 279.418 69.408 278.458 73.536C277.498 77.664 277.018 81.792 277.018 85.92C277.018 94.176 280.234 98.304 286.666 98.304ZM405.286 115.44C396.07 115.44 388.582 112.944 382.822 107.952C377.062 102.864 374.182 95.232 374.182 85.056C374.182 78.432 375.094 72.096 376.918 66.048C378.838 59.904 381.622 54.432 385.27 49.632C389.014 44.832 393.622 41.04 399.094 38.256C404.566 35.376 410.902 33.936 418.102 33.936C426.934 33.936 433.51 35.952 437.83 39.984C442.246 44.016 444.454 49.152 444.454 55.392C444.454 63.648 440.71 70.272 433.222 75.264C425.83 80.256 414.502 82.752 399.238 82.752H395.638C395.542 83.328 395.494 83.856 395.494 84.336C395.494 84.72 395.494 85.152 395.494 85.632C395.494 89.856 396.694 93.216 399.094 95.712C401.59 98.208 405.046 99.456 409.462 99.456C413.59 99.456 417.334 98.976 420.694 98.016C424.054 97.056 428.038 95.52 432.646 93.408V109.392C428.518 111.408 424.342 112.944 420.118 114C415.894 114.96 410.95 115.44 405.286 115.44ZM401.11 68.496C409.27 68.496 415.126 67.248 418.678 64.752C422.326 62.16 424.15 59.184 424.15 55.824C424.15 51.408 421.702 49.2 416.806 49.2C414.214 49.2 411.622 50.016 409.03 51.648C406.438 53.28 404.134 55.536 402.118 58.416C400.198 61.296 398.806 64.656 397.942 68.496H401.11ZM483.714 114L500.418 35.376H516.546L515.106 49.92H515.826C518.994 44.928 522.594 41.04 526.626 38.256C530.658 35.376 535.218 33.936 540.306 33.936C541.458 33.936 542.658 34.032 543.906 34.224C545.25 34.32 546.306 34.464 547.074 34.656L542.466 55.104C541.698 54.816 540.69 54.576 539.442 54.384C538.194 54.096 536.85 53.952 535.41 53.952C530.13 53.952 525.378 56.064 521.154 60.288C517.026 64.416 514.098 70.608 512.37 78.864L504.882 114H483.714ZM600.052 115.44C595.06 115.44 590.692 115.056 586.948 114.288C583.204 113.616 579.7 112.464 576.436 110.832V93.408C579.988 95.424 583.636 97.008 587.38 98.16C591.124 99.216 594.964 99.744 598.9 99.744C602.26 99.744 605.236 99.072 607.828 97.728C610.42 96.288 611.716 94.128 611.716 91.248C611.716 89.328 610.948 87.6 609.412 86.064C607.876 84.528 604.708 82.416 599.908 79.728C595.012 76.944 591.22 74.064 588.532 71.088C585.94 68.016 584.644 63.984 584.644 58.992C584.644 50.832 587.284 44.64 592.564 40.416C597.94 36.096 605.284 33.936 614.596 33.936C619.108 33.936 623.476 34.464 627.7 35.52C631.924 36.48 636.052 38.16 640.084 40.56L633.172 55.68C630.388 54.048 627.412 52.656 624.244 51.504C621.172 50.352 618.1 49.776 615.028 49.776C612.724 49.776 610.66 50.352 608.836 51.504C607.012 52.56 606.1 54.192 606.1 56.4C606.1 58.224 606.868 59.856 608.404 61.296C609.94 62.64 612.724 64.368 616.756 66.48C621.556 68.88 625.492 71.76 628.564 75.12C631.636 78.384 633.172 82.704 633.172 88.08C633.172 97.104 630.148 103.92 624.1 108.528C618.148 113.136 610.132 115.44 600.052 115.44ZM704.834 115.44C698.69 115.44 693.746 114.144 690.002 111.552C686.258 108.864 684.386 104.112 684.386 97.296C684.386 94.896 684.674 92.256 685.25 89.376L693.314 51.504H682.658L684.674 41.136L698.498 35.232L707.714 18.672H721.394L717.938 35.376H737.81L734.354 51.504H714.482L706.418 89.376C706.13 90.816 705.986 92.064 705.986 93.12C705.986 94.944 706.562 96.288 707.714 97.152C708.866 97.92 710.354 98.304 712.178 98.304C714.098 98.304 715.922 98.112 717.65 97.728C719.474 97.248 721.442 96.624 723.554 95.856V111.696C721.346 112.752 718.658 113.616 715.49 114.288C712.322 115.056 708.77 115.44 704.834 115.44ZM796.729 115.44C792.985 115.44 789.385 114.528 785.929 112.704C782.569 110.784 779.833 107.76 777.721 103.632C775.609 99.408 774.553 93.84 774.553 86.928C774.553 80.496 775.417 74.16 777.145 67.92C778.873 61.68 781.321 56.016 784.489 50.928C787.657 45.744 791.449 41.616 795.865 38.544C800.377 35.472 805.417 33.936 810.985 33.936C815.977 33.936 820.009 34.992 823.081 37.104C826.249 39.216 828.697 42 830.425 45.456H831.001L835.033 35.376H851.305L834.601 114H818.761L819.769 103.776H819.193C816.409 107.232 813.193 110.064 809.545 112.272C805.993 114.384 801.721 115.44 796.729 115.44ZM805.081 98.304C807.961 98.304 810.649 97.152 813.145 94.848C815.641 92.544 817.753 89.568 819.481 85.92C821.305 82.272 822.601 78.432 823.369 74.4C824.041 70.944 824.377 67.008 824.377 62.592C824.377 59.232 823.513 56.496 821.785 54.384C820.057 52.176 817.657 51.072 814.585 51.072C811.993 51.072 809.545 52.128 807.241 54.24C805.033 56.256 803.065 58.944 801.337 62.304C799.705 65.664 798.409 69.408 797.449 73.536C796.489 77.664 796.009 81.792 796.009 85.92C796.009 94.176 799.033 98.304 805.081 98.304ZM889.429 114L906.133 35.376H922.261L920.821 49.92H921.397C924.469 45.216 927.973 41.376 931.909 38.4C935.941 35.424 940.693 33.936 946.165 33.936C952.981 33.936 958.069 36 961.429 40.128C964.789 44.16 966.469 49.632 966.469 56.544C966.469 60 965.941 64.224 964.885 69.216L955.525 114H934.357L944.005 68.064C944.773 64.704 945.157 61.92 945.157 59.712C945.157 53.952 942.613 51.072 937.525 51.072C934.357 51.072 931.477 52.464 928.885 55.248C926.293 57.936 924.037 61.584 922.117 66.192C920.293 70.8 918.757 75.888 917.509 81.456L910.597 114H889.429ZM1035.37 115.44C1031.63 115.44 1028.03 114.528 1024.57 112.704C1021.21 110.784 1018.48 107.76 1016.37 103.632C1014.25 99.408 1013.2 93.792 1013.2 86.784C1013.2 80.448 1014.06 74.16 1015.79 67.92C1017.52 61.584 1019.97 55.872 1023.13 50.784C1026.3 45.696 1030.09 41.616 1034.51 38.544C1039.02 35.472 1044.06 33.936 1049.63 33.936C1054.33 33.936 1058.03 35.04 1060.72 37.248C1063.41 39.456 1065.66 42.192 1067.49 45.456H1068.06C1068.06 45.168 1068.11 44.16 1068.21 42.432C1068.4 40.608 1068.64 38.544 1068.93 36.24C1069.21 33.84 1069.55 31.68 1069.93 29.76L1075.26 4.55999H1096.43L1073.25 114H1057.12L1058.41 103.776H1057.84C1055.05 107.232 1051.89 110.064 1048.33 112.272C1044.78 114.384 1040.46 115.44 1035.37 115.44ZM1044.3 98.304C1047.66 98.304 1050.49 97.056 1052.8 94.56C1055.2 91.968 1057.12 88.8 1058.56 85.056C1060.09 81.216 1061.2 77.376 1061.87 73.536C1062.64 69.6 1063.02 66.24 1063.02 63.456C1063.02 59.712 1062.16 56.736 1060.43 54.528C1058.7 52.224 1056.3 51.072 1053.23 51.072C1050.64 51.072 1048.19 52.128 1045.89 54.24C1043.68 56.256 1041.71 58.944 1039.98 62.304C1038.35 65.664 1037.05 69.408 1036.09 73.536C1035.13 77.664 1034.65 81.792 1034.65 85.92C1034.65 94.176 1037.87 98.304 1044.3 98.304ZM141.597 279.44C136.413 279.44 131.661 278.864 127.341 277.712C123.117 276.56 119.517 275.024 116.541 273.104V253.808C120.765 256.208 124.941 258.08 129.069 259.424C133.197 260.768 137.421 261.44 141.741 261.44C146.541 261.44 150.525 260.528 153.693 258.704C156.861 256.88 158.445 254.048 158.445 250.208C158.445 246.272 157.293 243.2 154.989 240.992C152.685 238.688 149.709 236.192 146.061 233.504C143.181 231.392 140.397 229.04 137.709 226.448C135.021 223.856 132.813 220.832 131.085 217.376C129.357 213.824 128.493 209.696 128.493 204.992C128.493 198.848 129.933 193.472 132.813 188.864C135.693 184.16 139.773 180.464 145.053 177.776C150.429 175.088 156.669 173.744 163.773 173.744C169.149 173.744 174.093 174.32 178.605 175.472C183.117 176.624 187.485 178.352 191.709 180.656L184.077 197.072C176.781 193.616 170.013 191.888 163.773 191.888C159.933 191.888 156.765 192.944 154.269 195.056C151.773 197.072 150.525 199.856 150.525 203.408C150.525 207.056 151.629 209.984 153.837 212.192C156.045 214.304 159.165 216.704 163.197 219.392C168.861 223.136 173.085 227.264 175.869 231.776C178.749 236.288 180.189 241.568 180.189 247.616C180.189 254.816 178.413 260.768 174.861 265.472C171.405 270.176 166.749 273.68 160.893 275.984C155.133 278.288 148.701 279.44 141.597 279.44ZM218.388 312.56L242.436 199.376H258.564L257.412 211.328H257.988C260.484 207.968 263.556 204.896 267.204 202.112C270.852 199.328 275.22 197.936 280.308 197.936C284.148 197.936 287.748 198.896 291.108 200.816C294.468 202.64 297.204 205.664 299.316 209.888C301.428 214.016 302.484 219.584 302.484 226.592C302.484 232.928 301.62 239.264 299.892 245.6C298.164 251.84 295.716 257.504 292.548 262.592C289.38 267.68 285.54 271.76 281.028 274.832C276.612 277.904 271.62 279.44 266.052 279.44C261.252 279.44 257.556 278.336 254.964 276.128C252.372 273.92 250.116 271.184 248.196 267.92H247.62C247.332 271.76 246.948 275.264 246.468 278.432C245.988 281.6 245.364 285.008 244.596 288.656L239.556 312.56H218.388ZM262.452 262.304C265.044 262.304 267.444 261.296 269.652 259.28C271.956 257.168 273.924 254.432 275.556 251.072C277.284 247.712 278.628 243.968 279.588 239.84C280.548 235.712 281.028 231.584 281.028 227.456C281.028 219.2 277.956 215.072 271.812 215.072C268.356 215.072 265.428 216.32 263.028 218.816C260.628 221.312 258.66 224.432 257.124 228.176C255.588 231.92 254.436 235.76 253.668 239.696C252.996 243.632 252.66 247.04 252.66 249.92C252.66 253.664 253.524 256.688 255.252 258.992C257.076 261.2 259.476 262.304 262.452 262.304ZM379.341 279.44C370.125 279.44 362.637 276.944 356.877 271.952C351.117 266.864 348.237 259.232 348.237 249.056C348.237 242.432 349.149 236.096 350.973 230.048C352.893 223.904 355.677 218.432 359.325 213.632C363.069 208.832 367.677 205.04 373.149 202.256C378.621 199.376 384.957 197.936 392.157 197.936C400.989 197.936 407.565 199.952 411.885 203.984C416.301 208.016 418.509 213.152 418.509 219.392C418.509 227.648 414.765 234.272 407.277 239.264C399.885 244.256 388.557 246.752 373.293 246.752H369.693C369.597 247.328 369.549 247.856 369.549 248.336C369.549 248.72 369.549 249.152 369.549 249.632C369.549 253.856 370.749 257.216 373.149 259.712C375.645 262.208 379.101 263.456 383.517 263.456C387.645 263.456 391.389 262.976 394.749 262.016C398.109 261.056 402.093 259.52 406.701 257.408V273.392C402.573 275.408 398.397 276.944 394.173 278C389.949 278.96 385.005 279.44 379.341 279.44ZM375.165 232.496C383.325 232.496 389.181 231.248 392.733 228.752C396.381 226.16 398.205 223.184 398.205 219.824C398.205 215.408 395.757 213.2 390.861 213.2C388.269 213.2 385.677 214.016 383.085 215.648C380.493 217.28 378.189 219.536 376.173 222.416C374.253 225.296 372.861 228.656 371.997 232.496H375.165ZM457.769 278L474.473 199.376H490.601L489.161 213.92H489.737C492.809 209.216 496.313 205.376 500.249 202.4C504.281 199.424 509.033 197.936 514.505 197.936C521.321 197.936 526.409 200 529.769 204.128C533.129 208.16 534.809 213.632 534.809 220.544C534.809 224 534.281 228.224 533.225 233.216L523.865 278H502.697L512.345 232.064C513.113 228.704 513.497 225.92 513.497 223.712C513.497 217.952 510.953 215.072 505.865 215.072C502.697 215.072 499.817 216.464 497.225 219.248C494.633 221.936 492.377 225.584 490.457 230.192C488.633 234.8 487.097 239.888 485.849 245.456L478.937 278H457.769ZM603.715 279.44C599.971 279.44 596.371 278.528 592.915 276.704C589.555 274.784 586.819 271.76 584.707 267.632C582.595 263.408 581.539 257.792 581.539 250.784C581.539 244.448 582.403 238.16 584.131 231.92C585.859 225.584 588.307 219.872 591.475 214.784C594.643 209.696 598.435 205.616 602.851 202.544C607.363 199.472 612.403 197.936 617.971 197.936C622.675 197.936 626.371 199.04 629.059 201.248C631.747 203.456 634.003 206.192 635.827 209.456H636.403C636.403 209.168 636.451 208.16 636.547 206.432C636.739 204.608 636.979 202.544 637.267 200.24C637.555 197.84 637.891 195.68 638.275 193.76L643.603 168.56H664.771L641.587 278H625.459L626.755 267.776H626.179C623.395 271.232 620.227 274.064 616.675 276.272C613.123 278.384 608.803 279.44 603.715 279.44ZM612.643 262.304C616.003 262.304 618.835 261.056 621.139 258.56C623.539 255.968 625.459 252.8 626.899 249.056C628.435 245.216 629.539 241.376 630.211 237.536C630.979 233.6 631.363 230.24 631.363 227.456C631.363 223.712 630.499 220.736 628.771 218.528C627.043 216.224 624.643 215.072 621.571 215.072C618.979 215.072 616.531 216.128 614.227 218.24C612.019 220.256 610.051 222.944 608.323 226.304C606.691 229.664 605.395 233.408 604.435 237.536C603.475 241.664 602.995 245.792 602.995 249.92C602.995 258.176 606.211 262.304 612.643 262.304ZM727.087 189.584C724.111 189.584 721.567 188.96 719.455 187.712C717.439 186.368 716.431 184.112 716.431 180.944C716.431 176.912 717.535 173.84 719.743 171.728C722.047 169.616 725.215 168.56 729.247 168.56C732.031 168.56 734.479 169.184 736.591 170.432C738.703 171.68 739.759 173.888 739.759 177.056C739.759 180.8 738.703 183.824 736.591 186.128C734.575 188.432 731.407 189.584 727.087 189.584ZM696.415 278L713.119 199.376H734.287L717.583 278H696.415ZM772.285 278L788.989 199.376H805.117L803.677 213.92H804.253C807.325 209.216 810.829 205.376 814.765 202.4C818.797 199.424 823.549 197.936 829.021 197.936C835.837 197.936 840.925 200 844.285 204.128C847.645 208.16 849.325 213.632 849.325 220.544C849.325 224 848.797 228.224 847.741 233.216L838.381 278H817.213L826.861 232.064C827.629 228.704 828.013 225.92 828.013 223.712C828.013 217.952 825.469 215.072 820.381 215.072C817.213 215.072 814.333 216.464 811.741 219.248C809.149 221.936 806.893 225.584 804.973 230.192C803.149 234.8 801.613 239.888 800.365 245.456L793.453 278H772.285ZM917.223 312.56C911.367 312.56 906.519 312.08 902.679 311.12C898.839 310.256 895.143 309.056 891.591 307.52V289.088C895.239 291.008 899.079 292.496 903.111 293.552C907.239 294.608 911.559 295.136 916.071 295.136C920.967 295.136 924.951 293.984 928.023 291.68C931.191 289.472 933.399 285.968 934.647 281.168L935.223 279.008C935.703 277.28 936.279 275.312 936.951 273.104C937.719 270.8 938.295 268.928 938.679 267.488H938.103C935.607 270.752 932.727 273.584 929.463 275.984C926.199 278.288 922.119 279.44 917.223 279.44C913.479 279.44 909.975 278.432 906.711 276.416C903.543 274.4 900.951 271.328 898.935 267.2C897.015 262.976 896.055 257.552 896.055 250.928C896.055 244.496 896.919 238.16 898.647 231.92C900.375 225.68 902.823 220.016 905.991 214.928C909.159 209.744 912.951 205.616 917.367 202.544C921.783 199.472 926.679 197.936 932.055 197.936C937.143 197.936 941.127 198.992 944.007 201.104C946.983 203.12 949.623 205.904 951.927 209.456H952.503L956.535 199.376H972.807L955.671 279.872C953.943 288.128 951.255 294.608 947.607 299.312C944.055 304.112 939.735 307.52 934.647 309.536C929.559 311.552 923.751 312.56 917.223 312.56ZM927.447 262.304C930.423 262.304 933.015 261.2 935.223 258.992C937.527 256.688 939.447 253.76 940.983 250.208C942.615 246.656 943.815 242.864 944.583 238.832C945.447 234.8 945.879 231.008 945.879 227.456C945.879 223.712 945.015 220.736 943.287 218.528C941.559 216.224 939.207 215.072 936.231 215.072C933.543 215.072 931.047 216.128 928.743 218.24C926.535 220.256 924.567 222.944 922.839 226.304C921.207 229.664 919.911 233.408 918.951 237.536C917.991 241.664 917.511 245.792 917.511 249.92C917.511 254.048 918.375 257.168 920.103 259.28C921.927 261.296 924.375 262.304 927.447 262.304ZM261.022 442L282.766 339.184H304.222L295.726 379.504H328.846L337.342 339.184H358.798L337.054 442H315.598L324.958 397.648H291.838L282.478 442H261.022ZM419.738 443.44C415.994 443.44 412.394 442.528 408.938 440.704C405.578 438.784 402.842 435.76 400.73 431.632C398.618 427.408 397.562 421.84 397.562 414.928C397.562 408.496 398.426 402.16 400.154 395.92C401.882 389.68 404.33 384.016 407.498 378.928C410.666 373.744 414.458 369.616 418.874 366.544C423.386 363.472 428.426 361.936 433.994 361.936C438.986 361.936 443.018 362.992 446.09 365.104C449.258 367.216 451.706 370 453.434 373.456H454.01L458.042 363.376H474.314L457.61 442H441.77L442.778 431.776H442.202C439.418 435.232 436.202 438.064 432.554 440.272C429.002 442.384 424.73 443.44 419.738 443.44ZM428.09 426.304C430.97 426.304 433.658 425.152 436.154 422.848C438.65 420.544 440.762 417.568 442.49 413.92C444.314 410.272 445.61 406.432 446.378 402.4C447.05 398.944 447.386 395.008 447.386 390.592C447.386 387.232 446.522 384.496 444.794 382.384C443.066 380.176 440.666 379.072 437.594 379.072C435.002 379.072 432.554 380.128 430.25 382.24C428.042 384.256 426.074 386.944 424.346 390.304C422.714 393.664 421.418 397.408 420.458 401.536C419.498 405.664 419.018 409.792 419.018 413.92C419.018 422.176 422.042 426.304 428.09 426.304ZM552.758 443.44C547.766 443.44 543.686 442.384 540.518 440.272C537.446 438.16 535.046 435.376 533.318 431.92H532.742L528.71 442H512.438L535.622 332.56H556.79L552.47 352.864C552.086 354.784 551.558 357.04 550.886 359.632C550.214 362.128 549.494 364.672 548.726 367.264C547.958 369.76 547.238 371.968 546.566 373.888H547.142C549.638 370.72 552.374 367.936 555.35 365.536C558.326 363.136 562.214 361.936 567.014 361.936C570.854 361.936 574.454 362.896 577.814 364.816C581.174 366.64 583.91 369.664 586.022 373.888C588.134 378.016 589.19 383.536 589.19 390.448C589.19 396.88 588.326 403.216 586.598 409.456C584.87 415.696 582.422 421.408 579.254 426.592C576.086 431.68 572.246 435.76 567.734 438.832C563.318 441.904 558.326 443.44 552.758 443.44ZM549.158 426.304C551.75 426.304 554.15 425.296 556.358 423.28C558.662 421.168 560.63 418.432 562.262 415.072C563.99 411.712 565.334 407.968 566.294 403.84C567.254 399.712 567.734 395.584 567.734 391.456C567.734 383.2 564.662 379.072 558.518 379.072C555.062 379.072 552.134 380.32 549.734 382.816C547.334 385.312 545.366 388.48 543.83 392.32C542.294 396.064 541.142 399.904 540.374 403.84C539.702 407.776 539.366 411.136 539.366 413.92C539.366 417.664 540.23 420.688 541.958 422.992C543.782 425.2 546.182 426.304 549.158 426.304ZM661.871 353.584C658.895 353.584 656.351 352.96 654.239 351.712C652.223 350.368 651.215 348.112 651.215 344.944C651.215 340.912 652.319 337.84 654.527 335.728C656.831 333.616 659.999 332.56 664.031 332.56C666.815 332.56 669.263 333.184 671.375 334.432C673.487 335.68 674.543 337.888 674.543 341.056C674.543 344.8 673.487 347.824 671.375 350.128C669.359 352.432 666.191 353.584 661.871 353.584ZM631.199 442L647.903 363.376H669.071L652.367 442H631.199ZM733.277 443.44C727.133 443.44 722.189 442.144 718.445 439.552C714.701 436.864 712.829 432.112 712.829 425.296C712.829 422.896 713.117 420.256 713.693 417.376L721.757 379.504H711.101L713.117 369.136L726.941 363.232L736.157 346.672H749.837L746.381 363.376H766.253L762.797 379.504H742.925L734.861 417.376C734.573 418.816 734.429 420.064 734.429 421.12C734.429 422.944 735.005 424.288 736.157 425.152C737.309 425.92 738.797 426.304 740.621 426.304C742.541 426.304 744.365 426.112 746.093 425.728C747.917 425.248 749.885 424.624 751.997 423.856V439.696C749.789 440.752 747.101 441.616 743.933 442.288C740.765 443.056 737.213 443.44 733.277 443.44ZM821.859 443.44C816.867 443.44 812.499 443.056 808.755 442.288C805.011 441.616 801.507 440.464 798.243 438.832V421.408C801.795 423.424 805.443 425.008 809.187 426.16C812.931 427.216 816.771 427.744 820.707 427.744C824.067 427.744 827.043 427.072 829.635 425.728C832.227 424.288 833.523 422.128 833.523 419.248C833.523 417.328 832.755 415.6 831.219 414.064C829.683 412.528 826.515 410.416 821.715 407.728C816.819 404.944 813.027 402.064 810.339 399.088C807.747 396.016 806.451 391.984 806.451 386.992C806.451 378.832 809.091 372.64 814.371 368.416C819.747 364.096 827.091 361.936 836.403 361.936C840.915 361.936 845.283 362.464 849.507 363.52C853.731 364.48 857.859 366.16 861.891 368.56L854.979 383.68C852.195 382.048 849.219 380.656 846.051 379.504C842.979 378.352 839.907 377.776 836.835 377.776C834.531 377.776 832.467 378.352 830.643 379.504C828.819 380.56 827.907 382.192 827.907 384.4C827.907 386.224 828.675 387.856 830.211 389.296C831.747 390.64 834.531 392.368 838.563 394.48C843.363 396.88 847.299 399.76 850.371 403.12C853.443 406.384 854.979 410.704 854.979 416.08C854.979 425.104 851.955 431.92 845.907 436.528C839.955 441.136 831.939 443.44 821.859 443.44Z" fill="#48A9FF"/>
</g>
<defs>
<filter id="filter0_dd" x="0.453247" y="0.559993" width="1104.98" height="450.88" filterUnits="userSpaceOnUse" color-interpolation-filters="sRGB">
<feFlood flood-opacity="0" result="BackgroundImageFix"/>
<feColorMatrix in="SourceAlpha" type="matrix" values="0 0 0 0 0 0 0 0 0 0 0 0 0 0 0 0 0 0 127 0"/>
<feOffset dx="5"/>
<feGaussianBlur stdDeviation="2"/>
<feColorMatrix type="matrix" values="0 0 0 0 1 0 0 0 0 1 0 0 0 0 1 0 0 0 1 0"/>
<feBlend mode="normal" in2="BackgroundImageFix" result="effect1_dropShadow"/>
<feColorMatrix in="SourceAlpha" type="matrix" values="0 0 0 0 0 0 0 0 0 0 0 0 0 0 0 0 0 0 127 0"/>
<feOffset dx="-2" dy="4"/>
<feGaussianBlur stdDeviation="2"/>
<feColorMatrix type="matrix" values="0 0 0 0 0 0 0 0 0 0 0 0 0 0 0 0 0 0 0.25 0"/>
<feBlend mode="normal" in2="effect1_dropShadow" result="effect2_dropShadow"/>
<feBlend mode="normal" in="SourceGraphic" in2="effect2_dropShadow" result="shape"/>
</filter>
</defs>
</svg>
