<svg width="2172" height="108" viewBox="0 0 2172 108" fill="none" xmlns="http://www.w3.org/2000/svg">
<g filter="url(#filter0_dd)">
<path d="M9.69566 41L6.71966 6.728H13.6317L14.8317 27.368C14.8957 28.36 14.9117 29.48 14.8797 30.728C14.8797 31.976 14.8477 33.064 14.7837 33.992H14.9757C15.3277 32.936 15.7117 31.848 16.1277 30.728C16.5757 29.576 17.0557 28.456 17.5677 27.368L27.6477 6.728H35.0397L17.5197 41H9.69566ZM52.8402 11.528C51.8482 11.528 51.0002 11.32 50.2962 10.904C49.6242 10.456 49.2882 9.704 49.2882 8.648C49.2882 7.304 49.6562 6.28 50.3922 5.576C51.1602 4.872 52.2162 4.52 53.5602 4.52C54.4882 4.52 55.3042 4.728 56.0082 5.144C56.7122 5.56 57.0642 6.296 57.0642 7.352C57.0642 8.6 56.7122 9.608 56.0082 10.376C55.3362 11.144 54.2802 11.528 52.8402 11.528ZM42.6162 41L48.1842 14.792H55.2402L49.6722 41H42.6162ZM79.5222 41.48C76.4502 41.48 73.9542 40.648 72.0342 38.984C70.1142 37.288 69.1542 34.744 69.1542 31.352C69.1542 29.144 69.4582 27.032 70.0662 25.016C70.7062 22.968 71.6342 21.144 72.8502 19.544C74.0982 17.944 75.6342 16.68 77.4582 15.752C79.2822 14.792 81.3942 14.312 83.7942 14.312C86.7382 14.312 88.9302 14.984 90.3702 16.328C91.8422 17.672 92.5782 19.384 92.5782 21.464C92.5782 24.216 91.3302 26.424 88.8342 28.088C86.3702 29.752 82.5942 30.584 77.5062 30.584H76.3062C76.2742 30.776 76.2582 30.952 76.2582 31.112C76.2582 31.24 76.2582 31.384 76.2582 31.544C76.2582 32.952 76.6582 34.072 77.4582 34.904C78.2902 35.736 79.4422 36.152 80.9142 36.152C82.2902 36.152 83.5382 35.992 84.6582 35.672C85.7782 35.352 87.1062 34.84 88.6422 34.136V39.464C87.2662 40.136 85.8742 40.648 84.4662 41C83.0582 41.32 81.4102 41.48 79.5222 41.48ZM78.1302 25.832C80.8502 25.832 82.8022 25.416 83.9862 24.584C85.2022 23.72 85.8102 22.728 85.8102 21.608C85.8102 20.136 84.9942 19.4 83.3622 19.4C82.4982 19.4 81.6342 19.672 80.7702 20.216C79.9062 20.76 79.1382 21.512 78.4662 22.472C77.8262 23.432 77.3622 24.552 77.0742 25.832H78.1302ZM107.991 41L106.791 14.792H113.367L113.463 26.408C113.463 27.688 113.447 28.968 113.415 30.248C113.415 31.496 113.351 32.856 113.223 34.328H113.415C113.639 33.528 113.927 32.648 114.279 31.688C114.631 30.696 114.951 29.8 115.239 29C115.559 28.2 115.783 27.656 115.911 27.368L121.335 14.792H129.015V27.368C129.015 28.456 128.999 29.56 128.967 30.68C128.967 31.8 128.903 33.016 128.775 34.328H129.015C129.239 33.592 129.511 32.728 129.831 31.736C130.183 30.744 130.535 29.768 130.887 28.808C131.239 27.816 131.543 27.016 131.799 26.408L136.935 14.792H144.135L131.703 41H123.975L123.831 28.808C123.831 28.136 123.831 27.336 123.831 26.408C123.863 25.448 123.895 24.472 123.927 23.48C123.991 22.488 124.039 21.608 124.071 20.84H123.783C123.527 21.608 123.223 22.472 122.871 23.432C122.551 24.36 122.231 25.256 121.911 26.12C121.591 26.984 121.303 27.72 121.047 28.328L115.575 41H107.991ZM184.057 41.48C182.809 41.48 181.609 41.176 180.457 40.568C179.337 39.928 178.425 38.92 177.721 37.544C177.017 36.136 176.665 34.28 176.665 31.976C176.665 29.832 176.953 27.72 177.529 25.64C178.105 23.56 178.921 21.672 179.977 19.976C181.033 18.248 182.297 16.872 183.769 15.848C185.273 14.824 186.953 14.312 188.809 14.312C190.473 14.312 191.817 14.664 192.841 15.368C193.897 16.072 194.713 17 195.289 18.152H195.481L196.825 14.792H202.249L196.681 41H191.401L191.737 37.592H191.545C190.617 38.744 189.545 39.688 188.329 40.424C187.145 41.128 185.721 41.48 184.057 41.48ZM186.841 35.768C187.801 35.768 188.697 35.384 189.529 34.616C190.361 33.848 191.065 32.856 191.641 31.64C192.249 30.424 192.681 29.144 192.937 27.8C193.161 26.648 193.273 25.336 193.273 23.864C193.273 22.744 192.985 21.832 192.409 21.128C191.833 20.392 191.033 20.024 190.009 20.024C189.145 20.024 188.329 20.376 187.561 21.08C186.825 21.752 186.169 22.648 185.593 23.768C185.049 24.888 184.617 26.136 184.297 27.512C183.977 28.888 183.817 30.264 183.817 31.64C183.817 34.392 184.825 35.768 186.841 35.768ZM225.949 41.48C224.157 41.48 222.509 41.16 221.005 40.52C219.533 39.848 218.365 38.808 217.501 37.4C216.637 35.992 216.205 34.136 216.205 31.832C216.205 29.464 216.509 27.24 217.117 25.16C217.725 23.048 218.621 21.176 219.805 19.544C220.989 17.912 222.445 16.632 224.173 15.704C225.901 14.776 227.869 14.312 230.077 14.312C231.645 14.312 233.037 14.456 234.253 14.744C235.501 15.032 236.669 15.448 237.757 15.992L235.597 21.368C234.765 21.016 233.933 20.712 233.101 20.456C232.301 20.168 231.389 20.024 230.365 20.024C228.893 20.024 227.629 20.584 226.573 21.704C225.517 22.792 224.717 24.2 224.173 25.928C223.629 27.624 223.357 29.4 223.357 31.256C223.357 32.728 223.709 33.848 224.413 34.616C225.117 35.384 226.109 35.768 227.389 35.768C228.573 35.768 229.661 35.592 230.653 35.24C231.677 34.856 232.733 34.392 233.821 33.848V39.608C232.733 40.184 231.549 40.648 230.269 41C229.021 41.32 227.581 41.48 225.949 41.48ZM260.192 41.48C258.4 41.48 256.752 41.16 255.248 40.52C253.776 39.848 252.608 38.808 251.744 37.4C250.88 35.992 250.448 34.136 250.448 31.832C250.448 29.464 250.752 27.24 251.36 25.16C251.968 23.048 252.864 21.176 254.048 19.544C255.232 17.912 256.688 16.632 258.416 15.704C260.144 14.776 262.112 14.312 264.32 14.312C265.888 14.312 267.28 14.456 268.496 14.744C269.744 15.032 270.912 15.448 272 15.992L269.84 21.368C269.008 21.016 268.176 20.712 267.344 20.456C266.544 20.168 265.632 20.024 264.608 20.024C263.136 20.024 261.872 20.584 260.816 21.704C259.76 22.792 258.96 24.2 258.416 25.928C257.872 27.624 257.6 29.4 257.6 31.256C257.6 32.728 257.952 33.848 258.656 34.616C259.36 35.384 260.352 35.768 261.632 35.768C262.816 35.768 263.904 35.592 264.896 35.24C265.92 34.856 266.976 34.392 268.064 33.848V39.608C266.976 40.184 265.792 40.648 264.512 41C263.264 41.32 261.824 41.48 260.192 41.48ZM294.723 41.48C292.771 41.48 291.027 41.08 289.491 40.28C287.987 39.448 286.803 38.28 285.939 36.776C285.107 35.272 284.691 33.48 284.691 31.4C284.691 29.096 284.979 26.92 285.555 24.872C286.131 22.792 286.995 20.968 288.147 19.4C289.299 17.8 290.739 16.552 292.467 15.656C294.227 14.76 296.275 14.312 298.611 14.312C301.651 14.312 304.067 15.224 305.859 17.048C307.651 18.872 308.547 21.416 308.547 24.68C308.547 26.888 308.275 29 307.731 31.016C307.187 33.032 306.339 34.824 305.187 36.392C304.067 37.96 302.627 39.208 300.867 40.136C299.139 41.032 297.091 41.48 294.723 41.48ZM295.299 35.72C296.611 35.72 297.715 35.192 298.611 34.136C299.539 33.08 300.243 31.72 300.723 30.056C301.203 28.36 301.443 26.568 301.443 24.68C301.443 23.368 301.187 22.28 300.675 21.416C300.195 20.52 299.331 20.072 298.083 20.072C297.027 20.072 296.099 20.44 295.299 21.176C294.499 21.88 293.843 22.808 293.331 23.96C292.819 25.112 292.435 26.344 292.179 27.656C291.923 28.968 291.795 30.216 291.795 31.4C291.795 34.28 292.963 35.72 295.299 35.72ZM330.961 41.48C328.721 41.48 327.041 40.808 325.921 39.464C324.833 38.088 324.289 36.248 324.289 33.944C324.289 33.368 324.337 32.632 324.433 31.736C324.529 30.808 324.673 29.88 324.865 28.952L327.841 14.792H334.897L331.681 30.104C331.425 31.224 331.297 32.152 331.297 32.888C331.297 34.808 332.145 35.768 333.841 35.768C334.929 35.768 335.889 35.32 336.721 34.424C337.585 33.496 338.337 32.264 338.977 30.728C339.617 29.192 340.129 27.496 340.513 25.64L342.817 14.792H349.873L344.305 41H338.929L339.409 36.152H339.169C338.177 37.72 337.009 39 335.665 39.992C334.353 40.984 332.785 41.48 330.961 41.48ZM362.57 41L368.138 14.792H373.514L373.034 19.64H373.226C374.25 18.072 375.418 16.792 376.73 15.8C378.074 14.808 379.658 14.312 381.482 14.312C383.754 14.312 385.45 15 386.57 16.376C387.69 17.72 388.25 19.544 388.25 21.848C388.25 23 388.074 24.408 387.722 26.072L384.602 41H377.546L380.762 25.688C381.018 24.568 381.146 23.64 381.146 22.904C381.146 20.984 380.298 20.024 378.602 20.024C377.546 20.024 376.586 20.488 375.722 21.416C374.858 22.312 374.106 23.528 373.466 25.064C372.858 26.6 372.346 28.296 371.93 30.152L369.626 41H362.57ZM411.315 41.48C409.267 41.48 407.619 41.048 406.371 40.184C405.123 39.288 404.499 37.704 404.499 35.432C404.499 34.632 404.595 33.752 404.787 32.792L407.475 20.168H403.923L404.595 16.712L409.203 14.744L412.275 9.224H416.835L415.683 14.792H422.307L421.155 20.168H414.531L411.843 32.792C411.747 33.272 411.699 33.688 411.699 34.04C411.699 34.648 411.891 35.096 412.275 35.384C412.659 35.64 413.155 35.768 413.763 35.768C414.403 35.768 415.011 35.704 415.587 35.576C416.195 35.416 416.851 35.208 417.555 34.952V40.232C416.819 40.584 415.923 40.872 414.867 41.096C413.811 41.352 412.627 41.48 411.315 41.48ZM468.567 41.48C466.903 41.48 465.543 41.128 464.487 40.424C463.463 39.72 462.663 38.792 462.087 37.64H461.895L460.551 41H455.127L462.855 4.52H469.911L468.471 11.288C468.343 11.928 468.167 12.68 467.943 13.544C467.719 14.376 467.479 15.224 467.223 16.088C466.967 16.92 466.727 17.656 466.503 18.296H466.695C467.527 17.24 468.439 16.312 469.431 15.512C470.423 14.712 471.719 14.312 473.319 14.312C474.599 14.312 475.799 14.632 476.919 15.272C478.039 15.88 478.951 16.888 479.655 18.296C480.359 19.672 480.711 21.512 480.711 23.816C480.711 25.96 480.423 28.072 479.847 30.152C479.271 32.232 478.455 34.136 477.399 35.864C476.343 37.56 475.063 38.92 473.559 39.944C472.087 40.968 470.423 41.48 468.567 41.48ZM467.367 35.768C468.231 35.768 469.031 35.432 469.767 34.76C470.535 34.056 471.191 33.144 471.735 32.024C472.311 30.904 472.759 29.656 473.079 28.28C473.399 26.904 473.559 25.528 473.559 24.152C473.559 21.4 472.535 20.024 470.487 20.024C469.335 20.024 468.359 20.44 467.559 21.272C466.759 22.104 466.103 23.16 465.591 24.44C465.079 25.688 464.695 26.968 464.439 28.28C464.215 29.592 464.103 30.712 464.103 31.64C464.103 32.888 464.391 33.896 464.967 34.664C465.575 35.4 466.375 35.768 467.367 35.768ZM503.354 41.48C502.106 41.48 500.906 41.176 499.754 40.568C498.634 39.928 497.722 38.92 497.018 37.544C496.314 36.136 495.962 34.28 495.962 31.976C495.962 29.832 496.25 27.72 496.826 25.64C497.402 23.56 498.218 21.672 499.274 19.976C500.33 18.248 501.594 16.872 503.066 15.848C504.57 14.824 506.25 14.312 508.106 14.312C509.77 14.312 511.114 14.664 512.138 15.368C513.194 16.072 514.01 17 514.586 18.152H514.778L516.122 14.792H521.546L515.978 41H510.698L511.034 37.592H510.842C509.914 38.744 508.842 39.688 507.626 40.424C506.442 41.128 505.018 41.48 503.354 41.48ZM506.138 35.768C507.098 35.768 507.994 35.384 508.826 34.616C509.658 33.848 510.362 32.856 510.938 31.64C511.546 30.424 511.978 29.144 512.234 27.8C512.458 26.648 512.57 25.336 512.57 23.864C512.57 22.744 512.282 21.832 511.706 21.128C511.13 20.392 510.33 20.024 509.306 20.024C508.442 20.024 507.626 20.376 506.858 21.08C506.122 21.752 505.466 22.648 504.89 23.768C504.346 24.888 503.914 26.136 503.594 27.512C503.274 28.888 503.114 30.264 503.114 31.64C503.114 34.392 504.122 35.768 506.138 35.768ZM534.254 41L541.982 4.52H549.038L541.31 41H534.254ZM568.184 41.48C566.936 41.48 565.736 41.176 564.584 40.568C563.464 39.928 562.552 38.92 561.848 37.544C561.144 36.136 560.792 34.28 560.792 31.976C560.792 29.832 561.08 27.72 561.656 25.64C562.232 23.56 563.048 21.672 564.104 19.976C565.16 18.248 566.424 16.872 567.896 15.848C569.4 14.824 571.08 14.312 572.936 14.312C574.6 14.312 575.944 14.664 576.968 15.368C578.024 16.072 578.84 17 579.416 18.152H579.608L580.952 14.792H586.376L580.808 41H575.528L575.864 37.592H575.672C574.744 38.744 573.672 39.688 572.456 40.424C571.272 41.128 569.848 41.48 568.184 41.48ZM570.968 35.768C571.928 35.768 572.824 35.384 573.656 34.616C574.488 33.848 575.192 32.856 575.768 31.64C576.376 30.424 576.808 29.144 577.064 27.8C577.288 26.648 577.4 25.336 577.4 23.864C577.4 22.744 577.112 21.832 576.536 21.128C575.96 20.392 575.16 20.024 574.136 20.024C573.272 20.024 572.456 20.376 571.688 21.08C570.952 21.752 570.296 22.648 569.72 23.768C569.176 24.888 568.744 26.136 568.424 27.512C568.104 28.888 567.944 30.264 567.944 31.64C567.944 34.392 568.952 35.768 570.968 35.768ZM599.084 41L604.652 14.792H610.028L609.548 19.64H609.74C610.764 18.072 611.932 16.792 613.244 15.8C614.588 14.808 616.172 14.312 617.996 14.312C620.268 14.312 621.964 15 623.084 16.376C624.204 17.72 624.764 19.544 624.764 21.848C624.764 23 624.588 24.408 624.236 26.072L621.116 41H614.06L617.276 25.688C617.532 24.568 617.66 23.64 617.66 22.904C617.66 20.984 616.812 20.024 615.116 20.024C614.06 20.024 613.1 20.488 612.236 21.416C611.372 22.312 610.62 23.528 609.98 25.064C609.372 26.6 608.86 28.296 608.444 30.152L606.14 41H599.084ZM650.085 41.48C648.293 41.48 646.645 41.16 645.141 40.52C643.669 39.848 642.501 38.808 641.637 37.4C640.773 35.992 640.341 34.136 640.341 31.832C640.341 29.464 640.645 27.24 641.253 25.16C641.861 23.048 642.757 21.176 643.941 19.544C645.125 17.912 646.581 16.632 648.309 15.704C650.037 14.776 652.005 14.312 654.213 14.312C655.781 14.312 657.173 14.456 658.389 14.744C659.637 15.032 660.805 15.448 661.893 15.992L659.733 21.368C658.901 21.016 658.069 20.712 657.237 20.456C656.437 20.168 655.525 20.024 654.501 20.024C653.029 20.024 651.765 20.584 650.709 21.704C649.653 22.792 648.853 24.2 648.309 25.928C647.765 27.624 647.493 29.4 647.493 31.256C647.493 32.728 647.845 33.848 648.549 34.616C649.253 35.384 650.245 35.768 651.525 35.768C652.709 35.768 653.797 35.592 654.789 35.24C655.813 34.856 656.869 34.392 657.957 33.848V39.608C656.869 40.184 655.685 40.648 654.405 41C653.157 41.32 651.717 41.48 650.085 41.48ZM684.952 41.48C681.88 41.48 679.384 40.648 677.464 38.984C675.544 37.288 674.584 34.744 674.584 31.352C674.584 29.144 674.888 27.032 675.496 25.016C676.136 22.968 677.064 21.144 678.28 19.544C679.528 17.944 681.064 16.68 682.888 15.752C684.712 14.792 686.824 14.312 689.224 14.312C692.168 14.312 694.36 14.984 695.8 16.328C697.272 17.672 698.008 19.384 698.008 21.464C698.008 24.216 696.76 26.424 694.264 28.088C691.8 29.752 688.024 30.584 682.936 30.584H681.736C681.704 30.776 681.688 30.952 681.688 31.112C681.688 31.24 681.688 31.384 681.688 31.544C681.688 32.952 682.088 34.072 682.888 34.904C683.72 35.736 684.872 36.152 686.344 36.152C687.72 36.152 688.968 35.992 690.088 35.672C691.208 35.352 692.536 34.84 694.072 34.136V39.464C692.696 40.136 691.304 40.648 689.896 41C688.488 41.32 686.84 41.48 684.952 41.48ZM683.56 25.832C686.28 25.832 688.232 25.416 689.416 24.584C690.632 23.72 691.24 22.728 691.24 21.608C691.24 20.136 690.424 19.4 688.792 19.4C687.928 19.4 687.064 19.672 686.2 20.216C685.336 20.76 684.568 21.512 683.896 22.472C683.256 23.432 682.792 24.552 682.504 25.832H683.56ZM718.631 41.48C716.967 41.48 715.511 41.352 714.263 41.096C713.015 40.872 711.847 40.488 710.759 39.944V34.136C711.943 34.808 713.159 35.336 714.407 35.72C715.655 36.072 716.935 36.248 718.247 36.248C719.367 36.248 720.359 36.024 721.223 35.576C722.087 35.096 722.519 34.376 722.519 33.416C722.519 32.776 722.263 32.2 721.751 31.688C721.239 31.176 720.183 30.472 718.583 29.576C716.951 28.648 715.687 27.688 714.791 26.696C713.927 25.672 713.495 24.328 713.495 22.664C713.495 19.944 714.375 17.88 716.135 16.472C717.927 15.032 720.375 14.312 723.479 14.312C724.983 14.312 726.439 14.488 727.847 14.84C729.255 15.16 730.631 15.72 731.975 16.52L729.671 21.56C728.743 21.016 727.751 20.552 726.695 20.168C725.671 19.784 724.647 19.592 723.623 19.592C722.855 19.592 722.167 19.784 721.559 20.168C720.951 20.52 720.647 21.064 720.647 21.8C720.647 22.408 720.903 22.952 721.415 23.432C721.927 23.88 722.855 24.456 724.199 25.16C725.799 25.96 727.111 26.92 728.135 28.04C729.159 29.128 729.671 30.568 729.671 32.36C729.671 35.368 728.663 37.64 726.647 39.176C724.663 40.712 721.991 41.48 718.631 41.48ZM751.062 34.376C752.278 34.376 753.19 34.888 753.798 35.912C754.438 36.904 754.678 38.136 754.518 39.608C754.454 40.344 754.278 41.096 753.99 41.864C753.702 42.632 753.318 43.368 752.838 44.072C752.358 44.808 751.782 45.496 751.11 46.136C750.47 46.776 749.766 47.304 748.998 47.72L745.638 45.56C746.598 45.016 747.462 44.392 748.23 43.688C748.998 42.984 749.558 42.168 749.91 41.24C749.11 41.08 748.454 40.712 747.942 40.136C747.462 39.56 747.27 38.808 747.366 37.88C747.462 36.888 747.862 36.056 748.566 35.384C749.27 34.712 750.102 34.376 751.062 34.376ZM790.199 41L795.767 14.792H801.143L800.663 19.64H800.903C801.959 17.976 803.159 16.68 804.503 15.752C805.847 14.792 807.367 14.312 809.063 14.312C809.447 14.312 809.847 14.344 810.263 14.408C810.711 14.44 811.063 14.488 811.319 14.552L809.783 21.368C809.527 21.272 809.191 21.192 808.775 21.128C808.359 21.032 807.911 20.984 807.431 20.984C805.671 20.984 804.087 21.688 802.679 23.096C801.303 24.472 800.327 26.536 799.751 29.288L797.255 41H790.199ZM832.121 41.48C829.049 41.48 826.553 40.648 824.633 38.984C822.713 37.288 821.753 34.744 821.753 31.352C821.753 29.144 822.057 27.032 822.665 25.016C823.305 22.968 824.233 21.144 825.449 19.544C826.697 17.944 828.233 16.68 830.057 15.752C831.881 14.792 833.993 14.312 836.393 14.312C839.337 14.312 841.529 14.984 842.969 16.328C844.441 17.672 845.177 19.384 845.177 21.464C845.177 24.216 843.929 26.424 841.433 28.088C838.969 29.752 835.193 30.584 830.105 30.584H828.905C828.873 30.776 828.857 30.952 828.857 31.112C828.857 31.24 828.857 31.384 828.857 31.544C828.857 32.952 829.257 34.072 830.057 34.904C830.889 35.736 832.041 36.152 833.513 36.152C834.889 36.152 836.137 35.992 837.257 35.672C838.377 35.352 839.705 34.84 841.241 34.136V39.464C839.865 40.136 838.473 40.648 837.065 41C835.657 41.32 834.009 41.48 832.121 41.48ZM830.729 25.832C833.449 25.832 835.401 25.416 836.585 24.584C837.801 23.72 838.409 22.728 838.409 21.608C838.409 20.136 837.593 19.4 835.961 19.4C835.097 19.4 834.233 19.672 833.369 20.216C832.505 20.76 831.737 21.512 831.065 22.472C830.425 23.432 829.961 24.552 829.673 25.832H830.729ZM869.256 41.48C867.464 41.48 865.816 41.16 864.312 40.52C862.84 39.848 861.672 38.808 860.808 37.4C859.944 35.992 859.512 34.136 859.512 31.832C859.512 29.464 859.816 27.24 860.424 25.16C861.032 23.048 861.928 21.176 863.112 19.544C864.296 17.912 865.752 16.632 867.48 15.704C869.208 14.776 871.176 14.312 873.384 14.312C874.952 14.312 876.344 14.456 877.56 14.744C878.808 15.032 879.976 15.448 881.064 15.992L878.904 21.368C878.072 21.016 877.24 20.712 876.408 20.456C875.608 20.168 874.696 20.024 873.672 20.024C872.2 20.024 870.936 20.584 869.88 21.704C868.824 22.792 868.024 24.2 867.48 25.928C866.936 27.624 866.664 29.4 866.664 31.256C866.664 32.728 867.016 33.848 867.72 34.616C868.424 35.384 869.416 35.768 870.696 35.768C871.88 35.768 872.968 35.592 873.96 35.24C874.984 34.856 876.04 34.392 877.128 33.848V39.608C876.04 40.184 874.856 40.648 873.576 41C872.328 41.32 870.888 41.48 869.256 41.48ZM904.123 41.48C901.051 41.48 898.555 40.648 896.635 38.984C894.715 37.288 893.755 34.744 893.755 31.352C893.755 29.144 894.059 27.032 894.667 25.016C895.307 22.968 896.235 21.144 897.451 19.544C898.699 17.944 900.235 16.68 902.059 15.752C903.883 14.792 905.995 14.312 908.395 14.312C911.339 14.312 913.531 14.984 914.971 16.328C916.443 17.672 917.179 19.384 917.179 21.464C917.179 24.216 915.931 26.424 913.435 28.088C910.971 29.752 907.195 30.584 902.107 30.584H900.907C900.875 30.776 900.859 30.952 900.859 31.112C900.859 31.24 900.859 31.384 900.859 31.544C900.859 32.952 901.259 34.072 902.059 34.904C902.891 35.736 904.043 36.152 905.515 36.152C906.891 36.152 908.139 35.992 909.259 35.672C910.379 35.352 911.707 34.84 913.243 34.136V39.464C911.867 40.136 910.475 40.648 909.067 41C907.659 41.32 906.011 41.48 904.123 41.48ZM902.731 25.832C905.451 25.832 907.403 25.416 908.587 24.584C909.803 23.72 910.411 22.728 910.411 21.608C910.411 20.136 909.595 19.4 907.963 19.4C907.099 19.4 906.235 19.672 905.371 20.216C904.507 20.76 903.739 21.512 903.067 22.472C902.427 23.432 901.963 24.552 901.675 25.832H902.731ZM930.266 41L935.834 14.792H941.21L940.73 19.64H940.922C941.946 18.072 943.114 16.792 944.426 15.8C945.77 14.808 947.354 14.312 949.178 14.312C951.45 14.312 953.146 15 954.266 16.376C955.386 17.72 955.946 19.544 955.946 21.848C955.946 23 955.77 24.408 955.418 26.072L952.298 41H945.242L948.458 25.688C948.714 24.568 948.842 23.64 948.842 22.904C948.842 20.984 947.994 20.024 946.298 20.024C945.242 20.024 944.282 20.488 943.418 21.416C942.554 22.312 941.802 23.528 941.162 25.064C940.554 26.6 940.042 28.296 939.626 30.152L937.322 41H930.266ZM979.01 41.48C976.962 41.48 975.314 41.048 974.066 40.184C972.818 39.288 972.194 37.704 972.194 35.432C972.194 34.632 972.29 33.752 972.482 32.792L975.17 20.168H971.618L972.29 16.712L976.898 14.744L979.97 9.224H984.53L983.378 14.792H990.002L988.85 20.168H982.226L979.538 32.792C979.442 33.272 979.394 33.688 979.394 34.04C979.394 34.648 979.586 35.096 979.97 35.384C980.354 35.64 980.85 35.768 981.458 35.768C982.098 35.768 982.706 35.704 983.282 35.576C983.89 35.416 984.546 35.208 985.25 34.952V40.232C984.514 40.584 983.618 40.872 982.562 41.096C981.506 41.352 980.322 41.48 979.01 41.48ZM1031.56 41.48C1029.51 41.48 1027.86 41.048 1026.62 40.184C1025.37 39.288 1024.74 37.704 1024.74 35.432C1024.74 34.632 1024.84 33.752 1025.03 32.792L1027.72 20.168H1024.17L1024.84 16.712L1029.45 14.744L1032.52 9.224H1037.08L1035.93 14.792H1042.55L1041.4 20.168H1034.78L1032.09 32.792C1031.99 33.272 1031.94 33.688 1031.94 34.04C1031.94 34.648 1032.14 35.096 1032.52 35.384C1032.9 35.64 1033.4 35.768 1034.01 35.768C1034.65 35.768 1035.26 35.704 1035.83 35.576C1036.44 35.416 1037.1 35.208 1037.8 34.952V40.232C1037.06 40.584 1036.17 40.872 1035.11 41.096C1034.06 41.352 1032.87 41.48 1031.56 41.48ZM1053.55 41L1059.12 14.792H1064.49L1064.01 19.64H1064.25C1065.31 17.976 1066.51 16.68 1067.85 15.752C1069.2 14.792 1070.72 14.312 1072.41 14.312C1072.8 14.312 1073.2 14.344 1073.61 14.408C1074.06 14.44 1074.41 14.488 1074.67 14.552L1073.13 21.368C1072.88 21.272 1072.54 21.192 1072.13 21.128C1071.71 21.032 1071.26 20.984 1070.78 20.984C1069.02 20.984 1067.44 21.688 1066.03 23.096C1064.65 24.472 1063.68 26.536 1063.1 29.288L1060.61 41H1053.55ZM1092.5 41.48C1091.25 41.48 1090.05 41.176 1088.9 40.568C1087.78 39.928 1086.86 38.92 1086.16 37.544C1085.46 36.136 1085.1 34.28 1085.1 31.976C1085.1 29.832 1085.39 27.72 1085.97 25.64C1086.54 23.56 1087.36 21.672 1088.42 19.976C1089.47 18.248 1090.74 16.872 1092.21 15.848C1093.71 14.824 1095.39 14.312 1097.25 14.312C1098.91 14.312 1100.26 14.664 1101.28 15.368C1102.34 16.072 1103.15 17 1103.73 18.152H1103.92L1105.26 14.792H1110.69L1105.12 41H1099.84L1100.18 37.592H1099.98C1099.06 38.744 1097.98 39.688 1096.77 40.424C1095.58 41.128 1094.16 41.48 1092.5 41.48ZM1095.28 35.768C1096.24 35.768 1097.14 35.384 1097.97 34.616C1098.8 33.848 1099.5 32.856 1100.08 31.64C1100.69 30.424 1101.12 29.144 1101.38 27.8C1101.6 26.648 1101.71 25.336 1101.71 23.864C1101.71 22.744 1101.42 21.832 1100.85 21.128C1100.27 20.392 1099.47 20.024 1098.45 20.024C1097.58 20.024 1096.77 20.376 1096 21.08C1095.26 21.752 1094.61 22.648 1094.03 23.768C1093.49 24.888 1093.06 26.136 1092.74 27.512C1092.42 28.888 1092.26 30.264 1092.26 31.64C1092.26 34.392 1093.26 35.768 1095.28 35.768ZM1123.4 41L1128.96 14.792H1134.34L1133.86 19.64H1134.05C1135.08 18.072 1136.24 16.792 1137.56 15.8C1138.9 14.808 1140.48 14.312 1142.31 14.312C1144.58 14.312 1146.28 15 1147.4 16.376C1148.52 17.72 1149.08 19.544 1149.08 21.848C1149.08 23 1148.9 24.408 1148.55 26.072L1145.43 41H1138.37L1141.59 25.688C1141.84 24.568 1141.97 23.64 1141.97 22.904C1141.97 20.984 1141.12 20.024 1139.43 20.024C1138.37 20.024 1137.41 20.488 1136.55 21.416C1135.68 22.312 1134.93 23.528 1134.29 25.064C1133.68 26.6 1133.17 28.296 1132.76 30.152L1130.45 41H1123.4ZM1170.94 41.48C1169.28 41.48 1167.82 41.352 1166.57 41.096C1165.32 40.872 1164.16 40.488 1163.07 39.944V34.136C1164.25 34.808 1165.47 35.336 1166.72 35.72C1167.96 36.072 1169.24 36.248 1170.56 36.248C1171.68 36.248 1172.67 36.024 1173.53 35.576C1174.4 35.096 1174.83 34.376 1174.83 33.416C1174.83 32.776 1174.57 32.2 1174.06 31.688C1173.55 31.176 1172.49 30.472 1170.89 29.576C1169.26 28.648 1168 27.688 1167.1 26.696C1166.24 25.672 1165.8 24.328 1165.8 22.664C1165.8 19.944 1166.68 17.88 1168.44 16.472C1170.24 15.032 1172.68 14.312 1175.79 14.312C1177.29 14.312 1178.75 14.488 1180.16 14.84C1181.56 15.16 1182.94 15.72 1184.28 16.52L1181.98 21.56C1181.05 21.016 1180.06 20.552 1179 20.168C1177.98 19.784 1176.96 19.592 1175.93 19.592C1175.16 19.592 1174.48 19.784 1173.87 20.168C1173.26 20.52 1172.96 21.064 1172.96 21.8C1172.96 22.408 1173.21 22.952 1173.72 23.432C1174.24 23.88 1175.16 24.456 1176.51 25.16C1178.11 25.96 1179.42 26.92 1180.44 28.04C1181.47 29.128 1181.98 30.568 1181.98 32.36C1181.98 35.368 1180.97 37.64 1178.96 39.176C1176.97 40.712 1174.3 41.48 1170.94 41.48ZM1208.12 41.48C1206.33 41.48 1204.68 41.16 1203.18 40.52C1201.71 39.848 1200.54 38.808 1199.68 37.4C1198.81 35.992 1198.38 34.136 1198.38 31.832C1198.38 29.464 1198.68 27.24 1199.29 25.16C1199.9 23.048 1200.8 21.176 1201.98 19.544C1203.16 17.912 1204.62 16.632 1206.35 15.704C1208.08 14.776 1210.04 14.312 1212.25 14.312C1213.82 14.312 1215.21 14.456 1216.43 14.744C1217.68 15.032 1218.84 15.448 1219.93 15.992L1217.77 21.368C1216.94 21.016 1216.11 20.712 1215.28 20.456C1214.48 20.168 1213.56 20.024 1212.54 20.024C1211.07 20.024 1209.8 20.584 1208.75 21.704C1207.69 22.792 1206.89 24.2 1206.35 25.928C1205.8 27.624 1205.53 29.4 1205.53 31.256C1205.53 32.728 1205.88 33.848 1206.59 34.616C1207.29 35.384 1208.28 35.768 1209.56 35.768C1210.75 35.768 1211.84 35.592 1212.83 35.24C1213.85 34.856 1214.91 34.392 1216 33.848V39.608C1214.91 40.184 1213.72 40.648 1212.44 41C1211.2 41.32 1209.76 41.48 1208.12 41.48ZM1240.11 41.48C1238.06 41.48 1236.42 41.048 1235.17 40.184C1233.92 39.288 1233.3 37.704 1233.3 35.432C1233.3 34.632 1233.39 33.752 1233.58 32.792L1236.27 20.168H1232.72L1233.39 16.712L1238 14.744L1241.07 9.224H1245.63L1244.48 14.792H1251.1L1249.95 20.168H1243.33L1240.64 32.792C1240.54 33.272 1240.5 33.688 1240.5 34.04C1240.5 34.648 1240.69 35.096 1241.07 35.384C1241.46 35.64 1241.95 35.768 1242.56 35.768C1243.2 35.768 1243.81 35.704 1244.38 35.576C1244.99 35.416 1245.65 35.208 1246.35 34.952V40.232C1245.62 40.584 1244.72 40.872 1243.66 41.096C1242.61 41.352 1241.42 41.48 1240.11 41.48ZM1272.33 11.528C1271.34 11.528 1270.49 11.32 1269.78 10.904C1269.11 10.456 1268.78 9.704 1268.78 8.648C1268.78 7.304 1269.14 6.28 1269.88 5.576C1270.65 4.872 1271.7 4.52 1273.05 4.52C1273.98 4.52 1274.79 4.728 1275.5 5.144C1276.2 5.56 1276.55 6.296 1276.55 7.352C1276.55 8.6 1276.2 9.608 1275.5 10.376C1274.82 11.144 1273.77 11.528 1272.33 11.528ZM1262.1 41L1267.67 14.792H1274.73L1269.16 41H1262.1ZM1298.67 41.48C1296.72 41.48 1294.98 41.08 1293.44 40.28C1291.94 39.448 1290.75 38.28 1289.89 36.776C1289.06 35.272 1288.64 33.48 1288.64 31.4C1288.64 29.096 1288.93 26.92 1289.51 24.872C1290.08 22.792 1290.95 20.968 1292.1 19.4C1293.25 17.8 1294.69 16.552 1296.42 15.656C1298.18 14.76 1300.23 14.312 1302.56 14.312C1305.6 14.312 1308.02 15.224 1309.81 17.048C1311.6 18.872 1312.5 21.416 1312.5 24.68C1312.5 26.888 1312.23 29 1311.68 31.016C1311.14 33.032 1310.29 34.824 1309.14 36.392C1308.02 37.96 1306.58 39.208 1304.82 40.136C1303.09 41.032 1301.04 41.48 1298.67 41.48ZM1299.25 35.72C1300.56 35.72 1301.67 35.192 1302.56 34.136C1303.49 33.08 1304.19 31.72 1304.67 30.056C1305.15 28.36 1305.39 26.568 1305.39 24.68C1305.39 23.368 1305.14 22.28 1304.63 21.416C1304.15 20.52 1303.28 20.072 1302.03 20.072C1300.98 20.072 1300.05 20.44 1299.25 21.176C1298.45 21.88 1297.79 22.808 1297.28 23.96C1296.77 25.112 1296.39 26.344 1296.13 27.656C1295.87 28.968 1295.75 30.216 1295.75 31.4C1295.75 34.28 1296.91 35.72 1299.25 35.72ZM1326.51 41L1332.08 14.792H1337.46L1336.98 19.64H1337.17C1338.19 18.072 1339.36 16.792 1340.67 15.8C1342.02 14.808 1343.6 14.312 1345.42 14.312C1347.7 14.312 1349.39 15 1350.51 16.376C1351.63 17.72 1352.19 19.544 1352.19 21.848C1352.19 23 1352.02 24.408 1351.66 26.072L1348.54 41H1341.49L1344.7 25.688C1344.96 24.568 1345.09 23.64 1345.09 22.904C1345.09 20.984 1344.24 20.024 1342.54 20.024C1341.49 20.024 1340.53 20.488 1339.66 21.416C1338.8 22.312 1338.05 23.528 1337.41 25.064C1336.8 26.6 1336.29 28.296 1335.87 30.152L1333.57 41H1326.51ZM1374.06 41.48C1372.39 41.48 1370.94 41.352 1369.69 41.096C1368.44 40.872 1367.27 40.488 1366.18 39.944V34.136C1367.37 34.808 1368.58 35.336 1369.83 35.72C1371.08 36.072 1372.36 36.248 1373.67 36.248C1374.79 36.248 1375.78 36.024 1376.65 35.576C1377.51 35.096 1377.94 34.376 1377.94 33.416C1377.94 32.776 1377.69 32.2 1377.18 31.688C1376.66 31.176 1375.61 30.472 1374.01 29.576C1372.38 28.648 1371.11 27.688 1370.22 26.696C1369.35 25.672 1368.92 24.328 1368.92 22.664C1368.92 19.944 1369.8 17.88 1371.56 16.472C1373.35 15.032 1375.8 14.312 1378.9 14.312C1380.41 14.312 1381.86 14.488 1383.27 14.84C1384.68 15.16 1386.06 15.72 1387.4 16.52L1385.1 21.56C1384.17 21.016 1383.18 20.552 1382.12 20.168C1381.1 19.784 1380.07 19.592 1379.05 19.592C1378.28 19.592 1377.59 19.784 1376.98 20.168C1376.38 20.52 1376.07 21.064 1376.07 21.8C1376.07 22.408 1376.33 22.952 1376.84 23.432C1377.35 23.88 1378.28 24.456 1379.62 25.16C1381.22 25.96 1382.54 26.92 1383.56 28.04C1384.58 29.128 1385.1 30.568 1385.1 32.36C1385.1 35.368 1384.09 37.64 1382.07 39.176C1380.09 40.712 1377.42 41.48 1374.06 41.48ZM1406.49 34.376C1407.7 34.376 1408.62 34.888 1409.22 35.912C1409.86 36.904 1410.1 38.136 1409.94 39.608C1409.88 40.344 1409.7 41.096 1409.42 41.864C1409.13 42.632 1408.74 43.368 1408.26 44.072C1407.78 44.808 1407.21 45.496 1406.54 46.136C1405.9 46.776 1405.19 47.304 1404.42 47.72L1401.06 45.56C1402.02 45.016 1402.89 44.392 1403.66 43.688C1404.42 42.984 1404.98 42.168 1405.34 41.24C1404.54 41.08 1403.88 40.712 1403.37 40.136C1402.89 39.56 1402.7 38.808 1402.79 37.88C1402.89 36.888 1403.29 36.056 1403.99 35.384C1404.7 34.712 1405.53 34.376 1406.49 34.376ZM1454.26 41.48C1453.02 41.48 1451.82 41.176 1450.66 40.568C1449.54 39.928 1448.63 38.92 1447.93 37.544C1447.22 36.136 1446.87 34.28 1446.87 31.976C1446.87 29.832 1447.16 27.72 1447.74 25.64C1448.31 23.56 1449.13 21.672 1450.18 19.976C1451.24 18.248 1452.5 16.872 1453.98 15.848C1455.48 14.824 1457.16 14.312 1459.02 14.312C1460.68 14.312 1462.02 14.664 1463.05 15.368C1464.1 16.072 1464.92 17 1465.5 18.152H1465.69L1467.03 14.792H1472.46L1466.89 41H1461.61L1461.94 37.592H1461.75C1460.82 38.744 1459.75 39.688 1458.54 40.424C1457.35 41.128 1455.93 41.48 1454.26 41.48ZM1457.05 35.768C1458.01 35.768 1458.9 35.384 1459.74 34.616C1460.57 33.848 1461.27 32.856 1461.85 31.64C1462.46 30.424 1462.89 29.144 1463.14 27.8C1463.37 26.648 1463.48 25.336 1463.48 23.864C1463.48 22.744 1463.19 21.832 1462.62 21.128C1462.04 20.392 1461.24 20.024 1460.22 20.024C1459.35 20.024 1458.54 20.376 1457.77 21.08C1457.03 21.752 1456.38 22.648 1455.8 23.768C1455.26 24.888 1454.82 26.136 1454.5 27.512C1454.18 28.888 1454.02 30.264 1454.02 31.64C1454.02 34.392 1455.03 35.768 1457.05 35.768ZM1485.16 41L1490.73 14.792H1496.11L1495.63 19.64H1495.82C1496.84 18.072 1498.01 16.792 1499.32 15.8C1500.67 14.808 1502.25 14.312 1504.08 14.312C1506.35 14.312 1508.04 15 1509.16 16.376C1510.28 17.72 1510.84 19.544 1510.84 21.848C1510.84 23 1510.67 24.408 1510.32 26.072L1507.2 41H1500.14L1503.36 25.688C1503.61 24.568 1503.74 23.64 1503.74 22.904C1503.74 20.984 1502.89 20.024 1501.2 20.024C1500.14 20.024 1499.18 20.488 1498.32 21.416C1497.45 22.312 1496.7 23.528 1496.06 25.064C1495.45 26.6 1494.94 28.296 1494.52 30.152L1492.22 41H1485.16ZM1533.81 41.48C1532.57 41.48 1531.37 41.176 1530.21 40.568C1529.09 39.928 1528.18 38.92 1527.48 37.544C1526.77 36.136 1526.42 34.264 1526.42 31.928C1526.42 29.816 1526.71 27.72 1527.29 25.64C1527.86 23.528 1528.68 21.624 1529.73 19.928C1530.79 18.232 1532.05 16.872 1533.53 15.848C1535.03 14.824 1536.71 14.312 1538.57 14.312C1540.13 14.312 1541.37 14.68 1542.26 15.416C1543.16 16.152 1543.91 17.064 1544.52 18.152H1544.71C1544.71 18.056 1544.73 17.72 1544.76 17.144C1544.82 16.536 1544.9 15.848 1545 15.08C1545.09 14.28 1545.21 13.56 1545.33 12.92L1547.11 4.52H1554.17L1546.44 41H1541.06L1541.49 37.592H1541.3C1540.37 38.744 1539.32 39.688 1538.13 40.424C1536.95 41.128 1535.51 41.48 1533.81 41.48ZM1536.79 35.768C1537.91 35.768 1538.85 35.352 1539.62 34.52C1540.42 33.656 1541.06 32.6 1541.54 31.352C1542.05 30.072 1542.42 28.792 1542.65 27.512C1542.9 26.2 1543.03 25.08 1543.03 24.152C1543.03 22.904 1542.74 21.912 1542.17 21.176C1541.59 20.408 1540.79 20.024 1539.77 20.024C1538.9 20.024 1538.09 20.376 1537.32 21.08C1536.58 21.752 1535.93 22.648 1535.35 23.768C1534.81 24.888 1534.37 26.136 1534.05 27.512C1533.73 28.888 1533.57 30.264 1533.57 31.64C1533.57 34.392 1534.65 35.768 1536.79 35.768ZM1595.17 41.48C1593.93 41.48 1592.73 41.176 1591.57 40.568C1590.45 39.928 1589.54 38.92 1588.84 37.544C1588.13 36.136 1587.78 34.28 1587.78 31.976C1587.78 29.832 1588.07 27.72 1588.65 25.64C1589.22 23.56 1590.04 21.672 1591.09 19.976C1592.15 18.248 1593.41 16.872 1594.89 15.848C1596.39 14.824 1598.07 14.312 1599.93 14.312C1601.59 14.312 1602.93 14.664 1603.96 15.368C1605.01 16.072 1605.83 17 1606.41 18.152H1606.6L1607.94 14.792H1613.37L1607.8 41H1602.52L1602.85 37.592H1602.66C1601.73 38.744 1600.66 39.688 1599.45 40.424C1598.26 41.128 1596.84 41.48 1595.17 41.48ZM1597.96 35.768C1598.92 35.768 1599.81 35.384 1600.65 34.616C1601.48 33.848 1602.18 32.856 1602.76 31.64C1603.37 30.424 1603.8 29.144 1604.05 27.8C1604.28 26.648 1604.39 25.336 1604.39 23.864C1604.39 22.744 1604.1 21.832 1603.53 21.128C1602.95 20.392 1602.15 20.024 1601.13 20.024C1600.26 20.024 1599.45 20.376 1598.68 21.08C1597.94 21.752 1597.29 22.648 1596.71 23.768C1596.17 24.888 1595.73 26.136 1595.41 27.512C1595.09 28.888 1594.93 30.264 1594.93 31.64C1594.93 34.392 1595.94 35.768 1597.96 35.768ZM1637.07 41.48C1635.27 41.48 1633.63 41.16 1632.12 40.52C1630.65 39.848 1629.48 38.808 1628.62 37.4C1627.75 35.992 1627.32 34.136 1627.32 31.832C1627.32 29.464 1627.63 27.24 1628.23 25.16C1628.84 23.048 1629.74 21.176 1630.92 19.544C1632.11 17.912 1633.56 16.632 1635.29 15.704C1637.02 14.776 1638.99 14.312 1641.19 14.312C1642.76 14.312 1644.15 14.456 1645.37 14.744C1646.62 15.032 1647.79 15.448 1648.87 15.992L1646.71 21.368C1645.88 21.016 1645.05 20.712 1644.22 20.456C1643.42 20.168 1642.51 20.024 1641.48 20.024C1640.01 20.024 1638.75 20.584 1637.69 21.704C1636.63 22.792 1635.83 24.2 1635.29 25.928C1634.75 27.624 1634.47 29.4 1634.47 31.256C1634.47 32.728 1634.83 33.848 1635.53 34.616C1636.23 35.384 1637.23 35.768 1638.51 35.768C1639.69 35.768 1640.78 35.592 1641.77 35.24C1642.79 34.856 1643.85 34.392 1644.94 33.848V39.608C1643.85 40.184 1642.67 40.648 1641.39 41C1640.14 41.32 1638.7 41.48 1637.07 41.48ZM1671.31 41.48C1669.52 41.48 1667.87 41.16 1666.37 40.52C1664.89 39.848 1663.73 38.808 1662.86 37.4C1662 35.992 1661.57 34.136 1661.57 31.832C1661.57 29.464 1661.87 27.24 1662.48 25.16C1663.09 23.048 1663.98 21.176 1665.17 19.544C1666.35 17.912 1667.81 16.632 1669.53 15.704C1671.26 14.776 1673.23 14.312 1675.44 14.312C1677.01 14.312 1678.4 14.456 1679.61 14.744C1680.86 15.032 1682.03 15.448 1683.12 15.992L1680.96 21.368C1680.13 21.016 1679.29 20.712 1678.46 20.456C1677.66 20.168 1676.75 20.024 1675.73 20.024C1674.25 20.024 1672.99 20.584 1671.93 21.704C1670.88 22.792 1670.08 24.2 1669.53 25.928C1668.99 27.624 1668.72 29.4 1668.72 31.256C1668.72 32.728 1669.07 33.848 1669.77 34.616C1670.48 35.384 1671.47 35.768 1672.75 35.768C1673.93 35.768 1675.02 35.592 1676.01 35.24C1677.04 34.856 1678.09 34.392 1679.18 33.848V39.608C1678.09 40.184 1676.91 40.648 1675.63 41C1674.38 41.32 1672.94 41.48 1671.31 41.48ZM1705.84 41.48C1703.89 41.48 1702.14 41.08 1700.61 40.28C1699.1 39.448 1697.92 38.28 1697.06 36.776C1696.22 35.272 1695.81 33.48 1695.81 31.4C1695.81 29.096 1696.1 26.92 1696.67 24.872C1697.25 22.792 1698.11 20.968 1699.26 19.4C1700.42 17.8 1701.86 16.552 1703.58 15.656C1705.34 14.76 1707.39 14.312 1709.73 14.312C1712.77 14.312 1715.18 15.224 1716.98 17.048C1718.77 18.872 1719.66 21.416 1719.66 24.68C1719.66 26.888 1719.39 29 1718.85 31.016C1718.3 33.032 1717.46 34.824 1716.3 36.392C1715.18 37.96 1713.74 39.208 1711.98 40.136C1710.26 41.032 1708.21 41.48 1705.84 41.48ZM1706.42 35.72C1707.73 35.72 1708.83 35.192 1709.73 34.136C1710.66 33.08 1711.36 31.72 1711.84 30.056C1712.32 28.36 1712.56 26.568 1712.56 24.68C1712.56 23.368 1712.3 22.28 1711.79 21.416C1711.31 20.52 1710.45 20.072 1709.2 20.072C1708.14 20.072 1707.22 20.44 1706.42 21.176C1705.62 21.88 1704.96 22.808 1704.45 23.96C1703.94 25.112 1703.55 26.344 1703.3 27.656C1703.04 28.968 1702.91 30.216 1702.91 31.4C1702.91 34.28 1704.08 35.72 1706.42 35.72ZM1742.08 41.48C1739.84 41.48 1738.16 40.808 1737.04 39.464C1735.95 38.088 1735.41 36.248 1735.41 33.944C1735.41 33.368 1735.45 32.632 1735.55 31.736C1735.65 30.808 1735.79 29.88 1735.98 28.952L1738.96 14.792H1746.01L1742.8 30.104C1742.54 31.224 1742.41 32.152 1742.41 32.888C1742.41 34.808 1743.26 35.768 1744.96 35.768C1746.05 35.768 1747.01 35.32 1747.84 34.424C1748.7 33.496 1749.45 32.264 1750.09 30.728C1750.73 29.192 1751.25 27.496 1751.63 25.64L1753.93 14.792H1760.99L1755.42 41H1750.05L1750.53 36.152H1750.29C1749.29 37.72 1748.13 39 1746.78 39.992C1745.47 40.984 1743.9 41.48 1742.08 41.48ZM1773.69 41L1779.26 14.792H1784.63L1784.15 19.64H1784.34C1785.37 18.072 1786.54 16.792 1787.85 15.8C1789.19 14.808 1790.78 14.312 1792.6 14.312C1794.87 14.312 1796.57 15 1797.69 16.376C1798.81 17.72 1799.37 19.544 1799.37 21.848C1799.37 23 1799.19 24.408 1798.84 26.072L1795.72 41H1788.66L1791.88 25.688C1792.14 24.568 1792.26 23.64 1792.26 22.904C1792.26 20.984 1791.42 20.024 1789.72 20.024C1788.66 20.024 1787.7 20.488 1786.84 21.416C1785.98 22.312 1785.22 23.528 1784.58 25.064C1783.98 26.6 1783.46 28.296 1783.05 30.152L1780.74 41H1773.69ZM1822.43 41.48C1820.38 41.48 1818.74 41.048 1817.49 40.184C1816.24 39.288 1815.62 37.704 1815.62 35.432C1815.62 34.632 1815.71 33.752 1815.9 32.792L1818.59 20.168H1815.04L1815.71 16.712L1820.32 14.744L1823.39 9.224H1827.95L1826.8 14.792H1833.42L1832.27 20.168H1825.65L1822.96 32.792C1822.86 33.272 1822.82 33.688 1822.82 34.04C1822.82 34.648 1823.01 35.096 1823.39 35.384C1823.78 35.64 1824.27 35.768 1824.88 35.768C1825.52 35.768 1826.13 35.704 1826.7 35.576C1827.31 35.416 1827.97 35.208 1828.67 34.952V40.232C1827.94 40.584 1827.04 40.872 1825.98 41.096C1824.93 41.352 1823.74 41.48 1822.43 41.48ZM1866.24 41L1873.97 4.52H1881.03L1879.68 10.856C1879.56 11.56 1879.36 12.376 1879.11 13.304C1878.85 14.232 1878.6 15.144 1878.34 16.04C1878.08 16.904 1877.84 17.656 1877.62 18.296H1877.81C1878.77 17.08 1879.84 16.12 1881.03 15.416C1882.21 14.68 1883.59 14.312 1885.16 14.312C1887.43 14.312 1889.12 15 1890.24 16.376C1891.36 17.72 1891.92 19.544 1891.92 21.848C1891.92 23 1891.75 24.408 1891.4 26.072L1888.28 41H1881.22L1884.44 25.688C1884.69 24.568 1884.82 23.64 1884.82 22.904C1884.82 20.984 1883.97 20.024 1882.28 20.024C1881.22 20.024 1880.26 20.488 1879.4 21.416C1878.53 22.312 1877.78 23.528 1877.14 25.064C1876.53 26.6 1876.02 28.296 1875.6 30.152L1873.3 41H1866.24ZM1917.87 41.48C1914.8 41.48 1912.3 40.648 1910.38 38.984C1908.46 37.288 1907.5 34.744 1907.5 31.352C1907.5 29.144 1907.81 27.032 1908.41 25.016C1909.05 22.968 1909.98 21.144 1911.2 19.544C1912.45 17.944 1913.98 16.68 1915.81 15.752C1917.63 14.792 1919.74 14.312 1922.14 14.312C1925.09 14.312 1927.28 14.984 1928.72 16.328C1930.19 17.672 1930.93 19.384 1930.93 21.464C1930.93 24.216 1929.68 26.424 1927.18 28.088C1924.72 29.752 1920.94 30.584 1915.85 30.584H1914.65C1914.62 30.776 1914.61 30.952 1914.61 31.112C1914.61 31.24 1914.61 31.384 1914.61 31.544C1914.61 32.952 1915.01 34.072 1915.81 34.904C1916.64 35.736 1917.79 36.152 1919.26 36.152C1920.64 36.152 1921.89 35.992 1923.01 35.672C1924.13 35.352 1925.45 34.84 1926.99 34.136V39.464C1925.61 40.136 1924.22 40.648 1922.81 41C1921.41 41.32 1919.76 41.48 1917.87 41.48ZM1916.48 25.832C1919.2 25.832 1921.15 25.416 1922.33 24.584C1923.55 23.72 1924.16 22.728 1924.16 21.608C1924.16 20.136 1923.34 19.4 1921.71 19.4C1920.85 19.4 1919.98 19.672 1919.12 20.216C1918.25 20.76 1917.49 21.512 1916.81 22.472C1916.17 23.432 1915.71 24.552 1915.42 25.832H1916.48ZM1952.65 41.48C1951.4 41.48 1950.2 41.176 1949.05 40.568C1947.93 39.928 1947.02 38.92 1946.32 37.544C1945.61 36.136 1945.26 34.28 1945.26 31.976C1945.26 29.832 1945.55 27.72 1946.12 25.64C1946.7 23.56 1947.52 21.672 1948.57 19.976C1949.63 18.248 1950.89 16.872 1952.36 15.848C1953.87 14.824 1955.55 14.312 1957.4 14.312C1959.07 14.312 1960.41 14.664 1961.44 15.368C1962.49 16.072 1963.31 17 1963.88 18.152H1964.08L1965.42 14.792H1970.84L1965.28 41H1960L1960.33 37.592H1960.14C1959.21 38.744 1958.14 39.688 1956.92 40.424C1955.74 41.128 1954.32 41.48 1952.65 41.48ZM1955.44 35.768C1956.4 35.768 1957.29 35.384 1958.12 34.616C1958.96 33.848 1959.66 32.856 1960.24 31.64C1960.84 30.424 1961.28 29.144 1961.53 27.8C1961.76 26.648 1961.87 25.336 1961.87 23.864C1961.87 22.744 1961.58 21.832 1961 21.128C1960.43 20.392 1959.63 20.024 1958.6 20.024C1957.74 20.024 1956.92 20.376 1956.16 21.08C1955.42 21.752 1954.76 22.648 1954.19 23.768C1953.64 24.888 1953.21 26.136 1952.89 27.512C1952.57 28.888 1952.41 30.264 1952.41 31.64C1952.41 34.392 1953.42 35.768 1955.44 35.768ZM1983.55 41L1991.28 4.52H1998.34L1990.61 41H1983.55ZM2017.58 41.48C2015.53 41.48 2013.88 41.048 2012.63 40.184C2011.39 39.288 2010.76 37.704 2010.76 35.432C2010.76 34.632 2010.86 33.752 2011.05 32.792L2013.74 20.168H2010.19L2010.86 16.712L2015.47 14.744L2018.54 9.224H2023.1L2021.95 14.792H2028.57L2027.42 20.168H2020.79L2018.11 32.792C2018.01 33.272 2017.96 33.688 2017.96 34.04C2017.96 34.648 2018.15 35.096 2018.54 35.384C2018.92 35.64 2019.42 35.768 2020.03 35.768C2020.67 35.768 2021.27 35.704 2021.85 35.576C2022.46 35.416 2023.11 35.208 2023.82 34.952V40.232C2023.08 40.584 2022.19 40.872 2021.13 41.096C2020.07 41.352 2018.89 41.48 2017.58 41.48ZM2039.57 41L2047.3 4.52H2054.35L2053.01 10.856C2052.88 11.56 2052.69 12.376 2052.43 13.304C2052.18 14.232 2051.92 15.144 2051.67 16.04C2051.41 16.904 2051.17 17.656 2050.95 18.296H2051.14C2052.1 17.08 2053.17 16.12 2054.35 15.416C2055.54 14.68 2056.91 14.312 2058.48 14.312C2060.75 14.312 2062.45 15 2063.57 16.376C2064.69 17.72 2065.25 19.544 2065.25 21.848C2065.25 23 2065.07 24.408 2064.72 26.072L2061.6 41H2054.55L2057.76 25.688C2058.02 24.568 2058.15 23.64 2058.15 22.904C2058.15 20.984 2057.3 20.024 2055.6 20.024C2054.55 20.024 2053.59 20.488 2052.72 21.416C2051.86 22.312 2051.11 23.528 2050.47 25.064C2049.86 26.6 2049.35 28.296 2048.93 30.152L2046.63 41H2039.57ZM2112.68 41.48C2110.73 41.48 2108.98 41.08 2107.45 40.28C2105.94 39.448 2104.76 38.28 2103.9 36.776C2103.06 35.272 2102.65 33.48 2102.65 31.4C2102.65 29.096 2102.94 26.92 2103.51 24.872C2104.09 22.792 2104.95 20.968 2106.1 19.4C2107.26 17.8 2108.7 16.552 2110.42 15.656C2112.18 14.76 2114.23 14.312 2116.57 14.312C2119.61 14.312 2122.02 15.224 2123.82 17.048C2125.61 18.872 2126.5 21.416 2126.5 24.68C2126.5 26.888 2126.23 29 2125.69 31.016C2125.14 33.032 2124.3 34.824 2123.14 36.392C2122.02 37.96 2120.58 39.208 2118.82 40.136C2117.1 41.032 2115.05 41.48 2112.68 41.48ZM2113.26 35.72C2114.57 35.72 2115.67 35.192 2116.57 34.136C2117.5 33.08 2118.2 31.72 2118.68 30.056C2119.16 28.36 2119.4 26.568 2119.4 24.68C2119.4 23.368 2119.14 22.28 2118.63 21.416C2118.15 20.52 2117.29 20.072 2116.04 20.072C2114.98 20.072 2114.06 20.44 2113.26 21.176C2112.46 21.88 2111.8 22.808 2111.29 23.96C2110.78 25.112 2110.39 26.344 2110.14 27.656C2109.88 28.968 2109.75 30.216 2109.75 31.4C2109.75 34.28 2110.92 35.72 2113.26 35.72ZM2138.6 52.52C2136.97 52.52 2135.61 52.328 2134.52 51.944V46.28C2135.48 46.6 2136.37 46.76 2137.21 46.76C2138.17 46.76 2139 46.44 2139.7 45.8C2140.44 45.16 2140.95 44.152 2141.24 42.776L2146.04 20.168H2142.2L2142.92 16.76L2147.19 14.792L2147.62 12.824C2148.33 9.656 2149.46 7.448 2151.03 6.2C2152.63 4.92 2154.71 4.28 2157.27 4.28C2158.36 4.28 2159.35 4.392 2160.25 4.616C2161.17 4.808 2162.02 5.08 2162.79 5.432L2160.92 10.664C2160.47 10.472 2159.99 10.312 2159.48 10.184C2159 10.024 2158.44 9.944 2157.8 9.944C2156.9 9.944 2156.18 10.264 2155.64 10.904C2155.09 11.512 2154.73 12.328 2154.53 13.352L2154.25 14.792H2159.38L2158.23 20.168H2153.09L2148.05 43.832C2147.73 45.432 2147.21 46.888 2146.47 48.2C2145.73 49.512 2144.73 50.552 2143.45 51.32C2142.2 52.12 2140.58 52.52 2138.6 52.52ZM699.744 88.48C698.496 88.48 697.296 88.176 696.144 87.568C695.024 86.928 694.112 85.92 693.408 84.544C692.704 83.136 692.352 81.28 692.352 78.976C692.352 76.832 692.64 74.72 693.216 72.64C693.792 70.56 694.608 68.672 695.664 66.976C696.72 65.248 697.984 63.872 699.456 62.848C700.96 61.824 702.64 61.312 704.496 61.312C706.16 61.312 707.504 61.664 708.528 62.368C709.584 63.072 710.4 64 710.976 65.152H711.168L712.512 61.792H717.936L712.368 88H707.088L707.424 84.592H707.232C706.304 85.744 705.232 86.688 704.016 87.424C702.832 88.128 701.408 88.48 699.744 88.48ZM702.528 82.768C703.488 82.768 704.384 82.384 705.216 81.616C706.048 80.848 706.752 79.856 707.328 78.64C707.936 77.424 708.368 76.144 708.624 74.8C708.848 73.648 708.96 72.336 708.96 70.864C708.96 69.744 708.672 68.832 708.096 68.128C707.52 67.392 706.72 67.024 705.696 67.024C704.832 67.024 704.016 67.376 703.248 68.08C702.512 68.752 701.856 69.648 701.28 70.768C700.736 71.888 700.304 73.136 699.984 74.512C699.664 75.888 699.504 77.264 699.504 78.64C699.504 81.392 700.512 82.768 702.528 82.768ZM730.644 88L736.212 61.792H741.588L741.108 66.64H741.3C742.324 65.072 743.492 63.792 744.804 62.8C746.148 61.808 747.732 61.312 749.556 61.312C751.828 61.312 753.524 62 754.644 63.376C755.764 64.72 756.324 66.544 756.324 68.848C756.324 70 756.148 71.408 755.796 73.072L752.676 88H745.62L748.836 72.688C749.092 71.568 749.22 70.64 749.22 69.904C749.22 67.984 748.372 67.024 746.676 67.024C745.62 67.024 744.66 67.488 743.796 68.416C742.932 69.312 742.18 70.528 741.54 72.064C740.932 73.6 740.42 75.296 740.004 77.152L737.7 88H730.644ZM769.932 99.52C769.1 99.52 768.412 99.472 767.868 99.376C767.324 99.312 766.86 99.216 766.476 99.088V93.472C766.892 93.536 767.324 93.6 767.772 93.664C768.188 93.728 768.668 93.76 769.212 93.76C770.716 93.76 771.948 93.328 772.908 92.464C773.868 91.6 774.7 90.496 775.404 89.152L776.028 88L772.188 61.792H779.1L780.396 73.936C780.524 75.024 780.604 76.208 780.636 77.488C780.668 78.768 780.684 79.872 780.684 80.8H780.876C781.196 80 781.548 79.072 781.932 78.016C782.316 76.928 782.812 75.728 783.42 74.416L789.516 61.792H797.196L781.26 91.744C779.852 94.4 778.188 96.352 776.268 97.6C774.38 98.88 772.268 99.52 769.932 99.52ZM828.404 88L836.132 51.52H843.188L835.46 88H828.404ZM863.918 58.528C862.926 58.528 862.078 58.32 861.374 57.904C860.702 57.456 860.366 56.704 860.366 55.648C860.366 54.304 860.734 53.28 861.47 52.576C862.238 51.872 863.294 51.52 864.638 51.52C865.566 51.52 866.382 51.728 867.086 52.144C867.79 52.56 868.142 53.296 868.142 54.352C868.142 55.6 867.79 56.608 867.086 57.376C866.414 58.144 865.358 58.528 863.918 58.528ZM853.694 88L859.262 61.792H866.318L860.75 88H853.694ZM878.984 88L884.552 61.792H889.928L889.448 66.64H889.64C890.664 65.072 891.832 63.792 893.144 62.8C894.488 61.808 896.072 61.312 897.896 61.312C900.168 61.312 901.864 62 902.984 63.376C904.104 64.72 904.664 66.544 904.664 68.848C904.664 70 904.488 71.408 904.136 73.072L901.016 88H893.96L897.176 72.688C897.432 71.568 897.56 70.64 897.56 69.904C897.56 67.984 896.712 67.024 895.016 67.024C893.96 67.024 893 67.488 892.136 68.416C891.272 69.312 890.52 70.528 889.88 72.064C889.272 73.6 888.76 75.296 888.344 77.152L886.04 88H878.984ZM918.993 88L926.721 51.52H933.777L930.321 67.792C930.161 68.592 929.921 69.52 929.601 70.576C929.281 71.6 929.041 72.384 928.881 72.928H929.073L939.681 61.792H947.745L936.081 73.6L942.753 88H934.881L930.609 78.16L927.777 79.84L926.049 88H918.993ZM967.993 88.48C964.921 88.48 962.425 87.648 960.505 85.984C958.585 84.288 957.625 81.744 957.625 78.352C957.625 76.144 957.929 74.032 958.537 72.016C959.177 69.968 960.105 68.144 961.321 66.544C962.569 64.944 964.105 63.68 965.929 62.752C967.753 61.792 969.865 61.312 972.265 61.312C975.209 61.312 977.401 61.984 978.841 63.328C980.313 64.672 981.049 66.384 981.049 68.464C981.049 71.216 979.801 73.424 977.305 75.088C974.841 76.752 971.065 77.584 965.977 77.584H964.777C964.745 77.776 964.729 77.952 964.729 78.112C964.729 78.24 964.729 78.384 964.729 78.544C964.729 79.952 965.129 81.072 965.929 81.904C966.761 82.736 967.913 83.152 969.385 83.152C970.761 83.152 972.009 82.992 973.129 82.672C974.249 82.352 975.577 81.84 977.113 81.136V86.464C975.737 87.136 974.345 87.648 972.937 88C971.529 88.32 969.881 88.48 967.993 88.48ZM966.601 72.832C969.321 72.832 971.273 72.416 972.457 71.584C973.673 70.72 974.281 69.728 974.281 68.608C974.281 67.136 973.465 66.4 971.833 66.4C970.969 66.4 970.105 66.672 969.241 67.216C968.377 67.76 967.609 68.512 966.937 69.472C966.297 70.432 965.833 71.552 965.545 72.832H966.601ZM1002.78 88.48C1001.53 88.48 1000.33 88.176 999.176 87.568C998.056 86.928 997.144 85.92 996.44 84.544C995.736 83.136 995.384 81.264 995.384 78.928C995.384 76.816 995.672 74.72 996.248 72.64C996.824 70.528 997.64 68.624 998.696 66.928C999.752 65.232 1001.02 63.872 1002.49 62.848C1003.99 61.824 1005.67 61.312 1007.53 61.312C1009.1 61.312 1010.33 61.68 1011.22 62.416C1012.12 63.152 1012.87 64.064 1013.48 65.152H1013.67C1013.67 65.056 1013.69 64.72 1013.72 64.144C1013.78 63.536 1013.86 62.848 1013.96 62.08C1014.06 61.28 1014.17 60.56 1014.3 59.92L1016.07 51.52H1023.13L1015.4 88H1010.02L1010.46 84.592H1010.26C1009.34 85.744 1008.28 86.688 1007.1 87.424C1005.91 88.128 1004.47 88.48 1002.78 88.48ZM1005.75 82.768C1006.87 82.768 1007.82 82.352 1008.58 81.52C1009.38 80.656 1010.02 79.6 1010.5 78.352C1011.02 77.072 1011.38 75.792 1011.61 74.512C1011.86 73.2 1011.99 72.08 1011.99 71.152C1011.99 69.904 1011.7 68.912 1011.13 68.176C1010.55 67.408 1009.75 67.024 1008.73 67.024C1007.86 67.024 1007.05 67.376 1006.28 68.08C1005.54 68.752 1004.89 69.648 1004.31 70.768C1003.77 71.888 1003.34 73.136 1003.02 74.512C1002.7 75.888 1002.54 77.264 1002.54 78.64C1002.54 81.392 1003.61 82.768 1005.75 82.768ZM1068.94 88.48C1067.27 88.48 1065.91 88.128 1064.86 87.424C1063.83 86.72 1063.03 85.792 1062.46 84.64H1062.26L1060.92 88H1055.5L1063.22 51.52H1070.28L1068.84 58.288C1068.71 58.928 1068.54 59.68 1068.31 60.544C1068.09 61.376 1067.85 62.224 1067.59 63.088C1067.34 63.92 1067.1 64.656 1066.87 65.296H1067.06C1067.9 64.24 1068.81 63.312 1069.8 62.512C1070.79 61.712 1072.09 61.312 1073.69 61.312C1074.97 61.312 1076.17 61.632 1077.29 62.272C1078.41 62.88 1079.32 63.888 1080.02 65.296C1080.73 66.672 1081.08 68.512 1081.08 70.816C1081.08 72.96 1080.79 75.072 1080.22 77.152C1079.64 79.232 1078.82 81.136 1077.77 82.864C1076.71 84.56 1075.43 85.92 1073.93 86.944C1072.46 87.968 1070.79 88.48 1068.94 88.48ZM1067.74 82.768C1068.6 82.768 1069.4 82.432 1070.14 81.76C1070.9 81.056 1071.56 80.144 1072.1 79.024C1072.68 77.904 1073.13 76.656 1073.45 75.28C1073.77 73.904 1073.93 72.528 1073.93 71.152C1073.93 68.4 1072.9 67.024 1070.86 67.024C1069.7 67.024 1068.73 67.44 1067.93 68.272C1067.13 69.104 1066.47 70.16 1065.96 71.44C1065.45 72.688 1065.06 73.968 1064.81 75.28C1064.58 76.592 1064.47 77.712 1064.47 78.64C1064.47 79.888 1064.76 80.896 1065.34 81.664C1065.94 82.4 1066.74 82.768 1067.74 82.768ZM1103.72 88.48C1102.48 88.48 1101.28 88.176 1100.12 87.568C1099 86.928 1098.09 85.92 1097.39 84.544C1096.68 83.136 1096.33 81.28 1096.33 78.976C1096.33 76.832 1096.62 74.72 1097.2 72.64C1097.77 70.56 1098.59 68.672 1099.64 66.976C1100.7 65.248 1101.96 63.872 1103.44 62.848C1104.94 61.824 1106.62 61.312 1108.48 61.312C1110.14 61.312 1111.48 61.664 1112.51 62.368C1113.56 63.072 1114.38 64 1114.96 65.152H1115.15L1116.49 61.792H1121.92L1116.35 88H1111.07L1111.4 84.592H1111.21C1110.28 85.744 1109.21 86.688 1108 87.424C1106.81 88.128 1105.39 88.48 1103.72 88.48ZM1106.51 82.768C1107.47 82.768 1108.36 82.384 1109.2 81.616C1110.03 80.848 1110.73 79.856 1111.31 78.64C1111.92 77.424 1112.35 76.144 1112.6 74.8C1112.83 73.648 1112.94 72.336 1112.94 70.864C1112.94 69.744 1112.65 68.832 1112.08 68.128C1111.5 67.392 1110.7 67.024 1109.68 67.024C1108.81 67.024 1108 67.376 1107.23 68.08C1106.49 68.752 1105.84 69.648 1105.26 70.768C1104.72 71.888 1104.28 73.136 1103.96 74.512C1103.64 75.888 1103.48 77.264 1103.48 78.64C1103.48 81.392 1104.49 82.768 1106.51 82.768ZM1134.62 88L1140.19 61.792H1145.57L1145.09 66.64H1145.28C1146.3 65.072 1147.47 63.792 1148.78 62.8C1150.13 61.808 1151.71 61.312 1153.54 61.312C1155.81 61.312 1157.5 62 1158.62 63.376C1159.74 64.72 1160.3 66.544 1160.3 68.848C1160.3 70 1160.13 71.408 1159.78 73.072L1156.66 88H1149.6L1152.82 72.688C1153.07 71.568 1153.2 70.64 1153.2 69.904C1153.2 67.984 1152.35 67.024 1150.66 67.024C1149.6 67.024 1148.64 67.488 1147.78 68.416C1146.91 69.312 1146.16 70.528 1145.52 72.064C1144.91 73.6 1144.4 75.296 1143.98 77.152L1141.68 88H1134.62ZM1174.63 88L1182.36 51.52H1189.42L1185.96 67.792C1185.8 68.592 1185.56 69.52 1185.24 70.576C1184.92 71.6 1184.68 72.384 1184.52 72.928H1184.71L1195.32 61.792H1203.38L1191.72 73.6L1198.39 88H1190.52L1186.25 78.16L1183.42 79.84L1181.69 88H1174.63ZM1243.41 88.48C1242.17 88.48 1240.97 88.176 1239.81 87.568C1238.69 86.928 1237.78 85.92 1237.08 84.544C1236.37 83.136 1236.02 81.28 1236.02 78.976C1236.02 76.832 1236.31 74.72 1236.89 72.64C1237.46 70.56 1238.28 68.672 1239.33 66.976C1240.39 65.248 1241.65 63.872 1243.13 62.848C1244.63 61.824 1246.31 61.312 1248.17 61.312C1249.83 61.312 1251.17 61.664 1252.2 62.368C1253.25 63.072 1254.07 64 1254.65 65.152H1254.84L1256.18 61.792H1261.61L1256.04 88H1250.76L1251.09 84.592H1250.9C1249.97 85.744 1248.9 86.688 1247.69 87.424C1246.5 88.128 1245.08 88.48 1243.41 88.48ZM1246.2 82.768C1247.16 82.768 1248.05 82.384 1248.89 81.616C1249.72 80.848 1250.42 79.856 1251 78.64C1251.61 77.424 1252.04 76.144 1252.29 74.8C1252.52 73.648 1252.63 72.336 1252.63 70.864C1252.63 69.744 1252.34 68.832 1251.77 68.128C1251.19 67.392 1250.39 67.024 1249.37 67.024C1248.5 67.024 1247.69 67.376 1246.92 68.08C1246.18 68.752 1245.53 69.648 1244.95 70.768C1244.41 71.888 1243.97 73.136 1243.65 74.512C1243.33 75.888 1243.17 77.264 1243.17 78.64C1243.17 81.392 1244.18 82.768 1246.2 82.768ZM1285.31 88.48C1283.51 88.48 1281.87 88.16 1280.36 87.52C1278.89 86.848 1277.72 85.808 1276.86 84.4C1275.99 82.992 1275.56 81.136 1275.56 78.832C1275.56 76.464 1275.87 74.24 1276.47 72.16C1277.08 70.048 1277.98 68.176 1279.16 66.544C1280.35 64.912 1281.8 63.632 1283.53 62.704C1285.26 61.776 1287.23 61.312 1289.43 61.312C1291 61.312 1292.39 61.456 1293.61 61.744C1294.86 62.032 1296.03 62.448 1297.11 62.992L1294.95 68.368C1294.12 68.016 1293.29 67.712 1292.46 67.456C1291.66 67.168 1290.75 67.024 1289.72 67.024C1288.25 67.024 1286.99 67.584 1285.93 68.704C1284.87 69.792 1284.07 71.2 1283.53 72.928C1282.99 74.624 1282.71 76.4 1282.71 78.256C1282.71 79.728 1283.07 80.848 1283.77 81.616C1284.47 82.384 1285.47 82.768 1286.75 82.768C1287.93 82.768 1289.02 82.592 1290.01 82.24C1291.03 81.856 1292.09 81.392 1293.18 80.848V86.608C1292.09 87.184 1290.91 87.648 1289.63 88C1288.38 88.32 1286.94 88.48 1285.31 88.48ZM1319.55 88.48C1317.76 88.48 1316.11 88.16 1314.61 87.52C1313.13 86.848 1311.97 85.808 1311.1 84.4C1310.24 82.992 1309.81 81.136 1309.81 78.832C1309.81 76.464 1310.11 74.24 1310.72 72.16C1311.33 70.048 1312.22 68.176 1313.41 66.544C1314.59 64.912 1316.05 63.632 1317.77 62.704C1319.5 61.776 1321.47 61.312 1323.68 61.312C1325.25 61.312 1326.64 61.456 1327.85 61.744C1329.1 62.032 1330.27 62.448 1331.36 62.992L1329.2 68.368C1328.37 68.016 1327.53 67.712 1326.7 67.456C1325.9 67.168 1324.99 67.024 1323.97 67.024C1322.49 67.024 1321.23 67.584 1320.17 68.704C1319.12 69.792 1318.32 71.2 1317.77 72.928C1317.23 74.624 1316.96 76.4 1316.96 78.256C1316.96 79.728 1317.31 80.848 1318.01 81.616C1318.72 82.384 1319.71 82.768 1320.99 82.768C1322.17 82.768 1323.26 82.592 1324.25 82.24C1325.28 81.856 1326.33 81.392 1327.42 80.848V86.608C1326.33 87.184 1325.15 87.648 1323.87 88C1322.62 88.32 1321.18 88.48 1319.55 88.48ZM1354.08 88.48C1352.13 88.48 1350.39 88.08 1348.85 87.28C1347.35 86.448 1346.16 85.28 1345.3 83.776C1344.47 82.272 1344.05 80.48 1344.05 78.4C1344.05 76.096 1344.34 73.92 1344.91 71.872C1345.49 69.792 1346.35 67.968 1347.51 66.4C1348.66 64.8 1350.1 63.552 1351.83 62.656C1353.59 61.76 1355.63 61.312 1357.97 61.312C1361.01 61.312 1363.43 62.224 1365.22 64.048C1367.01 65.872 1367.91 68.416 1367.91 71.68C1367.91 73.888 1367.63 76 1367.09 78.016C1366.55 80.032 1365.7 81.824 1364.55 83.392C1363.43 84.96 1361.99 86.208 1360.23 87.136C1358.5 88.032 1356.45 88.48 1354.08 88.48ZM1354.66 82.72C1355.97 82.72 1357.07 82.192 1357.97 81.136C1358.9 80.08 1359.6 78.72 1360.08 77.056C1360.56 75.36 1360.8 73.568 1360.8 71.68C1360.8 70.368 1360.55 69.28 1360.03 68.416C1359.55 67.52 1358.69 67.072 1357.44 67.072C1356.39 67.072 1355.46 67.44 1354.66 68.176C1353.86 68.88 1353.2 69.808 1352.69 70.96C1352.18 72.112 1351.79 73.344 1351.54 74.656C1351.28 75.968 1351.15 77.216 1351.15 78.4C1351.15 81.28 1352.32 82.72 1354.66 82.72ZM1390.32 88.48C1388.08 88.48 1386.4 87.808 1385.28 86.464C1384.19 85.088 1383.65 83.248 1383.65 80.944C1383.65 80.368 1383.7 79.632 1383.79 78.736C1383.89 77.808 1384.03 76.88 1384.22 75.952L1387.2 61.792H1394.26L1391.04 77.104C1390.78 78.224 1390.66 79.152 1390.66 79.888C1390.66 81.808 1391.5 82.768 1393.2 82.768C1394.29 82.768 1395.25 82.32 1396.08 81.424C1396.94 80.496 1397.7 79.264 1398.34 77.728C1398.98 76.192 1399.49 74.496 1399.87 72.64L1402.18 61.792H1409.23L1403.66 88H1398.29L1398.77 83.152H1398.53C1397.54 84.72 1396.37 86 1395.02 86.992C1393.71 87.984 1392.14 88.48 1390.32 88.48ZM1421.93 88L1427.5 61.792H1432.87L1432.39 66.64H1432.58C1433.61 65.072 1434.78 63.792 1436.09 62.8C1437.43 61.808 1439.02 61.312 1440.84 61.312C1443.11 61.312 1444.81 62 1445.93 63.376C1447.05 64.72 1447.61 66.544 1447.61 68.848C1447.61 70 1447.43 71.408 1447.08 73.072L1443.96 88H1436.9L1440.12 72.688C1440.38 71.568 1440.5 70.64 1440.5 69.904C1440.5 67.984 1439.66 67.024 1437.96 67.024C1436.9 67.024 1435.94 67.488 1435.08 68.416C1434.22 69.312 1433.46 70.528 1432.82 72.064C1432.22 73.6 1431.7 75.296 1431.29 77.152L1428.98 88H1421.93ZM1470.67 88.48C1468.62 88.48 1466.98 88.048 1465.73 87.184C1464.48 86.288 1463.86 84.704 1463.86 82.432C1463.86 81.632 1463.95 80.752 1464.14 79.792L1466.83 67.168H1463.28L1463.95 63.712L1468.56 61.744L1471.63 56.224H1476.19L1475.04 61.792H1481.66L1480.51 67.168H1473.89L1471.2 79.792C1471.1 80.272 1471.06 80.688 1471.06 81.04C1471.06 81.648 1471.25 82.096 1471.63 82.384C1472.02 82.64 1472.51 82.768 1473.12 82.768C1473.76 82.768 1474.37 82.704 1474.94 82.576C1475.55 82.416 1476.21 82.208 1476.91 81.952V87.232C1476.18 87.584 1475.28 87.872 1474.22 88.096C1473.17 88.352 1471.98 88.48 1470.67 88.48Z" fill="white"/>
</g>
<defs>
<filter id="filter0_dd" x="0.719604" y="0.280029" width="2171.07" height="107.24" filterUnits="userSpaceOnUse" color-interpolation-filters="sRGB">
<feFlood flood-opacity="0" result="BackgroundImageFix"/>
<feColorMatrix in="SourceAlpha" type="matrix" values="0 0 0 0 0 0 0 0 0 0 0 0 0 0 0 0 0 0 127 0"/>
<feOffset dx="5"/>
<feGaussianBlur stdDeviation="2"/>
<feColorMatrix type="matrix" values="0 0 0 0 0.286275 0 0 0 0 0.666667 0 0 0 0 1 0 0 0 0.38 0"/>
<feBlend mode="normal" in2="BackgroundImageFix" result="effect1_dropShadow"/>
<feColorMatrix in="SourceAlpha" type="matrix" values="0 0 0 0 0 0 0 0 0 0 0 0 0 0 0 0 0 0 127 0"/>
<feOffset dx="-2" dy="4"/>
<feGaussianBlur stdDeviation="2"/>
<feColorMatrix type="matrix" values="0 0 0 0 0.286275 0 0 0 0 0.666667 0 0 0 0 1 0 0 0 1 0"/>
<feBlend mode="normal" in2="effect1_dropShadow" result="effect2_dropShadow"/>
<feBlend mode="normal" in="SourceGraphic" in2="effect2_dropShadow" result="shape"/>
</filter>
</defs>
</svg>
